<svg width="58" height="58" viewBox="0 0 58 58" fill="none" xmlns="http://www.w3.org/2000/svg">
<g clip-path="url(#clip0_3341_7646)">
<path d="M49.8503 46.758C26.4619 57.8889 11.9468 48.576 2.6553 42.9195C2.08034 42.5631 1.10311 43.0029 1.95099 43.9768C5.04647 47.7301 15.191 56.7768 28.4326 56.7768C41.6833 56.7768 49.5662 49.5466 50.5523 48.2853C51.5318 47.0347 50.8399 46.3448 49.85 46.758H49.8503ZM56.4188 43.1305C55.7907 42.3126 52.5997 42.1601 50.5915 42.4068C48.5801 42.6464 45.5611 43.8757 45.8236 44.6138C45.9582 44.8902 46.2332 44.7662 47.6149 44.642C49.0004 44.5037 52.8817 44.0139 53.6905 45.0711C54.503 46.1357 52.4526 51.207 52.0781 52.0249C51.7163 52.8427 52.2163 53.0536 52.896 52.5089C53.5663 51.9644 54.7797 50.5542 55.5941 48.5587C56.4028 46.5522 56.896 43.7532 56.4186 43.1305H56.4188Z" fill="#FF9900"/>
<path fill-rule="evenodd" clip-rule="evenodd" d="M34.1245 24.0457C34.1245 26.9663 34.1982 29.4019 32.7221 31.9956C31.5306 34.1045 29.6433 35.4013 27.5346 35.4013C24.656 35.4013 22.9796 33.2082 22.9796 29.9713C22.9796 23.5817 28.7047 22.422 34.1245 22.422V24.0457ZM41.6842 42.3181C41.1886 42.7609 40.4717 42.7926 39.9129 42.4973C37.4246 40.4308 36.9817 39.4714 35.6111 37.4996C31.499 41.6961 28.5889 42.9507 23.2538 42.9507C16.9486 42.9507 12.0352 39.06 12.0352 31.2682C12.0352 25.1845 15.3356 21.0407 20.0272 19.0165C24.0973 17.2238 29.7804 16.9076 34.1245 16.4122V15.442C34.1245 13.6601 34.2614 11.5514 33.2177 10.0121C32.3002 8.63079 30.55 8.06139 29.0105 8.06139C26.1533 8.06139 23.6016 9.5269 22.9796 12.5635C22.8529 13.2385 22.3575 13.9028 21.6828 13.9343L14.4074 13.1542C13.796 13.0169 13.1213 12.5215 13.29 11.5829C14.9664 2.76853 22.9267 0.111328 30.0542 0.111328C33.7024 0.111328 38.4681 1.08144 41.3467 3.844C44.9949 7.24951 44.6468 11.7938 44.6468 16.7389V28.4214C44.6468 31.9325 46.1019 33.4718 47.4725 35.3698C47.9574 36.0445 48.063 36.8566 47.4514 37.3624C45.9225 38.6382 43.2022 41.0107 41.7051 42.3393L41.684 42.3181" fill="black"/>
<path d="M49.8503 46.758C26.4619 57.8889 11.9468 48.576 2.6553 42.9195C2.08034 42.5631 1.10311 43.0029 1.95099 43.9768C5.04647 47.7301 15.191 56.7768 28.4326 56.7768C41.6833 56.7768 49.5662 49.5466 50.5523 48.2853C51.5318 47.0347 50.8399 46.3448 49.85 46.758H49.8503ZM56.4188 43.1305C55.7907 42.3126 52.5997 42.1601 50.5915 42.4068C48.5801 42.6464 45.5611 43.8757 45.8236 44.6138C45.9582 44.8902 46.2332 44.7662 47.6149 44.642C49.0004 44.5037 52.8817 44.0139 53.6905 45.0711C54.503 46.1357 52.4526 51.207 52.0781 52.0249C51.7163 52.8427 52.2163 53.0536 52.896 52.5089C53.5663 51.9644 54.7797 50.5542 55.5941 48.5587C56.4028 46.5522 56.896 43.7532 56.4186 43.1305H56.4188Z" fill="#FF9900"/>
<path fill-rule="evenodd" clip-rule="evenodd" d="M34.1245 24.0457C34.1245 26.9663 34.1982 29.4019 32.7221 31.9956C31.5306 34.1045 29.6433 35.4013 27.5346 35.4013C24.656 35.4013 22.9796 33.2082 22.9796 29.9713C22.9796 23.5817 28.7047 22.422 34.1245 22.422V24.0457ZM41.6842 42.3181C41.1886 42.7609 40.4717 42.7926 39.9129 42.4973C37.4246 40.4308 36.9817 39.4714 35.6111 37.4996C31.499 41.6961 28.5889 42.9507 23.2538 42.9507C16.9486 42.9507 12.0352 39.06 12.0352 31.2682C12.0352 25.1845 15.3356 21.0407 20.0272 19.0165C24.0973 17.2238 29.7804 16.9076 34.1245 16.4122V15.442C34.1245 13.6601 34.2614 11.5514 33.2177 10.0121C32.3002 8.63079 30.55 8.06139 29.0105 8.06139C26.1533 8.06139 23.6016 9.5269 22.9796 12.5635C22.8529 13.2385 22.3575 13.9028 21.6828 13.9343L14.4074 13.1542C13.796 13.0169 13.1213 12.5215 13.29 11.5829C14.9664 2.76853 22.9267 0.111328 30.0542 0.111328C33.7024 0.111328 38.4681 1.08144 41.3467 3.844C44.9949 7.24951 44.6468 11.7938 44.6468 16.7389V28.4214C44.6468 31.9325 46.1019 33.4718 47.4725 35.3698C47.9574 36.0445 48.063 36.8566 47.4514 37.3624C45.9225 38.6382 43.2022 41.0107 41.7051 42.3393L41.684 42.3181" fill="black"/>
</g>
<defs>
<clipPath id="clip0_3341_7646">
<rect width="57.7778" height="57.7778" fill="white" transform="translate(0.110352 0.111328)"/>
</clipPath>
</defs>
</svg>
