<svg width="16" height="16" viewBox="0 0 16 16" fill="none" xmlns="http://www.w3.org/2000/svg">
<g clip-path="url(#clip0_3899_10329)">
<path d="M15.8144 2.61419C15.8758 2.6793 15.9238 2.75586 15.9556 2.83951C15.9874 2.92316 16.0024 3.01225 15.9997 3.1017C15.997 3.19114 15.9768 3.27919 15.9401 3.3608C15.9034 3.44242 15.851 3.516 15.7858 3.57735L4.9826 13.7594C4.82704 13.9058 4.6203 13.9856 4.40666 13.9815C4.19303 13.9774 3.98948 13.8899 3.83961 13.7376L0.188583 10.032C0.0650986 9.90276 -0.00260653 9.73011 7.68228e-05 9.55134C0.00276018 9.37258 0.0756167 9.20204 0.202926 9.07652C0.330235 8.951 0.50179 8.88056 0.680573 8.88041C0.859355 8.88025 1.03103 8.95039 1.15856 9.07569L4.43631 12.4025L14.8513 2.58558C14.9164 2.52419 14.993 2.47624 15.0766 2.44445C15.1603 2.41266 15.2493 2.39767 15.3388 2.40032C15.4282 2.40298 15.5163 2.42324 15.5979 2.45993C15.6795 2.49663 15.7531 2.54904 15.8144 2.61419Z" fill="#39C1CB"/>
</g>
<defs>
<clipPath id="clip0_3899_10329">
<rect width="16" height="16" fill="white"/>
</clipPath>
</defs>
</svg>
