<svg width="64" height="64" viewBox="0 0 64 64" fill="none" xmlns="http://www.w3.org/2000/svg">
<g clip-path="url(#clip0_1742_4273)">
<path d="M33.5674 30.1465L13.3337 41.7828L31.7282 52.3606L51.9612 40.7249L33.5674 30.1465Z" fill="url(#paint0_linear_1742_4273)"/>
<path d="M31.7283 52.3603V63.9966L51.9612 52.3603V40.7246L31.7283 52.3603Z" fill="url(#paint1_linear_1742_4273)"/>
<path d="M13.3337 41.7822V53.4179L31.7282 63.9963V52.36L13.3337 41.7822Z" fill="url(#paint2_linear_1742_4273)"/>
<path d="M45.7376 13.3443C45.7386 14.5611 45.5726 15.7724 45.2441 16.9445C44.7061 18.8678 32.3337 37.6215 32.3337 37.6215L22.1404 21.9903C22.1404 21.9903 19.6632 17.7158 19.4679 17.04C19.1216 15.8384 18.9464 14.5944 18.9473 13.3443C18.9473 5.97487 24.9451 0.00195312 32.3428 0.00195312C39.7405 0.00195312 45.7376 5.97487 45.7376 13.3443Z" fill="url(#paint3_linear_1742_4273)"/>
<path d="M45.7376 13.3443C45.7386 14.5611 45.5726 15.7724 45.2441 16.9445C44.7061 18.8678 32.3337 37.6215 32.3337 37.6215L22.1404 21.9903C22.1404 21.9903 19.6632 17.7158 19.4679 17.04C19.1216 15.8384 18.9464 14.5944 18.9473 13.3443C18.9473 5.97487 24.9451 0.00195312 32.3428 0.00195312C39.7405 0.00195312 45.7376 5.97487 45.7376 13.3443Z" fill="url(#paint4_linear_1742_4273)"/>
<path d="M45.7376 13.3443C45.7386 14.5611 45.5726 15.7724 45.2441 16.9445C44.7061 18.8678 32.3337 37.6215 32.3337 37.6215L23.4458 23.9926C22.3657 22.3356 21.3501 20.6391 20.3993 18.9031C19.935 18.0529 19.5409 17.2934 19.4679 17.04C19.1216 15.8384 18.9464 14.5944 18.9473 13.3443C18.9473 5.97487 24.9451 0.00195312 32.3428 0.00195312C39.7405 0.00195312 45.7376 5.97487 45.7376 13.3443Z" fill="url(#paint5_linear_1742_4273)"/>
<path d="M45.7376 13.3444C45.7383 14.5612 45.5722 15.7725 45.2441 16.9446C43.9658 18.4498 40.0414 22.0375 31.5983 22.1615C25.3114 22.2535 21.5197 19.4038 19.4679 17.0381C19.1213 15.8365 18.9461 14.5924 18.9473 13.3423C18.9473 5.97291 24.9444 0 32.3428 0C39.7412 0 45.7376 5.97499 45.7376 13.3444Z" fill="url(#paint6_linear_1742_4273)"/>
</g>
<defs>
<linearGradient id="paint0_linear_1742_4273" x1="13.3337" y1="41.2539" x2="51.9612" y2="41.2539" gradientUnits="userSpaceOnUse">
<stop stop-color="#FF8059" stop-opacity="0.8"/>
<stop offset="0.22" stop-color="#DB5E5E" stop-opacity="0.88"/>
<stop offset="0.47" stop-color="#BF4362" stop-opacity="0.95"/>
<stop offset="0.72" stop-color="#AE3264" stop-opacity="0.99"/>
<stop offset="1" stop-color="#A82D65"/>
</linearGradient>
<linearGradient id="paint1_linear_1742_4273" x1="34.257" y1="65.4505" x2="49.3433" y2="39.2187" gradientUnits="userSpaceOnUse">
<stop stop-color="#A82D65" stop-opacity="0.8"/>
<stop offset="0.37" stop-color="#741E41" stop-opacity="0.89"/>
<stop offset="0.78" stop-color="#43101E" stop-opacity="0.97"/>
<stop offset="1" stop-color="#300B11"/>
</linearGradient>
<linearGradient id="paint2_linear_1742_4273" x1="20.0016" y1="57.2521" x2="25.0306" y2="48.5086" gradientUnits="userSpaceOnUse">
<stop stop-color="#A82D65" stop-opacity="0.8"/>
<stop offset="0.23" stop-color="#942757" stop-opacity="0.83"/>
<stop offset="0.67" stop-color="#5E1831" stop-opacity="0.92"/>
<stop offset="1" stop-color="#300B11"/>
</linearGradient>
<linearGradient id="paint3_linear_1742_4273" x1="18.9473" y1="18.8118" x2="45.7376" y2="18.8118" gradientUnits="userSpaceOnUse">
<stop stop-color="#A82D65" stop-opacity="0.8"/>
<stop offset="0.43" stop-color="#721E3F" stop-opacity="0.89"/>
<stop offset="1" stop-color="#300B11"/>
</linearGradient>
<linearGradient id="paint4_linear_1742_4273" x1="18.9473" y1="18.8118" x2="45.7376" y2="18.8118" gradientUnits="userSpaceOnUse">
<stop stop-color="#A82D65" stop-opacity="0.8"/>
<stop offset="0.43" stop-color="#721E3F" stop-opacity="0.89"/>
<stop offset="1" stop-color="#300B11"/>
</linearGradient>
<linearGradient id="paint5_linear_1742_4273" x1="24.4912" y1="34.7788" x2="36.8222" y2="0.765638" gradientUnits="userSpaceOnUse">
<stop stop-color="#A82D65" stop-opacity="0.8"/>
<stop offset="0.03" stop-color="#9E2A5E" stop-opacity="0.82"/>
<stop offset="0.19" stop-color="#761F42" stop-opacity="0.88"/>
<stop offset="0.35" stop-color="#57162C" stop-opacity="0.94"/>
<stop offset="0.52" stop-color="#41101D" stop-opacity="0.97"/>
<stop offset="0.72" stop-color="#340C14" stop-opacity="0.99"/>
<stop offset="1" stop-color="#300B11"/>
</linearGradient>
<linearGradient id="paint6_linear_1742_4273" x1="30.0164" y1="0.202167" x2="33.8654" y2="22.1182" gradientUnits="userSpaceOnUse">
<stop stop-color="#FF8059" stop-opacity="0.8"/>
<stop offset="0.21" stop-color="#DD605E" stop-opacity="0.88"/>
<stop offset="0.47" stop-color="#C04462" stop-opacity="0.95"/>
<stop offset="0.73" stop-color="#AE3364" stop-opacity="0.99"/>
<stop offset="1" stop-color="#A82D65"/>
</linearGradient>
<clipPath id="clip0_1742_4273">
<rect width="64" height="64" fill="white"/>
</clipPath>
</defs>
</svg>
