<svg width="20" height="20" viewBox="0 0 20 20" fill="none" xmlns="http://www.w3.org/2000/svg">
<path d="M3.33342 3.475V14.1667C3.33325 15.2245 3.73547 16.2429 4.45848 17.0151C5.18149 17.7873 6.17116 18.2556 7.22675 18.325L7.50008 18.3333H14.8567C14.6844 18.8207 14.3653 19.2427 13.9432 19.5411C13.5212 19.8396 13.017 19.9999 12.5001 20H6.66675C5.34067 20 4.0689 19.4732 3.13121 18.5355C2.19353 17.5979 1.66675 16.3261 1.66675 15V5.83333C1.66648 5.31612 1.82663 4.81156 2.12513 4.38918C2.42363 3.9668 2.84578 3.6474 3.33342 3.475ZM15.8334 0C16.4965 0 17.1323 0.263392 17.6012 0.732233C18.07 1.20107 18.3334 1.83696 18.3334 2.5V14.1667C18.3334 14.8297 18.07 15.4656 17.6012 15.9344C17.1323 16.4033 16.4965 16.6667 15.8334 16.6667H7.50008C6.83704 16.6667 6.20116 16.4033 5.73231 15.9344C5.26347 15.4656 5.00008 14.8297 5.00008 14.1667V2.5C5.00008 1.83696 5.26347 1.20107 5.73231 0.732233C6.20116 0.263392 6.83704 0 7.50008 0H15.8334ZM15.8334 1.66667H7.50008C7.27907 1.66667 7.06711 1.75446 6.91083 1.91074C6.75455 2.06702 6.66675 2.27899 6.66675 2.5V14.1667C6.66675 14.3877 6.75455 14.5996 6.91083 14.7559C7.06711 14.9122 7.27907 15 7.50008 15H15.8334C16.0544 15 16.2664 14.9122 16.4227 14.7559C16.579 14.5996 16.6667 14.3877 16.6667 14.1667V2.5C16.6667 2.27899 16.579 2.06702 16.4227 1.91074C16.2664 1.75446 16.0544 1.66667 15.8334 1.66667Z" fill="white"/>
</svg>
