<svg width="64" height="64" viewBox="0 0 64 64" fill="none" xmlns="http://www.w3.org/2000/svg">
<path d="M27.035 47.0192V62.3024L20.2787 58.3824L21.0532 57.933L26.2557 54.9223V50.6084L20.0538 54.2033C18.924 54.8582 17.0844 54.8554 15.9459 54.1956L6.65929 48.8147L4.99783 47.8529C4.93019 47.8137 4.86636 47.7726 4.8073 47.7315L4.12328 48.1273L3.34876 48.5767L2.84766 48.2899V33.0038C2.84766 26.3484 5.84952 22.3711 10.1403 22.3711C10.2042 22.3711 10.267 22.3711 10.3309 22.3711C10.3947 22.3711 10.449 22.3711 10.5071 22.3768H10.5586L10.7167 22.3883C10.7824 22.3931 10.8463 22.3998 10.912 22.4065C10.9777 22.4132 11.0435 22.4208 11.1092 22.4304C11.1749 22.4399 11.2416 22.4476 11.3074 22.4591C11.3731 22.4705 11.4312 22.4791 11.4979 22.4916C11.6179 22.5126 11.7389 22.5375 11.8609 22.5652L11.9809 22.5929L12.039 22.6072L12.1581 22.6378C12.2905 22.6732 12.4248 22.7115 12.5592 22.7535C12.6192 22.7717 12.6811 22.7918 12.7411 22.8119L12.9136 22.8711L13.0469 22.9189L13.167 22.9639C13.2356 22.9897 13.3051 23.0174 13.3737 23.0451L13.529 23.1102L13.8386 23.2459C13.9434 23.2947 14.0482 23.3415 14.153 23.3951C14.2568 23.4467 14.3626 23.5002 14.4674 23.5557C14.5245 23.5853 14.5817 23.6169 14.6398 23.6513L14.7503 23.7115L14.9408 23.8234C18.5457 25.9125 21.781 29.8956 23.9912 34.5317C24.1532 34.8672 24.3094 35.2086 24.459 35.5518C24.8334 36.4075 25.1725 37.2823 25.4736 38.1686C26.0629 39.8932 26.4943 41.668 26.7625 43.4711C26.9393 44.6456 27.0303 45.8314 27.035 47.0192Z" fill="url(#paint0_linear_1742_4313)"/>
<path d="M27.035 47.0192V62.3024L20.2787 58.3824L21.0532 57.933L26.2557 54.9223V50.6084L20.0538 54.2033C18.924 54.8582 17.0844 54.8554 15.9459 54.1956L6.65929 48.8147L4.99783 47.8529C4.93019 47.8137 4.86636 47.7726 4.8073 47.7315L4.12328 48.1273L3.34876 48.5767L2.84766 48.2899V33.0038C2.84766 26.3484 5.84952 22.3711 10.1403 22.3711C10.2042 22.3711 10.267 22.3711 10.3309 22.3711C10.3947 22.3711 10.449 22.3711 10.5071 22.3768H10.5586L10.7167 22.3883C10.7824 22.3931 10.8463 22.3998 10.912 22.4065C10.9777 22.4132 11.0435 22.4208 11.1092 22.4304C11.1749 22.4399 11.2416 22.4476 11.3074 22.4591C11.3731 22.4705 11.4312 22.4791 11.4979 22.4916C11.6179 22.5126 11.7389 22.5375 11.8609 22.5652L11.9809 22.5929L12.039 22.6072L12.1581 22.6378C12.2905 22.6732 12.4248 22.7115 12.5592 22.7535C12.6192 22.7717 12.6811 22.7918 12.7411 22.8119L12.9136 22.8711L13.0469 22.9189L13.167 22.9639C13.2356 22.9897 13.3051 23.0174 13.3737 23.0451L13.529 23.1102L13.8386 23.2459C13.9434 23.2947 14.0482 23.3415 14.153 23.3951C14.2568 23.4467 14.3626 23.5002 14.4674 23.5557C14.5245 23.5853 14.5817 23.6169 14.6398 23.6513L14.7503 23.7115L14.9408 23.8234C18.5457 25.9125 21.781 29.8956 23.9912 34.5317C24.1532 34.8672 24.3094 35.2086 24.459 35.5518C24.8334 36.4075 25.1725 37.2823 25.4736 38.1686C26.0629 39.8932 26.4943 41.668 26.7625 43.4711C26.9393 44.6456 27.0303 45.8314 27.035 47.0192Z" fill="url(#paint1_linear_1742_4313)"/>
<path d="M39.2425 26.8477L35.0107 39.1373L33.7027 42.9359L32.3957 46.7325L32.2575 47.1322L31.3306 49.8264L30.4027 52.5207L27.035 62.3025L20.2787 58.3825L21.0532 57.9332L26.2557 54.9224V50.6085L20.0538 54.2034C18.924 54.8584 17.0844 54.8555 15.9459 54.1958L6.65929 48.8149L4.99783 47.853C4.93019 47.8138 4.86636 47.7727 4.8073 47.7316L4.12328 48.1274L3.34876 48.5768L2.84766 48.29L3.62313 47.8339L4.41003 47.3702L23.795 35.9516L24.4618 35.5577L26.4234 34.4027L39.2425 26.8477Z" fill="url(#paint2_linear_1742_4313)"/>
<path d="M39.2425 26.8477L35.0107 39.1373L33.7027 42.9359L32.3957 46.7325L32.2575 47.1322L31.3306 49.8264L30.4027 52.5207L27.035 62.3025L20.2787 58.3825L21.0532 57.9332L26.2557 54.9224V50.6085L20.0538 54.2034C18.924 54.8584 17.0844 54.8555 15.9459 54.1958L6.65929 48.8149L4.99783 47.853C4.93019 47.8138 4.86636 47.7727 4.8073 47.7316L4.12328 48.1274L3.34876 48.5768L2.84766 48.29L3.62313 47.8339L4.41003 47.3702L23.795 35.9516L24.4618 35.5577L26.4234 34.4027L39.2425 26.8477Z" fill="url(#paint3_linear_1742_4313)"/>
<path d="M33.9245 54.3637L50.1589 44.9519L33.9245 35.5449L17.791 44.9519L33.9245 54.3637Z" fill="#A82D65"/>
<path d="M26.2551 52.7658V54.9228L21.0526 57.9421L20.2781 58.3915L15.9139 60.9156C14.7831 61.5714 12.9425 61.5667 11.805 60.9079L0.856941 54.5642C-0.280547 53.9055 -0.286261 52.8433 0.843605 52.1845L2.73846 51.0869C2.79753 51.129 2.8604 51.1691 2.929 51.2083L13.8704 57.552C15.0136 58.2117 16.8494 58.2146 17.9793 57.5597L18.4118 57.3082L19.1882 56.8589L26.2551 52.7658Z" fill="url(#paint4_linear_1742_4313)"/>
<path d="M26.2551 52.7658V54.9228L21.0526 57.9421L20.2781 58.3915L15.9139 60.9156C14.7831 61.5714 12.9425 61.5667 11.805 60.9079L0.856941 54.5642C-0.280547 53.9055 -0.286261 52.8433 0.843605 52.1845L2.73846 51.0869C2.79753 51.129 2.8604 51.1691 2.929 51.2083L13.8704 57.552C15.0136 58.2117 16.8494 58.2146 17.9793 57.5597L18.4118 57.3082L19.1882 56.8589L26.2551 52.7658Z" fill="url(#paint5_linear_1742_4313)"/>
<path d="M38.4846 43.5246L36.5916 44.6213L32.6714 46.8939L32.257 47.1329L27.0344 50.159L26.2551 50.6093L20.0533 54.2042C18.9234 54.8591 17.0838 54.8562 15.9454 54.1965L6.65873 48.8156L4.99727 47.8538C4.92963 47.8146 4.8658 47.7735 4.80674 47.7324C4.65812 47.6297 4.52442 47.5068 4.40947 47.3672C3.91123 46.7438 4.10176 45.9837 4.98108 45.4722L23.3019 34.8614L23.419 34.7936C23.6034 34.6878 23.7977 34.6007 23.9992 34.5335C24.7843 34.2813 25.6206 34.2349 26.4285 34.3987C26.8138 34.4734 27.1849 34.609 27.5279 34.8003L35.014 39.1381L38.476 41.1459C39.6097 41.8036 39.6163 42.8687 38.4846 43.5246Z" fill="url(#paint6_linear_1742_4313)"/>
<path d="M38.4846 43.5246L36.5916 44.6213L32.6714 46.8939L32.257 47.1329L27.0344 50.159L26.2551 50.6093L20.0533 54.2042C18.9234 54.8591 17.0838 54.8562 15.9454 54.1965L6.65873 48.8156L4.99727 47.8538C4.92963 47.8146 4.8658 47.7735 4.80674 47.7324C4.65812 47.6297 4.52442 47.5068 4.40947 47.3672C3.91123 46.7438 4.10176 45.9837 4.98108 45.4722L23.3019 34.8614L23.419 34.7936C23.6034 34.6878 23.7977 34.6007 23.9992 34.5335C24.7843 34.2813 25.6206 34.2349 26.4285 34.3987C26.8138 34.4734 27.1849 34.609 27.5279 34.8003L35.014 39.1381L38.476 41.1459C39.6097 41.8036 39.6163 42.8687 38.4846 43.5246Z" fill="url(#paint7_linear_1742_4313)"/>
<path d="M20.1221 47.1975C24.9394 47.1975 28.8447 43.2782 28.8447 38.4435C28.8447 33.6088 24.9394 29.6895 20.1221 29.6895C15.3047 29.6895 11.3994 33.6088 11.3994 38.4435C11.3994 43.2782 15.3047 47.1975 20.1221 47.1975Z" fill="url(#paint8_linear_1742_4313)"/>
<path d="M20.1221 47.1975C24.9394 47.1975 28.8447 43.2782 28.8447 38.4435C28.8447 33.6088 24.9394 29.6895 20.1221 29.6895C15.3047 29.6895 11.3994 33.6088 11.3994 38.4435C11.3994 43.2782 15.3047 47.1975 20.1221 47.1975Z" fill="url(#paint9_linear_1742_4313)"/>
<path d="M20.1221 47.1975C24.9394 47.1975 28.8447 43.2782 28.8447 38.4435C28.8447 33.6088 24.9394 29.6895 20.1221 29.6895C15.3047 29.6895 11.3994 33.6088 11.3994 38.4435C11.3994 43.2782 15.3047 47.1975 20.1221 47.1975Z" fill="url(#paint10_linear_1742_4313)"/>
<path d="M20.1221 47.1975C24.9394 47.1975 28.8447 43.2782 28.8447 38.4435C28.8447 33.6088 24.9394 29.6895 20.1221 29.6895C15.3047 29.6895 11.3994 33.6088 11.3994 38.4435C11.3994 43.2782 15.3047 47.1975 20.1221 47.1975Z" fill="#F2DCC2"/>
<path d="M49.2325 4.1224C46.3336 2.44254 43.6737 2.26758 41.5902 3.33649L41.5693 3.29442L7.6123 22.8944C9.6453 21.9966 12.1851 22.2318 14.9402 23.8285C21.6194 27.6987 27.0344 38.0819 27.0344 47.0195V62.3017L61.3305 42.5956V27.3134C61.3267 18.3759 55.9117 7.99267 49.2325 4.1224Z" fill="url(#paint11_linear_1742_4313)"/>
<path d="M26.2547 50.6083V52.7653L19.1887 56.8583L18.4123 57.3077L17.9827 57.5591C16.8528 58.2141 15.0132 58.2112 13.8738 57.5515L2.92762 51.2078C2.85998 51.1686 2.79711 51.1284 2.73709 51.0864C1.79109 50.4238 1.8492 49.4438 2.91333 48.8271L3.3468 48.5766L4.12132 48.1273L4.80533 47.7314C4.8644 47.7726 4.92823 47.8137 4.99587 47.8529L6.65732 48.8147L15.9439 54.1956C17.0872 54.8553 18.922 54.8582 20.0519 54.2032L26.2547 50.6083Z" fill="url(#paint12_linear_1742_4313)"/>
<path d="M26.7666 43.4726C26.4984 41.6695 26.067 39.8946 25.4777 38.1701C25.1766 37.2838 24.8375 36.409 24.4631 35.5533C24.3135 35.2101 24.1573 34.8687 23.9953 34.5331C21.7804 29.9009 18.5451 25.9178 14.945 23.8249L14.7544 23.713L14.6325 23.6566C14.5744 23.6251 14.5172 23.5935 14.46 23.561C14.3553 23.5055 14.2495 23.452 14.1457 23.4004L13.8313 23.2512L13.5217 23.1155L13.3664 23.0504C13.2978 23.0227 13.2282 22.995 13.1597 22.9692L13.0396 22.9242L12.9062 22.8764L12.7338 22.8172C12.6738 22.7971 12.6119 22.777 12.5518 22.7588C12.4175 22.7168 12.2832 22.6785 12.1508 22.6431L12.0317 22.6126L11.9736 22.5982L11.8535 22.5705C11.7316 22.5428 11.6106 22.5179 11.4906 22.4969C11.4286 22.4844 11.3667 22.4739 11.3 22.4644C11.2334 22.4548 11.1676 22.4443 11.1019 22.4357C11.0361 22.4271 10.9704 22.4185 10.9047 22.4118C10.8389 22.4051 10.7751 22.3984 10.7094 22.3936L10.5512 22.3821H10.4998C10.4417 22.3821 10.3826 22.3774 10.3236 22.3764C10.2645 22.3754 10.1968 22.3764 10.133 22.3764C5.846 22.3764 2.84033 26.3538 2.84033 33.0091V48.2856L3.34144 48.5724L4.11596 48.1231L3.6158 47.8362V33.0043C3.6158 27.2009 6.02034 23.3889 9.77291 23.1623C9.89104 23.1547 10.0111 23.1508 10.1321 23.1508C11.5125 23.1508 12.9977 23.605 14.5467 24.5028C18.0221 26.5172 21.1478 30.3741 23.2913 34.8611C23.4647 35.2187 23.6301 35.5807 23.7876 35.9472C24.0518 36.5553 24.2964 37.171 24.5212 37.7944C25.1349 39.4752 25.5956 41.2084 25.8978 42.9726C26.1294 44.3092 26.2489 45.663 26.255 47.0197V60.9539L21.0525 57.9422L20.278 58.3915L27.0343 62.3115V47.0197C27.0312 45.8324 26.9418 44.6469 26.7666 43.4726Z" fill="url(#paint13_linear_1742_4313)"/>
<path style="mix-blend-mode:lighten" d="M18.7464 53.6946C26.8138 53.6946 33.3537 47.1312 33.3537 39.0348C33.3537 30.9384 26.8138 24.375 18.7464 24.375C10.6791 24.375 4.13916 30.9384 4.13916 39.0348C4.13916 47.1312 10.6791 53.6946 18.7464 53.6946Z" fill="url(#paint14_radial_1742_4313)"/>
<path d="M49.2764 4.2096C46.3774 2.5307 43.7175 2.35573 41.634 3.42369L41.6131 3.38258L7.6123 22.8946L7.65518 22.9835C9.68913 22.0847 12.228 22.3199 14.9841 23.9176C21.6632 27.7869 27.083 38.1701 27.083 47.1076V62.3908L61.3791 42.6847V27.4016C61.3705 18.464 55.9555 8.08082 49.2764 4.2096Z" fill="url(#paint15_linear_1742_4313)"/>
<path d="M55.5878 21.4882L51.055 18.8379C48.9429 17.769 46.1011 18.007 42.983 19.816C36.4582 23.5973 31.1699 32.7921 31.1699 40.3529C31.1699 44.225 32.5599 46.9145 34.7901 48.1125V48.1183L39.059 50.6328L40.3337 48.3812C41.2577 48.0854 42.1462 47.6878 42.983 47.1956C49.5079 43.4152 54.7961 34.2205 54.7961 26.6587C54.8047 25.5997 54.684 24.5437 54.437 23.5141L55.5878 21.4882Z" fill="#A82D65"/>
<path d="M55.6264 21.4882L51.0936 18.8379C48.9815 17.769 46.1397 18.007 43.0216 19.816C36.4958 23.5935 31.2095 32.7882 31.2095 40.35C31.2095 44.2222 32.5985 46.9117 34.8296 48.1096V48.1154L39.0995 50.6299L40.3722 48.3812C41.2965 48.0848 42.1853 47.6869 43.0226 47.1947C49.5474 43.4143 54.8357 34.2195 54.8357 26.6578C54.8445 25.5988 54.7242 24.5428 54.4775 23.5132L55.6264 21.4882Z" fill="url(#paint16_linear_1742_4313)"/>
<path d="M31.4728 37.0576C31.2757 38.1326 31.1737 39.223 31.168 40.316C31.168 44.1882 32.5579 46.8767 34.7881 48.0756V48.0814L39.057 50.5959L40.3327 48.3462C41.2567 48.0508 42.1452 47.6535 42.982 47.1616C43.9222 46.6097 44.8123 45.976 45.6419 45.2676L31.4728 37.0576Z" fill="#A82D65"/>
<path d="M39.1757 50.6961L34.72 48.2313L34.6972 48.2141C32.3336 46.9281 31.0332 44.1364 31.0332 40.3483C31.0332 32.756 36.3682 23.4904 42.9149 19.6967C45.9634 17.9298 48.8758 17.5808 51.1155 18.7138L55.7045 21.5563C55.7693 21.5936 55.7417 21.4913 55.7045 21.5563L54.5832 23.5344C54.8219 24.5578 54.9383 25.606 54.93 26.657C54.93 34.2494 49.5998 43.5149 43.0483 47.3087C42.2179 47.7959 41.3376 48.1921 40.4227 48.4904L39.1738 50.6894C39.1576 50.7277 39.1957 50.7085 39.1757 50.6961Z" fill="url(#paint17_linear_1742_4313)"/>
<path d="M39.1757 50.6961L34.72 48.2313L34.6972 48.2141C32.3336 46.9281 31.0332 44.1364 31.0332 40.3483C31.0332 32.756 36.3682 23.4904 42.9149 19.6967C45.9634 17.9298 48.8758 17.5808 51.1155 18.7138L55.7045 21.5563C55.7693 21.5936 55.7417 21.4913 55.7045 21.5563L54.5832 23.5344C54.8219 24.5578 54.9383 25.606 54.93 26.657C54.93 34.2494 49.5998 43.5149 43.0483 47.3087C42.2179 47.7959 41.3376 48.1921 40.4227 48.4904L39.1738 50.6894C39.1576 50.7277 39.1957 50.7085 39.1757 50.6961Z" fill="url(#paint18_linear_1742_4313)"/>
<path d="M55.6456 40.8816C60.2594 32.8616 60.2592 24.1928 55.6452 21.5194C51.0313 18.8459 43.5507 23.1802 38.937 31.2002C34.3232 39.2202 34.3234 47.8889 38.9373 50.5624C43.5513 53.2358 51.0318 48.9016 55.6456 40.8816Z" fill="url(#paint19_linear_1742_4313)"/>
<path d="M55.6456 40.8816C60.2594 32.8616 60.2592 24.1928 55.6452 21.5194C51.0313 18.8459 43.5507 23.1802 38.937 31.2002C34.3232 39.2202 34.3234 47.8889 38.9373 50.5624C43.5513 53.2358 51.0318 48.9016 55.6456 40.8816Z" fill="url(#paint20_linear_1742_4313)"/>
<path d="M46.6284 28.5913L50.3686 26.4248V32.9253L55.9779 29.6746V34.0085L50.3686 37.2583V43.7588L46.6284 45.9253V39.4248L41.02 42.6755V38.3416L46.595 35.0746L46.6284 28.5913Z" fill="#F2DCC2"/>
<path d="M26.7666 43.4726C26.4984 41.6695 26.067 39.8946 25.4777 38.1701C25.1766 37.2838 24.8375 36.409 24.4631 35.5533C24.3135 35.2101 24.1573 34.8687 23.9953 34.5331C21.7804 29.9009 18.5451 25.9178 14.945 23.8249L14.7544 23.713L14.6325 23.6566C14.5744 23.6251 14.5172 23.5935 14.46 23.561C14.3553 23.5055 14.2495 23.452 14.1457 23.4004L13.8313 23.2512L13.5217 23.1155L13.3664 23.0504C13.2978 23.0227 13.2282 22.995 13.1597 22.9692L13.0396 22.9242L12.9062 22.8764L12.7338 22.8172C12.6738 22.7971 12.6119 22.777 12.5518 22.7588C12.4175 22.7168 12.2832 22.6785 12.1508 22.6431L12.0317 22.6126L11.9736 22.5982L11.8535 22.5705C11.7316 22.5428 11.6106 22.5179 11.4906 22.4969C11.4286 22.4844 11.3667 22.4739 11.3 22.4644C11.2334 22.4548 11.1676 22.4443 11.1019 22.4357C11.0361 22.4271 10.9704 22.4185 10.9047 22.4118C10.8389 22.4051 10.7751 22.3984 10.7094 22.3936L10.5512 22.3821H10.4998C10.4417 22.3821 10.3826 22.3774 10.3236 22.3764C10.2645 22.3754 10.1968 22.3764 10.133 22.3764C5.846 22.3764 2.84033 26.3538 2.84033 33.0091V48.2856L3.34144 48.5724L4.11596 48.1231L3.6158 47.8362V33.0043C3.6158 27.2009 6.02034 23.3889 9.77291 23.1623C9.89104 23.1547 10.0111 23.1508 10.1321 23.1508C11.5125 23.1508 12.9977 23.605 14.5467 24.5028C18.0221 26.5172 21.1478 30.3741 23.2913 34.8611C23.4647 35.2187 23.6301 35.5807 23.7876 35.9472C24.0518 36.5553 24.2964 37.171 24.5212 37.7944C25.1349 39.4752 25.5956 41.2084 25.8978 42.9726C26.1294 44.3092 26.2489 45.663 26.255 47.0197V60.9539L21.0525 57.9422L20.278 58.3915L27.0343 62.3115V47.0197C27.0312 45.8324 26.9418 44.6469 26.7666 43.4726Z" fill="url(#paint21_linear_1742_4313)"/>
<defs>
<linearGradient id="paint0_linear_1742_4313" x1="2.84766" y1="42.3363" x2="27.035" y2="42.3363" gradientUnits="userSpaceOnUse">
<stop stop-color="#A82D65" stop-opacity="0.8"/>
<stop offset="0.14" stop-color="#88244E" stop-opacity="0.85"/>
<stop offset="0.35" stop-color="#611934" stop-opacity="0.92"/>
<stop offset="0.57" stop-color="#461120" stop-opacity="0.96"/>
<stop offset="0.78" stop-color="#350D15" stop-opacity="0.99"/>
<stop offset="1" stop-color="#300B11"/>
</linearGradient>
<linearGradient id="paint1_linear_1742_4313" x1="2.84766" y1="42.3363" x2="27.035" y2="42.3363" gradientUnits="userSpaceOnUse">
<stop stop-color="#A72D64" stop-opacity="0.8"/>
<stop offset="0.07" stop-color="#82224A" stop-opacity="0.86"/>
<stop offset="0.15" stop-color="#641A35" stop-opacity="0.91"/>
<stop offset="0.25" stop-color="#4C1325" stop-opacity="0.95"/>
<stop offset="0.37" stop-color="#3C0E19" stop-opacity="0.98"/>
<stop offset="0.54" stop-color="#330C13"/>
<stop offset="1" stop-color="#300B11"/>
</linearGradient>
<linearGradient id="paint2_linear_1742_4313" x1="2.84766" y1="44.5746" x2="39.2425" y2="44.5746" gradientUnits="userSpaceOnUse">
<stop stop-color="#FF8059" stop-opacity="0.8"/>
<stop offset="0.62" stop-color="#C44861" stop-opacity="0.93"/>
<stop offset="1" stop-color="#A82D65"/>
</linearGradient>
<linearGradient id="paint3_linear_1742_4313" x1="2.84766" y1="44.5746" x2="39.2425" y2="44.5746" gradientUnits="userSpaceOnUse">
<stop stop-color="#FF8059" stop-opacity="0.8"/>
<stop offset="0.62" stop-color="#C44861" stop-opacity="0.93"/>
<stop offset="1" stop-color="#A82D65"/>
</linearGradient>
<linearGradient id="paint4_linear_1742_4313" x1="0.000491345" y1="56.246" x2="26.258" y2="56.246" gradientUnits="userSpaceOnUse">
<stop stop-color="#A72D64" stop-opacity="0.8"/>
<stop offset="0.07" stop-color="#82224A" stop-opacity="0.86"/>
<stop offset="0.15" stop-color="#641A35" stop-opacity="0.91"/>
<stop offset="0.25" stop-color="#4C1325" stop-opacity="0.95"/>
<stop offset="0.37" stop-color="#3C0E19" stop-opacity="0.98"/>
<stop offset="0.54" stop-color="#330C13"/>
<stop offset="1" stop-color="#300B11"/>
</linearGradient>
<linearGradient id="paint5_linear_1742_4313" x1="0.000491345" y1="56.246" x2="26.258" y2="56.246" gradientUnits="userSpaceOnUse">
<stop stop-color="#A82D65" stop-opacity="0.8"/>
<stop offset="0.03" stop-color="#A22B61" stop-opacity="0.81"/>
<stop offset="0.31" stop-color="#711D3E" stop-opacity="0.89"/>
<stop offset="0.57" stop-color="#4D1325" stop-opacity="0.95"/>
<stop offset="0.81" stop-color="#380D16" stop-opacity="0.99"/>
<stop offset="1" stop-color="#300B11"/>
</linearGradient>
<linearGradient id="paint6_linear_1742_4313" x1="4.13987" y1="44.4979" x2="39.3296" y2="44.4979" gradientUnits="userSpaceOnUse">
<stop stop-color="#A72D64" stop-opacity="0.8"/>
<stop offset="0.07" stop-color="#82224A" stop-opacity="0.86"/>
<stop offset="0.15" stop-color="#641A35" stop-opacity="0.91"/>
<stop offset="0.25" stop-color="#4C1325" stop-opacity="0.95"/>
<stop offset="0.37" stop-color="#3C0E19" stop-opacity="0.98"/>
<stop offset="0.54" stop-color="#330C13"/>
<stop offset="1" stop-color="#300B11"/>
</linearGradient>
<linearGradient id="paint7_linear_1742_4313" x1="4.13987" y1="44.4979" x2="39.3296" y2="44.4979" gradientUnits="userSpaceOnUse">
<stop stop-color="#A82D65" stop-opacity="0.8"/>
<stop offset="0.05" stop-color="#972859" stop-opacity="0.83"/>
<stop offset="0.19" stop-color="#711E3F" stop-opacity="0.89"/>
<stop offset="0.34" stop-color="#54152A" stop-opacity="0.94"/>
<stop offset="0.5" stop-color="#400F1C" stop-opacity="0.97"/>
<stop offset="0.7" stop-color="#340C14" stop-opacity="0.99"/>
<stop offset="1" stop-color="#300B11"/>
</linearGradient>
<linearGradient id="paint8_linear_1742_4313" x1="11.3994" y1="38.4435" x2="28.8447" y2="38.4435" gradientUnits="userSpaceOnUse">
<stop stop-color="#FF8059" stop-opacity="0.8"/>
<stop offset="0.61" stop-color="#C54961" stop-opacity="0.93"/>
<stop offset="1" stop-color="#A82D65"/>
</linearGradient>
<linearGradient id="paint9_linear_1742_4313" x1="11.3994" y1="38.4435" x2="28.8447" y2="38.4435" gradientUnits="userSpaceOnUse">
<stop stop-color="#FF8059" stop-opacity="0.8"/>
<stop offset="0.61" stop-color="#C54961" stop-opacity="0.93"/>
<stop offset="1" stop-color="#A82D65"/>
</linearGradient>
<linearGradient id="paint10_linear_1742_4313" x1="11.3994" y1="38.4435" x2="28.8447" y2="38.4435" gradientUnits="userSpaceOnUse">
<stop stop-color="#FF8059" stop-opacity="0.8"/>
<stop offset="0.61" stop-color="#C54961" stop-opacity="0.93"/>
<stop offset="1" stop-color="#A82D65"/>
</linearGradient>
<linearGradient id="paint11_linear_1742_4313" x1="7.6123" y1="32.4849" x2="61.3267" y2="32.4849" gradientUnits="userSpaceOnUse">
<stop stop-color="#FF8059" stop-opacity="0.8"/>
<stop offset="0.62" stop-color="#C44861" stop-opacity="0.93"/>
<stop offset="1" stop-color="#A82D65"/>
</linearGradient>
<linearGradient id="paint12_linear_1742_4313" x1="2.06927" y1="52.8896" x2="26.2575" y2="52.8896" gradientUnits="userSpaceOnUse">
<stop stop-color="#A82D65" stop-opacity="0.8"/>
<stop offset="0.13" stop-color="#8B2551" stop-opacity="0.85"/>
<stop offset="0.35" stop-color="#641A35" stop-opacity="0.91"/>
<stop offset="0.57" stop-color="#471121" stop-opacity="0.96"/>
<stop offset="0.79" stop-color="#360D15" stop-opacity="0.99"/>
<stop offset="1" stop-color="#300B11"/>
</linearGradient>
<linearGradient id="paint13_linear_1742_4313" x1="2.847" y1="42.3368" x2="27.0343" y2="42.3368" gradientUnits="userSpaceOnUse">
<stop stop-color="#FF8059" stop-opacity="0.8"/>
<stop offset="0.62" stop-color="#C44861" stop-opacity="0.93"/>
<stop offset="1" stop-color="#A82D65"/>
</linearGradient>
<radialGradient id="paint14_radial_1742_4313" cx="0" cy="0" r="1" gradientUnits="userSpaceOnUse" gradientTransform="translate(18.7464 39.0348) scale(14.6073 14.6598)">
<stop stop-color="#EA9980"/>
<stop offset="0.05" stop-color="#EBA088" stop-opacity="0.94"/>
<stop offset="0.32" stop-color="#F2C1B2" stop-opacity="0.61"/>
<stop offset="0.55" stop-color="#F8DCD3" stop-opacity="0.35"/>
<stop offset="0.75" stop-color="#FCEFEB" stop-opacity="0.16"/>
<stop offset="0.91" stop-color="#FEFBFA" stop-opacity="0.04"/>
<stop offset="1" stop-color="white" stop-opacity="0"/>
</radialGradient>
<linearGradient id="paint15_linear_1742_4313" x1="7.6123" y1="32.5731" x2="61.3705" y2="32.5731" gradientUnits="userSpaceOnUse">
<stop stop-color="#FF8059" stop-opacity="0.8"/>
<stop offset="0.62" stop-color="#C44861" stop-opacity="0.93"/>
<stop offset="1" stop-color="#A82D65"/>
</linearGradient>
<linearGradient id="paint16_linear_1742_4313" x1="68.1235" y1="10.3506" x2="36.844" y2="38.9952" gradientUnits="userSpaceOnUse">
<stop stop-color="white"/>
<stop offset="1" stop-color="white"/>
</linearGradient>
<linearGradient id="paint17_linear_1742_4313" x1="31.0332" y1="34.3861" x2="55.7436" y2="34.3861" gradientUnits="userSpaceOnUse">
<stop stop-color="#A82D65" stop-opacity="0.8"/>
<stop offset="0.14" stop-color="#88244E" stop-opacity="0.85"/>
<stop offset="0.35" stop-color="#611934" stop-opacity="0.92"/>
<stop offset="0.57" stop-color="#461120" stop-opacity="0.96"/>
<stop offset="0.78" stop-color="#350D15" stop-opacity="0.99"/>
<stop offset="1" stop-color="#300B11"/>
</linearGradient>
<linearGradient id="paint18_linear_1742_4313" x1="31.0332" y1="34.3861" x2="55.7436" y2="34.3861" gradientUnits="userSpaceOnUse">
<stop stop-color="#A82D65" stop-opacity="0.8"/>
<stop offset="0.14" stop-color="#88244E" stop-opacity="0.85"/>
<stop offset="0.35" stop-color="#611934" stop-opacity="0.92"/>
<stop offset="0.57" stop-color="#461120" stop-opacity="0.96"/>
<stop offset="0.78" stop-color="#350D15" stop-opacity="0.99"/>
<stop offset="1" stop-color="#300B11"/>
</linearGradient>
<linearGradient id="paint19_linear_1742_4313" x1="35.4764" y1="36.0416" x2="59.1055" y2="36.0416" gradientUnits="userSpaceOnUse">
<stop stop-color="#FF8059" stop-opacity="0.8"/>
<stop offset="0.62" stop-color="#C44861" stop-opacity="0.93"/>
<stop offset="1" stop-color="#A82D65"/>
</linearGradient>
<linearGradient id="paint20_linear_1742_4313" x1="35.4764" y1="36.0416" x2="59.1055" y2="36.0416" gradientUnits="userSpaceOnUse">
<stop stop-color="#FF8059" stop-opacity="0.8"/>
<stop offset="0.62" stop-color="#C44861" stop-opacity="0.93"/>
<stop offset="1" stop-color="#A82D65"/>
</linearGradient>
<linearGradient id="paint21_linear_1742_4313" x1="2.847" y1="42.3368" x2="27.0343" y2="42.3368" gradientUnits="userSpaceOnUse">
<stop stop-color="#FF8059" stop-opacity="0.8"/>
<stop offset="0.62" stop-color="#C44861" stop-opacity="0.93"/>
<stop offset="1" stop-color="#A82D65"/>
</linearGradient>
</defs>
</svg>
