<svg width="64" height="64" viewBox="0 0 64 64" fill="none" xmlns="http://www.w3.org/2000/svg">
<path d="M31.6592 30.2227L5.3335 45.4218L31.66 60.6218L57.9857 45.4218L31.6592 30.2227Z" fill="url(#paint0_linear_1742_4549)"/>
<path d="M31.6592 30.2227L5.3335 45.4218L31.66 60.6218L57.9857 45.4218L31.6592 30.2227Z" fill="url(#paint1_linear_1742_4549)"/>
<path d="M24.8916 41.3278L18.4897 45.1547L25.007 48.7903C27.0652 49.9381 29.3894 50.5239 31.7458 50.4888C34.1022 50.4537 36.4078 49.7989 38.431 48.5903L44.8376 44.7635L38.3204 41.1279C36.2615 39.9793 33.9365 39.3931 31.5792 39.4282C29.2219 39.4633 26.9153 40.1185 24.8916 41.3278Z" fill="#F2DCC2"/>
<path d="M31.6597 60.6218V63.9998L57.9854 48.7998V45.4219L31.6597 60.6218Z" fill="url(#paint2_linear_1742_4549)"/>
<path d="M31.6597 60.6218V63.9998L57.9854 48.7998V45.4219L31.6597 60.6218Z" fill="url(#paint3_linear_1742_4549)"/>
<path d="M31.66 60.6218V63.9998L5.3335 48.7998V45.4219L31.66 60.6218Z" fill="url(#paint4_linear_1742_4549)"/>
<path d="M31.66 60.6218V63.9998L5.3335 48.7998V45.4219L31.66 60.6218Z" fill="url(#paint5_linear_1742_4549)"/>
<path d="M31.6592 17.0166L5.3335 32.2166L31.66 47.4158L57.9857 32.2166L31.6592 17.0166Z" fill="url(#paint6_linear_1742_4549)"/>
<path d="M31.6592 17.0166L5.3335 32.2166L31.66 47.4158L57.9857 32.2166L31.6592 17.0166Z" fill="url(#paint7_linear_1742_4549)"/>
<path d="M24.8916 28.1214L18.4897 31.9483L25.007 35.5839C27.0652 36.7318 29.3893 37.3177 31.7458 37.2826C34.1022 37.2475 36.4079 36.5927 38.431 35.3839L44.8376 31.557L38.3204 27.9214C36.2614 26.7731 33.9364 26.1871 31.5792 26.2222C29.2219 26.2573 26.9154 26.9123 24.8916 28.1214Z" fill="#F2DCC2"/>
<path d="M18.4858 31.9486V14.9316H44.8337V31.5566C44.8337 31.5566 18.4858 30.9646 18.4858 31.9486Z" fill="#F2DCC2"/>
<path d="M31.6592 0L5.3335 15.1992L31.66 30.3991L57.9857 15.1992L31.6592 0Z" fill="url(#paint8_linear_1742_4549)"/>
<path d="M31.6592 0L5.3335 15.1992L31.66 30.3991L57.9857 15.1992L31.6592 0Z" fill="url(#paint9_linear_1742_4549)"/>
<path d="M31.6592 0L5.3335 15.1992L31.66 30.3991L57.9857 15.1992L31.6592 0Z" fill="url(#paint10_linear_1742_4549)"/>
<path d="M24.8916 11.1042L18.4897 14.931L25.007 18.5666C27.0652 19.7145 29.3894 20.3002 31.7458 20.2651C34.1022 20.23 36.4078 19.5753 38.431 18.3667L44.8376 14.5398L38.3204 10.9042C36.2615 9.7557 33.9365 9.16951 31.5792 9.20461C29.2219 9.23971 26.9153 9.89487 24.8916 11.1042Z" fill="#F2DCC2"/>
<path d="M31.7397 18.5375C35.4604 18.4589 38.4399 16.654 38.3945 14.506C38.3492 12.358 35.2961 10.6805 31.5754 10.7591C27.8546 10.8377 24.8752 12.6426 24.9205 14.7906C24.9659 16.9386 28.0189 18.6161 31.7397 18.5375Z" fill="#A82D65"/>
<path d="M31.4821 16.9308C34.0448 16.8796 36.1007 15.7591 36.0741 14.4283C36.0474 13.0974 33.9484 12.06 31.3857 12.1113C28.8231 12.1626 26.7672 13.283 26.7938 14.6139C26.8204 15.9448 28.9195 16.9821 31.4821 16.9308Z" fill="url(#paint11_linear_1742_4549)"/>
<path d="M31.6597 30.3992V33.7763L57.9854 18.5772V15.1992L31.6597 30.3992Z" fill="url(#paint12_linear_1742_4549)"/>
<path d="M31.6597 30.3992V33.7763L57.9854 18.5772V15.1992L31.6597 30.3992Z" fill="url(#paint13_linear_1742_4549)"/>
<path d="M31.66 30.3992V33.7763L5.3335 18.5772V15.1992L31.66 30.3992Z" fill="url(#paint14_linear_1742_4549)"/>
<path d="M31.66 30.3992V33.7763L5.3335 18.5772V15.1992L31.66 30.3992Z" fill="url(#paint15_linear_1742_4549)"/>
<path d="M44.8336 44.7619V43.1875L43.3604 43.9091L44.097 44.9579L44.8336 44.7619Z" fill="#F2DCC2"/>
<path d="M18.4858 45.1546L18.4977 43.1953L20.6008 44.4093L19.9164 44.614L18.4858 45.1546Z" fill="#F2DCC2"/>
<path d="M31.6597 47.416V50.7939L57.9854 35.594V32.2168L31.6597 47.416Z" fill="url(#paint16_linear_1742_4549)"/>
<path d="M31.6597 47.416V50.7939L57.9854 35.594V32.2168L31.6597 47.416Z" fill="url(#paint17_linear_1742_4549)"/>
<path d="M31.66 47.416V50.7939L5.3335 35.594V32.2168L31.66 47.416Z" fill="url(#paint18_linear_1742_4549)"/>
<path d="M31.66 47.416V50.7939L5.3335 35.594V32.2168L31.66 47.416Z" fill="url(#paint19_linear_1742_4549)"/>
<defs>
<linearGradient id="paint0_linear_1742_4549" x1="5.3335" y1="45.4218" x2="57.9857" y2="45.4218" gradientUnits="userSpaceOnUse">
<stop stop-color="#FF8059" stop-opacity="0.8"/>
<stop offset="0.39" stop-color="#D3565F" stop-opacity="0.9"/>
<stop offset="0.76" stop-color="#B33863" stop-opacity="0.97"/>
<stop offset="1" stop-color="#A82D65"/>
</linearGradient>
<linearGradient id="paint1_linear_1742_4549" x1="5.3335" y1="45.4218" x2="57.9857" y2="45.4218" gradientUnits="userSpaceOnUse">
<stop stop-color="#FF8059" stop-opacity="0.8"/>
<stop offset="0.39" stop-color="#D3565F" stop-opacity="0.9"/>
<stop offset="0.76" stop-color="#B33863" stop-opacity="0.97"/>
<stop offset="1" stop-color="#A82D65"/>
</linearGradient>
<linearGradient id="paint2_linear_1742_4549" x1="31.6597" y1="54.7108" x2="57.9854" y2="54.7108" gradientUnits="userSpaceOnUse">
<stop stop-color="#A82D65" stop-opacity="0.8"/>
<stop offset="0.28" stop-color="#771F43" stop-opacity="0.88"/>
<stop offset="0.57" stop-color="#501428" stop-opacity="0.95"/>
<stop offset="0.82" stop-color="#380D17" stop-opacity="0.99"/>
<stop offset="1" stop-color="#300B11"/>
</linearGradient>
<linearGradient id="paint3_linear_1742_4549" x1="31.6597" y1="54.7108" x2="57.9854" y2="54.7108" gradientUnits="userSpaceOnUse">
<stop stop-color="#A82D65" stop-opacity="0.8"/>
<stop offset="0.28" stop-color="#771F43" stop-opacity="0.88"/>
<stop offset="0.57" stop-color="#501428" stop-opacity="0.95"/>
<stop offset="0.82" stop-color="#380D17" stop-opacity="0.99"/>
<stop offset="1" stop-color="#300B11"/>
</linearGradient>
<linearGradient id="paint4_linear_1742_4549" x1="5.3335" y1="54.7108" x2="31.66" y2="54.7108" gradientUnits="userSpaceOnUse">
<stop stop-color="#A82D65" stop-opacity="0.8"/>
<stop offset="0.58" stop-color="#5F1832" stop-opacity="0.92"/>
<stop offset="1" stop-color="#300B11"/>
</linearGradient>
<linearGradient id="paint5_linear_1742_4549" x1="5.3335" y1="54.7108" x2="31.66" y2="54.7108" gradientUnits="userSpaceOnUse">
<stop stop-color="#A82D65" stop-opacity="0.8"/>
<stop offset="0.58" stop-color="#5F1832" stop-opacity="0.92"/>
<stop offset="1" stop-color="#300B11"/>
</linearGradient>
<linearGradient id="paint6_linear_1742_4549" x1="5.3335" y1="32.2166" x2="57.9857" y2="32.2166" gradientUnits="userSpaceOnUse">
<stop stop-color="#FF8059" stop-opacity="0.8"/>
<stop offset="0.39" stop-color="#D3565F" stop-opacity="0.9"/>
<stop offset="0.76" stop-color="#B33863" stop-opacity="0.97"/>
<stop offset="1" stop-color="#A82D65"/>
</linearGradient>
<linearGradient id="paint7_linear_1742_4549" x1="5.3335" y1="32.2166" x2="57.9857" y2="32.2166" gradientUnits="userSpaceOnUse">
<stop stop-color="#FF8059" stop-opacity="0.8"/>
<stop offset="0.39" stop-color="#D3565F" stop-opacity="0.9"/>
<stop offset="0.76" stop-color="#B33863" stop-opacity="0.97"/>
<stop offset="1" stop-color="#A82D65"/>
</linearGradient>
<linearGradient id="paint8_linear_1742_4549" x1="5.3335" y1="15.1992" x2="57.9857" y2="15.1992" gradientUnits="userSpaceOnUse">
<stop stop-color="#FF8059" stop-opacity="0.8"/>
<stop offset="0.39" stop-color="#D3565F" stop-opacity="0.9"/>
<stop offset="0.76" stop-color="#B33863" stop-opacity="0.97"/>
<stop offset="1" stop-color="#A82D65"/>
</linearGradient>
<linearGradient id="paint9_linear_1742_4549" x1="5.3335" y1="15.1992" x2="57.9857" y2="15.1992" gradientUnits="userSpaceOnUse">
<stop stop-color="#FF8059" stop-opacity="0.8"/>
<stop offset="0.39" stop-color="#D3565F" stop-opacity="0.9"/>
<stop offset="0.76" stop-color="#B33863" stop-opacity="0.97"/>
<stop offset="1" stop-color="#A82D65"/>
</linearGradient>
<linearGradient id="paint10_linear_1742_4549" x1="5.3335" y1="15.1992" x2="57.9857" y2="15.1992" gradientUnits="userSpaceOnUse">
<stop stop-color="#FF8059" stop-opacity="0.8"/>
<stop offset="0.39" stop-color="#D3565F" stop-opacity="0.9"/>
<stop offset="0.76" stop-color="#B33863" stop-opacity="0.97"/>
<stop offset="1" stop-color="#A82D65"/>
</linearGradient>
<linearGradient id="paint11_linear_1742_4549" x1="26.7961" y1="14.5128" x2="36.0758" y2="14.5232" gradientUnits="userSpaceOnUse">
<stop stop-color="#300B11" stop-opacity="0.8"/>
<stop offset="0.02" stop-color="#300B11" stop-opacity="0.82"/>
<stop offset="0.28" stop-color="#300B11" stop-opacity="0.96"/>
<stop offset="1" stop-color="#300B11"/>
</linearGradient>
<linearGradient id="paint12_linear_1742_4549" x1="31.6597" y1="24.4882" x2="57.9854" y2="24.4882" gradientUnits="userSpaceOnUse">
<stop stop-color="#A82D65" stop-opacity="0.8"/>
<stop offset="0.28" stop-color="#771F43" stop-opacity="0.88"/>
<stop offset="0.57" stop-color="#501428" stop-opacity="0.95"/>
<stop offset="0.82" stop-color="#380D17" stop-opacity="0.99"/>
<stop offset="1" stop-color="#300B11"/>
</linearGradient>
<linearGradient id="paint13_linear_1742_4549" x1="31.6597" y1="24.4882" x2="57.9854" y2="24.4882" gradientUnits="userSpaceOnUse">
<stop stop-color="#A82D65" stop-opacity="0.8"/>
<stop offset="0.28" stop-color="#771F43" stop-opacity="0.88"/>
<stop offset="0.57" stop-color="#501428" stop-opacity="0.95"/>
<stop offset="0.82" stop-color="#380D17" stop-opacity="0.99"/>
<stop offset="1" stop-color="#300B11"/>
</linearGradient>
<linearGradient id="paint14_linear_1742_4549" x1="5.3335" y1="24.4882" x2="31.66" y2="24.4882" gradientUnits="userSpaceOnUse">
<stop stop-color="#A82D65" stop-opacity="0.8"/>
<stop offset="0.58" stop-color="#5F1832" stop-opacity="0.92"/>
<stop offset="1" stop-color="#300B11"/>
</linearGradient>
<linearGradient id="paint15_linear_1742_4549" x1="5.3335" y1="24.4882" x2="31.66" y2="24.4882" gradientUnits="userSpaceOnUse">
<stop stop-color="#A82D65" stop-opacity="0.8"/>
<stop offset="0.58" stop-color="#5F1832" stop-opacity="0.92"/>
<stop offset="1" stop-color="#300B11"/>
</linearGradient>
<linearGradient id="paint16_linear_1742_4549" x1="31.6597" y1="41.505" x2="57.9854" y2="41.505" gradientUnits="userSpaceOnUse">
<stop stop-color="#A82D65" stop-opacity="0.8"/>
<stop offset="0.28" stop-color="#771F43" stop-opacity="0.88"/>
<stop offset="0.57" stop-color="#501428" stop-opacity="0.95"/>
<stop offset="0.82" stop-color="#380D17" stop-opacity="0.99"/>
<stop offset="1" stop-color="#300B11"/>
</linearGradient>
<linearGradient id="paint17_linear_1742_4549" x1="31.6597" y1="41.505" x2="57.9854" y2="41.505" gradientUnits="userSpaceOnUse">
<stop stop-color="#A82D65" stop-opacity="0.8"/>
<stop offset="0.28" stop-color="#771F43" stop-opacity="0.88"/>
<stop offset="0.57" stop-color="#501428" stop-opacity="0.95"/>
<stop offset="0.82" stop-color="#380D17" stop-opacity="0.99"/>
<stop offset="1" stop-color="#300B11"/>
</linearGradient>
<linearGradient id="paint18_linear_1742_4549" x1="5.3335" y1="41.505" x2="31.66" y2="41.505" gradientUnits="userSpaceOnUse">
<stop stop-color="#A82D65" stop-opacity="0.8"/>
<stop offset="0.58" stop-color="#5F1832" stop-opacity="0.92"/>
<stop offset="1" stop-color="#300B11"/>
</linearGradient>
<linearGradient id="paint19_linear_1742_4549" x1="5.3335" y1="41.505" x2="31.66" y2="41.505" gradientUnits="userSpaceOnUse">
<stop stop-color="#A82D65" stop-opacity="0.8"/>
<stop offset="0.58" stop-color="#5F1832" stop-opacity="0.92"/>
<stop offset="1" stop-color="#300B11"/>
</linearGradient>
</defs>
</svg>
