<svg width="28" height="27" viewBox="0 0 28 27" fill="none" xmlns="http://www.w3.org/2000/svg">
<g clip-path="url(#clip0_4553_14314)">
<path d="M5.01135 10.1217V2.89313L8.76984 5.06298V7.95611L5.01135 10.126V10.1217Z" fill="url(#paint0_linear_4553_14314)"/>
<path d="M5.01135 10.1217V2.89313L8.76984 5.06298V7.95611L5.01135 10.126V10.1217Z" fill="url(#paint1_linear_4553_14314)"/>
<path d="M5.01135 2.89312L8.76554 0.723267L12.524 2.89312L8.76554 5.06297L5.01135 2.89312Z" fill="url(#paint2_linear_4553_14314)"/>
<path d="M0 13.0148V17.3545L11.2712 23.864V19.5243L0 13.0148Z" fill="url(#paint3_linear_4553_14314)"/>
<path d="M10.0184 14.4614V7.23282L7.5127 5.78625V13.0148L10.0184 14.4614Z" fill="url(#paint4_linear_4553_14314)"/>
<path d="M10.0184 14.4614V7.23282L7.5127 5.78625V13.0148L10.0184 14.4614Z" fill="url(#paint5_linear_4553_14314)"/>
<path d="M7.51697 5.78627L17.5353 0L20.041 1.44657L10.0226 7.23283L7.51697 5.78627V5.78627Z" fill="url(#paint6_linear_4553_14314)"/>
<path d="M7.51697 5.78627L17.5353 0L20.041 1.44657L10.0226 7.23283L7.51697 5.78627V5.78627Z" fill="url(#paint7_linear_4553_14314)"/>
<path d="M7.51697 5.78627L17.5353 0L20.041 1.44657L10.0226 7.23283L7.51697 5.78627V5.78627Z" fill="url(#paint8_linear_4553_14314)"/>
<path d="M10.0183 14.4614L13.7768 12.2915V9.39841L17.5353 7.22856L20.041 8.67512V1.44659L10.0226 7.23286V14.4657L10.0183 14.4614Z" fill="url(#paint9_linear_4553_14314)"/>
<path d="M13.7769 9.39837L20.041 13.0148L23.7995 10.8449L17.5353 7.22852L13.7769 9.39837Z" fill="url(#paint10_linear_4553_14314)"/>
<path d="M20.041 24.5873V13.0148L13.7769 9.39838V12.2915L17.5353 14.4614V18.8011L13.8156 20.9494L20.041 24.5873Z" fill="url(#paint11_linear_4553_14314)"/>
<path d="M20.041 13.0148L23.7995 10.845V22.4132L20.041 24.583V13.0148Z" fill="url(#paint12_linear_4553_14314)"/>
<path d="M10.0184 23.1408V26.12L7.5127 24.5873V21.6942L10.0184 23.1408Z" fill="url(#paint13_linear_4553_14314)"/>
<path d="M11.2711 19.5243L18.7838 15.1846V19.5243L11.2711 23.864V19.5243V19.5243Z" fill="url(#paint14_linear_4553_14314)"/>
<path d="M11.2711 19.5243L18.7838 15.1846V19.5243L11.2711 23.864V19.5243V19.5243Z" fill="url(#paint15_linear_4553_14314)"/>
<path d="M7.51268 8.67942L0 13.0148L11.2712 19.5244L18.7838 15.1847L13.7725 12.2915L10.014 14.4614L7.50837 13.0148V8.67511L7.51268 8.67942Z" fill="url(#paint16_linear_4553_14314)"/>
<path d="M10.0183 26.12L16.2825 22.4175L15.0296 21.6942L11.2711 23.8641L10.0183 23.1408V26.12V26.12Z" fill="url(#paint17_linear_4553_14314)"/>
<path d="M23.7952 12.2915L27.5537 10.1216V15.9208L23.7952 18.0907V12.2915V12.2915Z" fill="url(#paint18_linear_4553_14314)"/>
<path d="M27.5537 10.1217L20.041 5.78198V8.67512L23.7995 10.845V12.2915L27.558 10.1217H27.5537Z" fill="url(#paint19_linear_4553_14314)"/>
<path d="M13.5443 15.6367C14.978 15.6367 16.1447 14.4743 16.1447 13.0364C16.1447 11.5984 14.9823 10.436 13.5443 10.436C12.1064 10.436 10.944 11.5984 10.944 13.0364C10.944 14.4743 12.1064 15.6367 13.5443 15.6367Z" fill="url(#paint20_linear_4553_14314)"/>
<path d="M13.5443 15.6367C14.978 15.6367 16.1447 14.4743 16.1447 13.0364C16.1447 11.5984 14.9823 10.436 13.5443 10.436C12.1064 10.436 10.944 11.5984 10.944 13.0364C10.944 14.4743 12.1064 15.6367 13.5443 15.6367Z" fill="url(#paint21_linear_4553_14314)"/>
<path d="M13.5443 15.6367C14.978 15.6367 16.1447 14.4743 16.1447 13.0364C16.1447 11.5984 14.9823 10.436 13.5443 10.436C12.1064 10.436 10.944 11.5984 10.944 13.0364C10.944 14.4743 12.1064 15.6367 13.5443 15.6367Z" fill="url(#paint22_linear_4553_14314)"/>
<path d="M13.5443 15.6367C14.978 15.6367 16.1447 14.4743 16.1447 13.0364C16.1447 11.5984 14.9823 10.436 13.5443 10.436C12.1064 10.436 10.944 11.5984 10.944 13.0364C10.944 14.4743 12.1064 15.6367 13.5443 15.6367Z" fill="#D4DFFA"/>
<path d="M13.5443 17.8238C16.1748 17.8238 18.3059 15.6927 18.3059 13.0622C18.3059 10.4316 16.1748 8.30054 13.5443 8.30054C10.9138 8.30054 8.78271 10.4316 8.78271 13.0622C8.78271 15.6927 10.9138 17.8238 13.5443 17.8238Z" fill="url(#paint23_radial_4553_14314)"/>
</g>
<defs>
<linearGradient id="paint0_linear_4553_14314" x1="5.01135" y1="6.50954" x2="8.76554" y2="6.50954" gradientUnits="userSpaceOnUse">
<stop stop-color="#3CBFDF" stop-opacity="0.8"/>
<stop offset="0.21" stop-color="#38B2D3" stop-opacity="0.83"/>
<stop offset="0.59" stop-color="#2A83A6" stop-opacity="0.9"/>
<stop offset="1" stop-color="#19416C"/>
</linearGradient>
<linearGradient id="paint1_linear_4553_14314" x1="4.38278" y1="9.76001" x2="7.51271" y2="4.33969" gradientUnits="userSpaceOnUse">
<stop stop-color="#3CBFDF" stop-opacity="0.8"/>
<stop offset="0.21" stop-color="#38B2D3" stop-opacity="0.83"/>
<stop offset="0.59" stop-color="#2A83A6" stop-opacity="0.9"/>
<stop offset="1" stop-color="#19416C"/>
</linearGradient>
<linearGradient id="paint2_linear_4553_14314" x1="5.01135" y1="2.89312" x2="12.524" y2="2.89312" gradientUnits="userSpaceOnUse">
<stop stop-color="#6159FF" stop-opacity="0.8"/>
<stop offset="0.03" stop-color="#5E5AFE" stop-opacity="0.81"/>
<stop offset="0.67" stop-color="#51A9E7" stop-opacity="0.95"/>
<stop offset="1" stop-color="#3CBFDF"/>
</linearGradient>
<linearGradient id="paint3_linear_4553_14314" x1="4.69704" y1="20.0668" x2="6.57413" y2="16.812" gradientUnits="userSpaceOnUse">
<stop stop-color="#3CBFDF" stop-opacity="0.8"/>
<stop offset="0.19" stop-color="#3AB6D8" stop-opacity="0.82"/>
<stop offset="0.49" stop-color="#3095B6" stop-opacity="0.88"/>
<stop offset="0.87" stop-color="#205A80" stop-opacity="0.97"/>
<stop offset="1" stop-color="#19416C"/>
</linearGradient>
<linearGradient id="paint4_linear_4553_14314" x1="7.517" y1="10.1217" x2="10.0184" y2="10.1217" gradientUnits="userSpaceOnUse">
<stop stop-color="#3CBFDF" stop-opacity="0.8"/>
<stop offset="0.21" stop-color="#38B2D3" stop-opacity="0.83"/>
<stop offset="0.59" stop-color="#2A83A6" stop-opacity="0.9"/>
<stop offset="1" stop-color="#19416C"/>
</linearGradient>
<linearGradient id="paint5_linear_4553_14314" x1="6.57415" y1="11.3874" x2="10.9569" y2="8.8559" gradientUnits="userSpaceOnUse">
<stop stop-color="#3CBFDF" stop-opacity="0.8"/>
<stop offset="0.19" stop-color="#3AB6D8" stop-opacity="0.82"/>
<stop offset="0.49" stop-color="#3095B6" stop-opacity="0.88"/>
<stop offset="0.87" stop-color="#205A80" stop-opacity="0.97"/>
<stop offset="1" stop-color="#19416C"/>
</linearGradient>
<linearGradient id="paint6_linear_4553_14314" x1="7.51697" y1="3.61642" x2="20.041" y2="3.61642" gradientUnits="userSpaceOnUse">
<stop stop-color="#6159FF" stop-opacity="0.8"/>
<stop offset="0.03" stop-color="#5E5AFE" stop-opacity="0.81"/>
<stop offset="0.67" stop-color="#51A9E7" stop-opacity="0.95"/>
<stop offset="1" stop-color="#3CBFDF"/>
</linearGradient>
<linearGradient id="paint7_linear_4553_14314" x1="7.51697" y1="3.61642" x2="20.041" y2="3.61642" gradientUnits="userSpaceOnUse">
<stop stop-color="#6159FF" stop-opacity="0.8"/>
<stop offset="0.03" stop-color="#5E5AFE" stop-opacity="0.81"/>
<stop offset="0.67" stop-color="#51A9E7" stop-opacity="0.95"/>
<stop offset="1" stop-color="#3CBFDF"/>
</linearGradient>
<linearGradient id="paint8_linear_4553_14314" x1="7.51697" y1="3.61642" x2="20.041" y2="3.61642" gradientUnits="userSpaceOnUse">
<stop stop-color="#6159FF" stop-opacity="0.8"/>
<stop offset="0.03" stop-color="#5E5AFE" stop-opacity="0.81"/>
<stop offset="0.67" stop-color="#51A9E7" stop-opacity="0.95"/>
<stop offset="1" stop-color="#3CBFDF"/>
</linearGradient>
<linearGradient id="paint9_linear_4553_14314" x1="10.9569" y1="15.0039" x2="19.0981" y2="0.904132" gradientUnits="userSpaceOnUse">
<stop stop-color="#3CBFDF" stop-opacity="0.8"/>
<stop offset="0.26" stop-color="#2F97B8" stop-opacity="0.87"/>
<stop offset="0.56" stop-color="#246B8E" stop-opacity="0.94"/>
<stop offset="0.82" stop-color="#1D4C75" stop-opacity="0.98"/>
<stop offset="1" stop-color="#19416C"/>
</linearGradient>
<linearGradient id="paint10_linear_4553_14314" x1="13.7769" y1="10.1216" x2="23.7952" y2="10.1216" gradientUnits="userSpaceOnUse">
<stop stop-color="#6159FF" stop-opacity="0.8"/>
<stop offset="0.03" stop-color="#5E5AFE" stop-opacity="0.81"/>
<stop offset="0.67" stop-color="#51A9E7" stop-opacity="0.95"/>
<stop offset="1" stop-color="#3CBFDF"/>
</linearGradient>
<linearGradient id="paint11_linear_4553_14314" x1="14.4011" y1="21.3326" x2="19.4124" y2="12.6532" gradientUnits="userSpaceOnUse">
<stop stop-color="#3CBFDF" stop-opacity="0.8"/>
<stop offset="0.36" stop-color="#2F8FB1" stop-opacity="0.89"/>
<stop offset="0.78" stop-color="#1E597F" stop-opacity="0.97"/>
<stop offset="1" stop-color="#19416C"/>
</linearGradient>
<linearGradient id="paint12_linear_4553_14314" x1="18.4739" y1="23.6833" x2="25.3623" y2="11.7491" gradientUnits="userSpaceOnUse">
<stop stop-color="#3CBFDF" stop-opacity="0.8"/>
<stop offset="0.12" stop-color="#37AFD1" stop-opacity="0.83"/>
<stop offset="0.51" stop-color="#27779A" stop-opacity="0.92"/>
<stop offset="0.81" stop-color="#1E5278" stop-opacity="0.98"/>
<stop offset="1" stop-color="#19416C"/>
</linearGradient>
<linearGradient id="paint13_linear_4553_14314" x1="8.12404" y1="25.0222" x2="9.41131" y2="22.7877" gradientUnits="userSpaceOnUse">
<stop stop-color="#3CBFDF" stop-opacity="0.8"/>
<stop offset="0.19" stop-color="#3AB6D8" stop-opacity="0.82"/>
<stop offset="0.49" stop-color="#3095B6" stop-opacity="0.88"/>
<stop offset="0.87" stop-color="#205A80" stop-opacity="0.97"/>
<stop offset="1" stop-color="#19416C"/>
</linearGradient>
<linearGradient id="paint14_linear_4553_14314" x1="11.2711" y1="19.5243" x2="18.7881" y2="19.5243" gradientUnits="userSpaceOnUse">
<stop stop-color="#3CBFDF" stop-opacity="0.8"/>
<stop offset="0.26" stop-color="#2F97B8" stop-opacity="0.87"/>
<stop offset="0.56" stop-color="#246B8E" stop-opacity="0.94"/>
<stop offset="0.82" stop-color="#1D4C75" stop-opacity="0.98"/>
<stop offset="1" stop-color="#19416C"/>
</linearGradient>
<linearGradient id="paint15_linear_4553_14314" x1="12.2097" y1="24.4022" x2="17.8452" y2="14.6422" gradientUnits="userSpaceOnUse">
<stop stop-color="#3CBFDF" stop-opacity="0.8"/>
<stop offset="0.26" stop-color="#2F97B8" stop-opacity="0.87"/>
<stop offset="0.56" stop-color="#246B8E" stop-opacity="0.94"/>
<stop offset="0.82" stop-color="#1D4C75" stop-opacity="0.98"/>
<stop offset="1" stop-color="#19416C"/>
</linearGradient>
<linearGradient id="paint16_linear_4553_14314" x1="0" y1="14.0997" x2="18.7881" y2="14.0997" gradientUnits="userSpaceOnUse">
<stop stop-color="#6159FF" stop-opacity="0.8"/>
<stop offset="0.03" stop-color="#5E5AFE" stop-opacity="0.81"/>
<stop offset="0.67" stop-color="#51A9E7" stop-opacity="0.95"/>
<stop offset="1" stop-color="#3CBFDF"/>
</linearGradient>
<linearGradient id="paint17_linear_4553_14314" x1="10.0183" y1="23.9071" x2="16.2825" y2="23.9071" gradientUnits="userSpaceOnUse">
<stop stop-color="#3CBFDF" stop-opacity="0.8"/>
<stop offset="0.12" stop-color="#37AFD1" stop-opacity="0.83"/>
<stop offset="0.51" stop-color="#27779A" stop-opacity="0.92"/>
<stop offset="0.81" stop-color="#1E5278" stop-opacity="0.98"/>
<stop offset="1" stop-color="#19416C"/>
</linearGradient>
<linearGradient id="paint18_linear_4553_14314" x1="23.7952" y1="14.1083" x2="27.5537" y2="14.1083" gradientUnits="userSpaceOnUse">
<stop stop-color="#3CBFDF" stop-opacity="0.8"/>
<stop offset="0.12" stop-color="#37AFD1" stop-opacity="0.83"/>
<stop offset="0.51" stop-color="#27779A" stop-opacity="0.92"/>
<stop offset="0.81" stop-color="#1E5278" stop-opacity="0.98"/>
<stop offset="1" stop-color="#19416C"/>
</linearGradient>
<linearGradient id="paint19_linear_4553_14314" x1="20.041" y1="9.03676" x2="27.5537" y2="9.03676" gradientUnits="userSpaceOnUse">
<stop stop-color="#6159FF" stop-opacity="0.8"/>
<stop offset="0.03" stop-color="#5E5AFE" stop-opacity="0.81"/>
<stop offset="0.67" stop-color="#51A9E7" stop-opacity="0.95"/>
<stop offset="1" stop-color="#3CBFDF"/>
</linearGradient>
<linearGradient id="paint20_linear_4553_14314" x1="11.3917" y1="14.4915" x2="15.7013" y2="11.5855" gradientUnits="userSpaceOnUse">
<stop stop-color="#6159FF" stop-opacity="0.8"/>
<stop offset="0.2" stop-color="#6585F4" stop-opacity="0.87"/>
<stop offset="0.47" stop-color="#53A6E8" stop-opacity="0.94"/>
<stop offset="0.74" stop-color="#42B8E1" stop-opacity="0.99"/>
<stop offset="1" stop-color="#3CBFDF"/>
</linearGradient>
<linearGradient id="paint21_linear_4553_14314" x1="11.3917" y1="14.4915" x2="15.7013" y2="11.5855" gradientUnits="userSpaceOnUse">
<stop stop-color="#6159FF" stop-opacity="0.8"/>
<stop offset="0.2" stop-color="#6585F4" stop-opacity="0.87"/>
<stop offset="0.47" stop-color="#53A6E8" stop-opacity="0.94"/>
<stop offset="0.74" stop-color="#42B8E1" stop-opacity="0.99"/>
<stop offset="1" stop-color="#3CBFDF"/>
</linearGradient>
<linearGradient id="paint22_linear_4553_14314" x1="11.3917" y1="14.4915" x2="15.7013" y2="11.5855" gradientUnits="userSpaceOnUse">
<stop stop-color="#6159FF" stop-opacity="0.8"/>
<stop offset="0.2" stop-color="#6585F4" stop-opacity="0.87"/>
<stop offset="0.47" stop-color="#53A6E8" stop-opacity="0.94"/>
<stop offset="0.74" stop-color="#42B8E1" stop-opacity="0.99"/>
<stop offset="1" stop-color="#3CBFDF"/>
</linearGradient>
<radialGradient id="paint23_radial_4553_14314" cx="0" cy="0" r="1" gradientUnits="userSpaceOnUse" gradientTransform="translate(13.9931 13.5453) scale(4.76162)">
<stop stop-color="#8D87F7"/>
<stop offset="0.05" stop-color="#958FF8" stop-opacity="0.94"/>
<stop offset="0.32" stop-color="#D2DBFA" stop-opacity="0.61"/>
<stop offset="0.55" stop-color="#E8EAFC" stop-opacity="0.35"/>
<stop offset="0.75" stop-color="#EEEDFE" stop-opacity="0.16"/>
<stop offset="0.91" stop-color="#FBFBFF" stop-opacity="0.04"/>
<stop offset="1" stop-color="white" stop-opacity="0"/>
</radialGradient>
<clipPath id="clip0_4553_14314">
<rect width="27.5537" height="26.12" fill="white"/>
</clipPath>
</defs>
</svg>
