<svg width="64" height="64" viewBox="0 0 64 64" fill="none" xmlns="http://www.w3.org/2000/svg">
<path d="M11.6362 26.1812V9.38574L20.3636 14.4247V21.1431L11.6362 26.1812Z" fill="url(#paint0_linear_1742_4437)"/>
<path d="M11.6362 26.1812V9.38574L20.3636 14.4247V21.1431L11.6362 26.1812Z" fill="url(#paint1_linear_1742_4437)"/>
<path d="M11.6362 9.38565L20.3636 4.34668L29.0911 9.38565L20.3636 14.4246L11.6362 9.38565Z" fill="url(#paint2_linear_1742_4437)"/>
<path d="M0 32.8994V42.9773L26.1815 58.0927V48.0155L0 32.8994Z" fill="url(#paint3_linear_1742_4437)"/>
<path d="M23.2728 36.2586V19.4623L17.4551 16.1035V32.899L23.2728 36.2586Z" fill="url(#paint4_linear_1742_4437)"/>
<path d="M23.2728 36.2586V19.4623L17.4551 16.1035V32.899L23.2728 36.2586Z" fill="url(#paint5_linear_1742_4437)"/>
<path d="M17.4551 16.1037L40.7277 2.66699L46.5462 6.02657L23.2728 19.4625L17.4551 16.1037Z" fill="url(#paint6_linear_1742_4437)"/>
<path d="M17.4551 16.1037L40.7277 2.66699L46.5462 6.02657L23.2728 19.4625L17.4551 16.1037Z" fill="url(#paint7_linear_1742_4437)"/>
<path d="M17.4551 16.1037L40.7277 2.66699L46.5462 6.02657L23.2728 19.4625L17.4551 16.1037Z" fill="url(#paint8_linear_1742_4437)"/>
<path d="M23.2725 36.2586L31.9999 31.2196V24.5013L40.7273 19.4623L46.5458 22.8219V6.02637L23.2725 19.4623V36.2586Z" fill="url(#paint9_linear_1742_4437)"/>
<path d="M32 24.5019L46.546 32.8996L55.2726 27.8606L40.7274 19.4629L32 24.5019Z" fill="url(#paint10_linear_1742_4437)"/>
<path d="M46.546 59.7731V32.8997L32 24.502V31.2203L40.7274 36.2593V46.3364L32.0876 51.3244L46.546 59.7731Z" fill="url(#paint11_linear_1742_4437)"/>
<path d="M46.5459 32.8993L55.2725 27.8604L55.2733 54.7338L46.5459 59.7728V32.8993Z" fill="url(#paint12_linear_1742_4437)"/>
<path d="M23.2728 56.4135V63.3357L17.4551 59.773V53.0547L23.2728 56.4135Z" fill="url(#paint13_linear_1742_4437)"/>
<path d="M26.1816 48.0156L43.6365 37.9385V48.0156L26.1816 58.0928V48.0156Z" fill="url(#paint14_linear_1742_4437)"/>
<path d="M26.1816 48.0156L43.6365 37.9385V48.0156L26.1816 58.0928V48.0156Z" fill="url(#paint15_linear_1742_4437)"/>
<path d="M17.4548 22.8223L0 32.8994L26.1815 48.0155L43.6363 37.9384L32 31.22L23.2726 36.259L17.4548 32.8994V29.5406V22.8223Z" fill="url(#paint16_linear_1742_4437)"/>
<path d="M23.2725 63.3357L37.8184 54.7341L34.9088 53.0547L26.1813 58.0929L23.2725 56.4135V63.3357Z" fill="url(#paint17_linear_1742_4437)"/>
<path d="M55.2729 31.2196L64.0004 26.1807V39.6516L55.2729 44.6906V31.2196Z" fill="url(#paint18_linear_1742_4437)"/>
<path d="M63.9999 26.1807L46.5459 16.1035V22.8219L55.2725 27.86V31.2196L63.9999 26.1807Z" fill="url(#paint19_linear_1742_4437)"/>
<path d="M31.4609 38.9872C34.7953 38.9872 37.4984 36.2841 37.4984 32.9496C37.4984 29.6152 34.7953 26.9121 31.4609 26.9121C28.1264 26.9121 25.4233 29.6152 25.4233 32.9496C25.4233 36.2841 28.1264 38.9872 31.4609 38.9872Z" fill="url(#paint20_linear_1742_4437)"/>
<path d="M31.4609 38.9872C34.7953 38.9872 37.4984 36.2841 37.4984 32.9496C37.4984 29.6152 34.7953 26.9121 31.4609 26.9121C28.1264 26.9121 25.4233 29.6152 25.4233 32.9496C25.4233 36.2841 28.1264 38.9872 31.4609 38.9872Z" fill="url(#paint21_linear_1742_4437)"/>
<path d="M31.4609 38.9872C34.7953 38.9872 37.4984 36.2841 37.4984 32.9496C37.4984 29.6152 34.7953 26.9121 31.4609 26.9121C28.1264 26.9121 25.4233 29.6152 25.4233 32.9496C25.4233 36.2841 28.1264 38.9872 31.4609 38.9872Z" fill="url(#paint22_linear_1742_4437)"/>
<path d="M31.4609 38.9872C34.7953 38.9872 37.4984 36.2841 37.4984 32.9496C37.4984 29.6152 34.7953 26.9121 31.4609 26.9121C28.1264 26.9121 25.4233 29.6152 25.4233 32.9496C25.4233 36.2841 28.1264 38.9872 31.4609 38.9872Z" fill="#F2DCC2"/>
<path style="mix-blend-mode:lighten" d="M31.4613 44.0622C37.5703 44.0622 42.5226 39.1098 42.5226 33.0008C42.5226 26.8918 37.5703 21.9395 31.4613 21.9395C25.3522 21.9395 20.3999 26.8918 20.3999 33.0008C20.3999 39.1098 25.3522 44.0622 31.4613 44.0622Z" fill="url(#paint23_radial_1742_4437)"/>
<defs>
<linearGradient id="paint0_linear_1742_4437" x1="11.6362" y1="17.7835" x2="20.3636" y2="17.7835" gradientUnits="userSpaceOnUse">
<stop stop-color="#A82D65" stop-opacity="0.8"/>
<stop offset="0.21" stop-color="#972859" stop-opacity="0.83"/>
<stop offset="0.59" stop-color="#6A1B39" stop-opacity="0.9"/>
<stop offset="1" stop-color="#300B11"/>
</linearGradient>
<linearGradient id="paint1_linear_1742_4437" x1="10.1814" y1="25.3419" x2="17.4548" y2="12.7445" gradientUnits="userSpaceOnUse">
<stop stop-color="#A82D65" stop-opacity="0.8"/>
<stop offset="0.21" stop-color="#972859" stop-opacity="0.83"/>
<stop offset="0.59" stop-color="#6A1B39" stop-opacity="0.9"/>
<stop offset="1" stop-color="#300B11"/>
</linearGradient>
<linearGradient id="paint2_linear_1742_4437" x1="11.6362" y1="9.38565" x2="29.0911" y2="9.38565" gradientUnits="userSpaceOnUse">
<stop stop-color="#FF8059" stop-opacity="0.8"/>
<stop offset="0.03" stop-color="#FB7D59" stop-opacity="0.81"/>
<stop offset="0.67" stop-color="#BF4362" stop-opacity="0.95"/>
<stop offset="1" stop-color="#A82D65"/>
</linearGradient>
<linearGradient id="paint3_linear_1742_4437" x1="10.9093" y1="49.2753" x2="15.273" y2="41.7168" gradientUnits="userSpaceOnUse">
<stop stop-color="#A82D65" stop-opacity="0.8"/>
<stop offset="0.19" stop-color="#9C2A5C" stop-opacity="0.82"/>
<stop offset="0.49" stop-color="#7A2045" stop-opacity="0.88"/>
<stop offset="0.87" stop-color="#44111F" stop-opacity="0.97"/>
<stop offset="1" stop-color="#300B11"/>
</linearGradient>
<linearGradient id="paint4_linear_1742_4437" x1="17.4551" y1="26.1807" x2="23.2728" y2="26.1807" gradientUnits="userSpaceOnUse">
<stop stop-color="#A82D65" stop-opacity="0.8"/>
<stop offset="0.21" stop-color="#972859" stop-opacity="0.83"/>
<stop offset="0.59" stop-color="#6A1B39" stop-opacity="0.9"/>
<stop offset="1" stop-color="#300B11"/>
</linearGradient>
<linearGradient id="paint5_linear_1742_4437" x1="15.2732" y1="29.1198" x2="25.4547" y2="23.2415" gradientUnits="userSpaceOnUse">
<stop stop-color="#A82D65" stop-opacity="0.8"/>
<stop offset="0.19" stop-color="#9C2A5C" stop-opacity="0.82"/>
<stop offset="0.49" stop-color="#7A2045" stop-opacity="0.88"/>
<stop offset="0.87" stop-color="#44111F" stop-opacity="0.97"/>
<stop offset="1" stop-color="#300B11"/>
</linearGradient>
<linearGradient id="paint6_linear_1742_4437" x1="17.4551" y1="11.0647" x2="46.5462" y2="11.0647" gradientUnits="userSpaceOnUse">
<stop stop-color="#FF8059" stop-opacity="0.8"/>
<stop offset="0.03" stop-color="#FB7D59" stop-opacity="0.81"/>
<stop offset="0.67" stop-color="#BF4362" stop-opacity="0.95"/>
<stop offset="1" stop-color="#A82D65"/>
</linearGradient>
<linearGradient id="paint7_linear_1742_4437" x1="17.4551" y1="11.0647" x2="46.5462" y2="11.0647" gradientUnits="userSpaceOnUse">
<stop stop-color="#FF8059" stop-opacity="0.8"/>
<stop offset="0.03" stop-color="#FB7D59" stop-opacity="0.81"/>
<stop offset="0.67" stop-color="#BF4362" stop-opacity="0.95"/>
<stop offset="1" stop-color="#A82D65"/>
</linearGradient>
<linearGradient id="paint8_linear_1742_4437" x1="17.4551" y1="11.0647" x2="46.5462" y2="11.0647" gradientUnits="userSpaceOnUse">
<stop stop-color="#FF8059" stop-opacity="0.8"/>
<stop offset="0.03" stop-color="#FB7D59" stop-opacity="0.81"/>
<stop offset="0.67" stop-color="#BF4362" stop-opacity="0.95"/>
<stop offset="1" stop-color="#A82D65"/>
</linearGradient>
<linearGradient id="paint9_linear_1742_4437" x1="25.4543" y1="37.5183" x2="44.364" y2="4.76662" gradientUnits="userSpaceOnUse">
<stop stop-color="#A82D65" stop-opacity="0.8"/>
<stop offset="0.26" stop-color="#7C2046" stop-opacity="0.87"/>
<stop offset="0.56" stop-color="#521529" stop-opacity="0.94"/>
<stop offset="0.82" stop-color="#390E17" stop-opacity="0.98"/>
<stop offset="1" stop-color="#300B11"/>
</linearGradient>
<linearGradient id="paint10_linear_1742_4437" x1="32" y1="26.1812" x2="55.2726" y2="26.1812" gradientUnits="userSpaceOnUse">
<stop stop-color="#FF8059" stop-opacity="0.8"/>
<stop offset="0.03" stop-color="#FB7D59" stop-opacity="0.81"/>
<stop offset="0.67" stop-color="#BF4362" stop-opacity="0.95"/>
<stop offset="1" stop-color="#A82D65"/>
</linearGradient>
<linearGradient id="paint11_linear_1742_4437" x1="33.4548" y1="52.2147" x2="45.0911" y2="32.0596" gradientUnits="userSpaceOnUse">
<stop stop-color="#A82D65" stop-opacity="0.8"/>
<stop offset="0.36" stop-color="#751F41" stop-opacity="0.89"/>
<stop offset="0.78" stop-color="#43101E" stop-opacity="0.97"/>
<stop offset="1" stop-color="#300B11"/>
</linearGradient>
<linearGradient id="paint12_linear_1742_4437" x1="42.9092" y1="57.6729" x2="58.9092" y2="29.9602" gradientUnits="userSpaceOnUse">
<stop stop-color="#A82D65" stop-opacity="0.8"/>
<stop offset="0.12" stop-color="#952757" stop-opacity="0.83"/>
<stop offset="0.51" stop-color="#5E1831" stop-opacity="0.92"/>
<stop offset="0.81" stop-color="#3C0F1A" stop-opacity="0.98"/>
<stop offset="1" stop-color="#300B11"/>
</linearGradient>
<linearGradient id="paint13_linear_1742_4437" x1="18.8653" y1="60.7907" x2="21.8626" y2="55.5997" gradientUnits="userSpaceOnUse">
<stop stop-color="#A82D65" stop-opacity="0.8"/>
<stop offset="0.19" stop-color="#9C2A5C" stop-opacity="0.82"/>
<stop offset="0.49" stop-color="#7A2045" stop-opacity="0.88"/>
<stop offset="0.87" stop-color="#44111F" stop-opacity="0.97"/>
<stop offset="1" stop-color="#300B11"/>
</linearGradient>
<linearGradient id="paint14_linear_1742_4437" x1="26.1816" y1="48.0156" x2="43.6365" y2="48.0156" gradientUnits="userSpaceOnUse">
<stop stop-color="#A82D65" stop-opacity="0.8"/>
<stop offset="0.26" stop-color="#7C2046" stop-opacity="0.87"/>
<stop offset="0.56" stop-color="#521529" stop-opacity="0.94"/>
<stop offset="0.82" stop-color="#390E17" stop-opacity="0.98"/>
<stop offset="1" stop-color="#300B11"/>
</linearGradient>
<linearGradient id="paint15_linear_1742_4437" x1="28.3635" y1="59.3525" x2="41.4546" y2="36.6787" gradientUnits="userSpaceOnUse">
<stop stop-color="#A82D65" stop-opacity="0.8"/>
<stop offset="0.26" stop-color="#7C2046" stop-opacity="0.87"/>
<stop offset="0.56" stop-color="#521529" stop-opacity="0.94"/>
<stop offset="0.82" stop-color="#390E17" stop-opacity="0.98"/>
<stop offset="1" stop-color="#300B11"/>
</linearGradient>
<linearGradient id="paint16_linear_1742_4437" x1="0" y1="35.4189" x2="43.6363" y2="35.4189" gradientUnits="userSpaceOnUse">
<stop stop-color="#FF8059" stop-opacity="0.8"/>
<stop offset="0.03" stop-color="#FB7D59" stop-opacity="0.81"/>
<stop offset="0.67" stop-color="#BF4362" stop-opacity="0.95"/>
<stop offset="1" stop-color="#A82D65"/>
</linearGradient>
<linearGradient id="paint17_linear_1742_4437" x1="23.2725" y1="58.1948" x2="37.8184" y2="58.1948" gradientUnits="userSpaceOnUse">
<stop stop-color="#A82D65" stop-opacity="0.8"/>
<stop offset="0.12" stop-color="#952757" stop-opacity="0.83"/>
<stop offset="0.51" stop-color="#5E1831" stop-opacity="0.92"/>
<stop offset="0.81" stop-color="#3C0F1A" stop-opacity="0.98"/>
<stop offset="1" stop-color="#300B11"/>
</linearGradient>
<linearGradient id="paint18_linear_1742_4437" x1="55.2729" y1="35.436" x2="64.0004" y2="35.436" gradientUnits="userSpaceOnUse">
<stop stop-color="#A82D65" stop-opacity="0.8"/>
<stop offset="0.12" stop-color="#952757" stop-opacity="0.83"/>
<stop offset="0.51" stop-color="#5E1831" stop-opacity="0.92"/>
<stop offset="0.81" stop-color="#3C0F1A" stop-opacity="0.98"/>
<stop offset="1" stop-color="#300B11"/>
</linearGradient>
<linearGradient id="paint19_linear_1742_4437" x1="46.5459" y1="23.6612" x2="63.9999" y2="23.6612" gradientUnits="userSpaceOnUse">
<stop stop-color="#FF8059" stop-opacity="0.8"/>
<stop offset="0.03" stop-color="#FB7D59" stop-opacity="0.81"/>
<stop offset="0.67" stop-color="#BF4362" stop-opacity="0.95"/>
<stop offset="1" stop-color="#A82D65"/>
</linearGradient>
<linearGradient id="paint20_linear_1742_4437" x1="26.4553" y1="36.3259" x2="36.4664" y2="29.5733" gradientUnits="userSpaceOnUse">
<stop stop-color="#FF8059" stop-opacity="0.8"/>
<stop offset="0.2" stop-color="#E1635D" stop-opacity="0.87"/>
<stop offset="0.47" stop-color="#C14561" stop-opacity="0.94"/>
<stop offset="0.74" stop-color="#AE3364" stop-opacity="0.99"/>
<stop offset="1" stop-color="#A82D65"/>
</linearGradient>
<linearGradient id="paint21_linear_1742_4437" x1="26.4553" y1="36.3259" x2="36.4664" y2="29.5733" gradientUnits="userSpaceOnUse">
<stop stop-color="#FF8059" stop-opacity="0.8"/>
<stop offset="0.2" stop-color="#E1635D" stop-opacity="0.87"/>
<stop offset="0.47" stop-color="#C14561" stop-opacity="0.94"/>
<stop offset="0.74" stop-color="#AE3364" stop-opacity="0.99"/>
<stop offset="1" stop-color="#A82D65"/>
</linearGradient>
<linearGradient id="paint22_linear_1742_4437" x1="26.4553" y1="36.3259" x2="36.4664" y2="29.5733" gradientUnits="userSpaceOnUse">
<stop stop-color="#FF8059" stop-opacity="0.8"/>
<stop offset="0.2" stop-color="#E1635D" stop-opacity="0.87"/>
<stop offset="0.47" stop-color="#C14561" stop-opacity="0.94"/>
<stop offset="0.74" stop-color="#AE3364" stop-opacity="0.99"/>
<stop offset="1" stop-color="#A82D65"/>
</linearGradient>
<radialGradient id="paint23_radial_1742_4437" cx="0" cy="0" r="1" gradientUnits="userSpaceOnUse" gradientTransform="translate(31.4613 33.0008) scale(11.0614)">
<stop stop-color="#EA9980"/>
<stop offset="0.05" stop-color="#EBA088" stop-opacity="0.94"/>
<stop offset="0.32" stop-color="#F2C1B2" stop-opacity="0.61"/>
<stop offset="0.55" stop-color="#F8DCD3" stop-opacity="0.35"/>
<stop offset="0.75" stop-color="#FCEFEB" stop-opacity="0.16"/>
<stop offset="0.91" stop-color="#FEFBFA" stop-opacity="0.04"/>
<stop offset="1" stop-color="white" stop-opacity="0"/>
</radialGradient>
</defs>
</svg>
