<svg width="87" height="28" viewBox="0 0 87 28" fill="none" xmlns="http://www.w3.org/2000/svg">
<path d="M34.3953 12.1955V1.32739H41.0844V2.73776H36.0469V6.05628H40.6302V7.46665H36.0469V12.1955H34.3953Z" fill="white"/>
<path d="M43.8096 2.77924C43.5205 2.77924 43.3141 2.69628 43.1076 2.48887C42.9012 2.32295 42.8186 2.07406 42.8186 1.82517C42.8186 1.57628 42.9012 1.32739 43.1076 1.16146C43.3141 0.995538 43.5205 0.871094 43.8096 0.871094C44.0986 0.871094 44.3051 0.954057 44.5115 1.16146C44.718 1.36887 44.8006 1.57628 44.8006 1.82517C44.8006 2.07406 44.718 2.32295 44.5115 2.48887C44.3051 2.69628 44.0573 2.77924 43.8096 2.77924ZM42.9838 12.1955V4.06517H44.5528V12.1955H42.9838Z" fill="white"/>
<path d="M48.269 1.32739V12.1955H46.7V1.32739H48.269Z" fill="white"/>
<path d="M53.8847 12.3615C53.1002 12.3615 52.3983 12.1956 51.8202 11.8223C51.2421 11.4489 50.7879 10.9926 50.4989 10.3704C50.2098 9.7482 50.0447 9.00154 50.0447 8.17191C50.0447 7.34228 50.2098 6.59561 50.4989 5.97339C50.8292 5.35117 51.2421 4.85339 51.8202 4.48006C52.3983 4.10672 53.0589 3.9408 53.8022 3.9408C54.2564 3.9408 54.7106 4.02376 55.1235 4.18968C55.5364 4.35561 55.9493 4.56302 56.2796 4.89487C56.6099 5.22672 56.899 5.64154 57.1054 6.1808C57.3119 6.67857 57.3945 7.34228 57.3945 8.04746V8.6282H50.9531V7.42524H55.8667C55.8667 7.01043 55.7841 6.63709 55.619 6.30524C55.4538 5.97339 55.206 5.7245 54.917 5.51709C54.628 5.35117 54.2564 5.22672 53.8434 5.22672C53.3892 5.22672 53.0176 5.35117 52.6873 5.55857C52.357 5.76598 52.1092 6.05635 51.9441 6.42968C51.7789 6.76154 51.655 7.17635 51.655 7.54969V8.46228C51.655 9.00154 51.7376 9.45783 51.9441 9.87265C52.1505 10.246 52.3983 10.5364 52.7286 10.7438C53.0589 10.9512 53.4718 11.0341 53.926 11.0341C54.2151 11.0341 54.5041 10.9926 54.7518 10.9097C54.9996 10.8267 55.206 10.7023 55.4125 10.5364C55.5777 10.3704 55.7428 10.163 55.8254 9.91413L57.3119 10.163C57.188 10.6193 56.9816 10.9926 56.6512 11.3245C56.3209 11.6564 55.9493 11.9052 55.4951 12.1126C54.9996 12.2786 54.4628 12.3615 53.8847 12.3615Z" fill="white"/>
<path d="M62.5558 12.3615C61.7713 12.3615 61.1106 12.1956 60.5326 11.8223C59.9545 11.4489 59.5416 10.9512 59.2525 10.3289C58.9635 9.70672 58.7983 8.96006 58.7983 8.17191C58.7983 7.38376 58.9635 6.59561 59.2525 5.97339C59.5416 5.35117 59.9958 4.85339 60.5739 4.48006C61.1519 4.10672 61.8126 3.9408 62.5558 3.9408C63.1752 3.9408 63.712 4.06524 64.2075 4.27265C64.7029 4.48006 65.0746 4.81191 65.3636 5.22672C65.6526 5.64154 65.8178 6.09783 65.9004 6.67857H64.3726C64.29 6.30524 64.0836 5.97339 63.7945 5.68302C63.5055 5.39265 63.0926 5.2682 62.5971 5.2682C62.1429 5.2682 61.7713 5.39265 61.441 5.60006C61.1106 5.84894 60.8629 6.1808 60.6564 6.59561C60.45 7.01043 60.3674 7.5082 60.3674 8.08894C60.3674 8.66968 60.45 9.20894 60.6151 9.62376C60.7803 10.0386 61.0693 10.3704 61.3997 10.6193C61.73 10.8682 62.1016 10.9926 62.5558 10.9926C62.8449 10.9926 63.1339 10.9512 63.3816 10.8267C63.6294 10.7023 63.8358 10.5778 64.001 10.3289C64.1662 10.0801 64.29 9.87265 64.3726 9.58228H65.9004C65.8591 10.1215 65.6526 10.5778 65.4049 10.9926C65.1571 11.4075 64.7442 11.7393 64.2487 11.9882C63.7533 12.2371 63.1752 12.3615 62.5558 12.3615Z" fill="white"/>
<path d="M70.9791 12.3615C70.2359 12.3615 69.5753 12.1956 68.9972 11.8223C68.4191 11.4489 68.0062 10.9926 67.6759 10.3704C67.3455 9.7482 67.2217 9.00154 67.2217 8.17191C67.2217 7.34228 67.3868 6.59561 67.6759 5.97339C67.9649 5.35117 68.4191 4.85339 68.9972 4.48006C69.5753 4.10672 70.2359 3.9408 70.9791 3.9408C71.7224 3.9408 72.383 4.10672 72.9611 4.48006C73.5392 4.85339 73.9521 5.30968 74.2824 5.97339C74.6128 6.59561 74.7366 7.34228 74.7366 8.17191C74.7366 9.00154 74.5715 9.7482 74.2824 10.3704C73.9934 10.9926 73.5392 11.4904 72.9611 11.8223C72.383 12.1541 71.7637 12.3615 70.9791 12.3615ZM70.9791 11.0341C71.4746 11.0341 71.8875 10.9097 72.2179 10.6193C72.5482 10.3704 72.796 9.99709 72.9611 9.58228C73.1263 9.16746 73.2089 8.66968 73.2089 8.13043C73.2089 7.59117 73.1263 7.13487 72.9611 6.67857C72.796 6.22228 72.5482 5.89043 72.2179 5.64154C71.8875 5.39265 71.4746 5.22672 70.9791 5.22672C70.4837 5.22672 70.0707 5.35117 69.7404 5.64154C69.4101 5.89043 69.1624 6.26376 68.9972 6.67857C68.832 7.09339 68.7494 7.59117 68.7494 8.13043C68.7494 8.66968 68.832 9.12598 68.9972 9.58228C69.1624 9.99709 69.4101 10.3704 69.7404 10.6193C70.0707 10.9097 70.4837 11.0341 70.9791 11.0341Z" fill="white"/>
<path d="M77.3379 2.77924C77.0489 2.77924 76.8424 2.69628 76.636 2.48887C76.4295 2.32295 76.3469 2.07406 76.3469 1.82517C76.3469 1.57628 76.4295 1.32739 76.636 1.16146C76.8424 0.995538 77.0489 0.871094 77.3379 0.871094C77.6269 0.871094 77.8334 0.954057 78.0399 1.16146C78.2463 1.36887 78.3289 1.57628 78.3289 1.82517C78.3289 2.07406 78.2463 2.32295 78.0399 2.48887C77.8334 2.69628 77.5857 2.77924 77.3379 2.77924ZM76.5121 12.1955V4.06517H78.0811V12.1955H76.5121Z" fill="white"/>
<path d="M81.7973 7.34218V12.1955H80.2283V4.06514H81.756V5.39255H81.8386C82.0038 4.97773 82.3341 4.6044 82.7057 4.35551C83.1186 4.10662 83.6141 3.98218 84.2335 3.98218C84.7703 3.98218 85.2658 4.10662 85.6787 4.31403C86.0916 4.56292 86.4219 4.89477 86.6284 5.35107C86.8348 5.80736 86.9587 6.3881 86.9587 7.05181V12.237H85.3896V7.25922C85.3896 6.67847 85.2245 6.22218 84.9354 5.89033C84.6464 5.55847 84.1922 5.39255 83.6554 5.39255C83.2838 5.39255 82.9535 5.47551 82.6644 5.64144C82.3754 5.80736 82.1689 6.01477 82.0038 6.34662C81.8386 6.67847 81.7973 6.92736 81.7973 7.34218Z" fill="white"/>
<path d="M40.2999 18.7081C40.2586 18.2103 40.0109 17.7955 39.598 17.5466C39.1851 17.2562 38.6896 17.1318 38.0702 17.1318C37.616 17.1318 37.2444 17.2148 36.914 17.3392C36.5837 17.4637 36.336 17.6711 36.1708 17.92C36.0056 18.1688 35.8818 18.4592 35.8818 18.7496C35.8818 18.9985 35.9644 19.2474 36.0469 19.4133C36.1295 19.5792 36.336 19.7451 36.5424 19.8696C36.7489 19.994 36.9553 20.077 37.2031 20.2014C37.4508 20.3259 37.6573 20.3674 37.8637 20.4088L38.9373 20.6992C39.2676 20.7822 39.6393 20.9066 40.0109 21.0311C40.3825 21.1555 40.7128 21.3629 41.0019 21.6118C41.2909 21.8607 41.5799 22.1511 41.7451 22.4829C41.9103 22.8148 42.0341 23.2296 42.0341 23.7274C42.0341 24.3496 41.869 24.8888 41.5799 25.3866C41.2909 25.8844 40.7954 26.2577 40.2173 26.5066C39.6393 26.797 38.896 26.9214 38.0702 26.9214C37.2444 26.9214 36.5424 26.797 35.9644 26.5481C35.3863 26.2992 34.8908 25.9259 34.5605 25.4281C34.2301 24.9303 34.0237 24.3911 34.0237 23.7274H35.6753C35.7166 24.1422 35.8405 24.4325 36.0469 24.7229C36.2534 25.0133 36.5424 25.1792 36.914 25.3037C37.2857 25.4281 37.6573 25.5111 38.0702 25.5111C38.5244 25.5111 38.9373 25.4281 39.3089 25.3037C39.6805 25.1792 39.9696 24.9718 40.176 24.6814C40.3825 24.3911 40.5064 24.1007 40.5064 23.7688C40.5064 23.437 40.4238 23.1881 40.2173 22.9807C40.0109 22.7733 39.8044 22.6074 39.4741 22.4829C39.1438 22.3585 38.8134 22.234 38.4418 22.1096L37.1618 21.7777C36.2947 21.5288 35.5927 21.197 35.0972 20.7407C34.6018 20.2844 34.2714 19.5792 34.2714 18.8325C34.2714 18.2103 34.4366 17.6711 34.7669 17.1733C35.0972 16.717 35.5514 16.3437 36.1295 16.0948C36.7076 15.8459 37.3682 15.7214 38.0702 15.7214C38.7721 15.7214 39.4328 15.8459 40.0109 16.0948C40.5889 16.3437 41.0019 16.717 41.3322 17.1733C41.6625 17.6296 41.8277 18.1274 41.8277 18.7081H40.2999Z" fill="white"/>
<path d="M46.2045 26.88C45.709 26.88 45.2135 26.797 44.8006 26.5896C44.3877 26.3822 44.0574 26.1333 43.8096 25.76C43.5619 25.3866 43.438 24.9303 43.438 24.3911C43.438 23.9348 43.5206 23.5615 43.6857 23.2711C43.8509 22.9807 44.0986 22.7318 44.3877 22.5659C44.6767 22.4 45.007 22.2755 45.3787 22.1511C45.7503 22.0681 46.1219 21.9852 46.4935 21.9437C46.989 21.9022 47.3606 21.8192 47.691 21.8192C48.0213 21.8192 48.2277 21.7363 48.3516 21.6533C48.4755 21.5703 48.5581 21.4459 48.5581 21.2385V21.197C48.5581 20.7407 48.4342 20.3674 48.1864 20.1185C47.9387 19.8696 47.5258 19.7452 47.0303 19.7452C46.5348 19.7452 46.0806 19.8696 45.7916 20.077C45.5025 20.2844 45.2548 20.5748 45.1722 20.8652L43.6857 20.5333C43.8509 20.0355 44.1399 19.6207 44.4703 19.3303C44.8006 19.04 45.2135 18.7911 45.6264 18.6666C46.0393 18.5422 46.5348 18.4592 47.0303 18.4592C47.3606 18.4592 47.691 18.5007 48.0626 18.5837C48.4342 18.6666 48.7645 18.7911 49.0949 18.9985C49.4252 19.2059 49.6729 19.4963 49.8794 19.8696C50.0858 20.2429 50.1684 20.7407 50.1684 21.3215V26.714H48.6407V25.594H48.5581C48.4342 25.8015 48.3103 26.0089 48.1039 26.2163C47.8974 26.4237 47.6497 26.5896 47.3193 26.714C47.0303 26.8385 46.6587 26.88 46.2045 26.88ZM46.5348 25.6355C46.989 25.6355 47.3606 25.5526 47.6497 25.3866C47.98 25.2207 48.1864 24.9718 48.3516 24.7229C48.5168 24.474 48.5994 24.1422 48.5994 23.8103V22.7733C48.5581 22.8148 48.4342 22.8977 48.269 22.9392C48.1039 22.9807 47.9387 23.0222 47.7322 23.0637C47.5258 23.1052 47.3193 23.1466 47.1542 23.1466C46.9477 23.1881 46.7826 23.1881 46.6587 23.2296C46.3696 23.2711 46.0806 23.354 45.8329 23.437C45.5851 23.52 45.3787 23.6444 45.2135 23.8518C45.0483 24.0592 45.007 24.2666 45.007 24.5155C45.007 24.9303 45.1309 25.2207 45.4612 25.3866C45.7503 25.5111 46.1219 25.6355 46.5348 25.6355Z" fill="white"/>
<path d="M56.1144 18.5838V19.8697H51.6963V18.5838H56.1144ZM52.8524 16.5927H54.4215V24.3082C54.4215 24.5986 54.4628 24.8475 54.5454 25.0134C54.628 25.1793 54.7518 25.2623 54.917 25.3452C55.0822 25.4282 55.206 25.4282 55.4125 25.4282C55.5364 25.4282 55.6602 25.4282 55.7428 25.3867C55.8254 25.3452 55.908 25.3452 55.9493 25.3452L56.2383 26.6727C56.1557 26.7141 56.0318 26.7556 55.8667 26.7971C55.7015 26.8386 55.4951 26.8386 55.2473 26.8801C54.8344 26.8801 54.4628 26.7971 54.0912 26.6727C53.7195 26.5067 53.4305 26.2578 53.2241 25.9675C53.0176 25.6356 52.8937 25.2208 52.8937 24.723L52.8524 16.5927Z" fill="white"/>
<path d="M62.9687 23.3541V18.5837H64.5378V26.7141H62.9687V25.3037H62.8862C62.721 25.7186 62.3907 26.0919 61.9778 26.3823C61.5649 26.6726 61.0694 26.7971 60.45 26.7971C59.9132 26.7971 59.459 26.6726 59.0874 26.4652C58.6745 26.2163 58.3854 25.8845 58.1377 25.4282C57.89 24.9719 57.8074 24.3912 57.8074 23.7274V18.5837H59.3764V23.5615C59.3764 24.1008 59.5416 24.5571 59.8306 24.8889C60.1197 25.2208 60.5326 25.3867 61.0281 25.3867C61.3171 25.3867 61.6061 25.3037 61.8952 25.1793C62.1842 25.0549 62.432 24.806 62.6384 24.5156C62.8862 24.1837 62.9687 23.8104 62.9687 23.3541Z" fill="white"/>
<path d="M66.6848 26.714V18.5837H68.2126V19.8696H68.2952C68.4603 19.4133 68.7081 19.0815 69.0797 18.8326C69.4513 18.5837 69.8642 18.4592 70.3597 18.4592C70.4423 18.4592 70.5662 18.4592 70.7313 18.4592C70.8552 18.4592 70.9791 18.4592 71.0617 18.5007V20.0355C71.0204 20.0355 70.8965 19.994 70.7313 19.9526C70.5662 19.9111 70.401 19.9111 70.2358 19.9111C69.8642 19.9111 69.5339 19.994 69.2449 20.16C68.9558 20.3259 68.7081 20.5333 68.5429 20.8237C68.3777 21.114 68.2952 21.4044 68.2952 21.7777V26.7555L66.6848 26.714Z" fill="white"/>
<path d="M73.9521 21.8607V26.714H72.3831V18.5837H73.9108V19.9111H73.9934C74.1586 19.4963 74.4889 19.1229 74.8605 18.874C75.2734 18.6252 75.7689 18.4592 76.3883 18.4592C76.9251 18.4592 77.4205 18.5837 77.8335 18.7911C78.2464 19.04 78.5767 19.3718 78.7832 19.8281C79.0309 20.2844 79.1135 20.8652 79.1135 21.5289V26.714H77.5444V21.7363C77.5444 21.1555 77.3793 20.6992 77.0902 20.3674C76.8012 20.0355 76.347 19.8696 75.8102 19.8696C75.4386 19.8696 75.1083 19.9526 74.8192 20.1185C74.5302 20.2844 74.3237 20.4918 74.1586 20.8237C74.0347 21.0726 73.9521 21.4459 73.9521 21.8607Z" fill="white"/>
<path d="M22.9991 6.34668L0 19.7037V20.9896L0.990982 21.5704L24.1139 8.17186V7.01038L22.9991 6.34668Z" fill="url(#paint0_linear_344_463)"/>
<path d="M2.56006 22.483L4.6659 23.6859L24.1139 12.4445V9.95557L2.56006 22.483Z" fill="url(#paint1_linear_344_463)"/>
<path d="M21.43 5.43404L19.3242 4.23108L0 15.4311V17.8785L21.43 5.43404Z" fill="url(#paint2_linear_344_463)"/>
<path d="M24.1138 16.6756V14.2281L6.23486 24.5985L8.3407 25.843L24.1138 16.6756Z" fill="url(#paint3_linear_344_463)"/>
<path d="M9.90991 26.7555L12.057 28L24.114 20.9896V18.5007L9.90991 26.7555Z" fill="url(#paint4_linear_344_463)"/>
<path d="M0 11.1585V13.6059L17.7551 3.31854L15.6493 2.0741L0 11.1585Z" fill="url(#paint5_linear_344_463)"/>
<path d="M14.0802 1.16148L12.057 0L0 7.01037V9.33333L14.0802 1.16148Z" fill="url(#paint6_linear_344_463)"/>
<path d="M15.4015 0.414795L0 9.33331V11.1585L16.9706 1.32739L15.4015 0.414795Z" fill="url(#paint7_linear_344_463)"/>
<path d="M0 15.4312L20.6455 3.44301L19.0764 2.5719L0 13.606V15.4312Z" fill="url(#paint8_linear_344_463)"/>
<path d="M0 19.7037L24.3204 5.59997L22.7513 4.68738L0 17.8785V19.7037Z" fill="url(#paint9_linear_344_463)"/>
<path d="M2.56002 22.4829L25.4352 9.20885V7.38367L0.990967 21.5703L2.56002 22.4829Z" fill="url(#paint10_linear_344_463)"/>
<path d="M6.23483 24.5985L25.4351 13.4814V11.6562L4.66577 23.6859L6.23483 24.5985Z" fill="url(#paint11_linear_344_463)"/>
<path d="M9.90988 26.7555L25.4353 17.754V15.9288L8.34082 25.8429L9.90988 26.7555Z" fill="url(#paint12_linear_344_463)"/>
<defs>
<linearGradient id="paint0_linear_344_463" x1="-0.0232055" y1="20.9422" x2="24.157" y2="7.0455" gradientUnits="userSpaceOnUse">
<stop stop-color="#0998F6"/>
<stop offset="1" stop-color="#39C1CB"/>
</linearGradient>
<linearGradient id="paint1_linear_344_463" x1="3.09943" y1="23.4001" x2="24.7075" y2="10.9816" gradientUnits="userSpaceOnUse">
<stop stop-color="#0998F6"/>
<stop offset="1" stop-color="#39C1CB"/>
</linearGradient>
<linearGradient id="paint2_linear_344_463" x1="-0.521298" y1="16.9645" x2="20.9725" y2="4.61172" gradientUnits="userSpaceOnUse">
<stop stop-color="#0998F6"/>
<stop offset="1" stop-color="#39C1CB"/>
</linearGradient>
<linearGradient id="paint3_linear_344_463" x1="6.77944" y1="25.534" x2="24.6991" y2="15.2354" gradientUnits="userSpaceOnUse">
<stop stop-color="#0998F6"/>
<stop offset="1" stop-color="#39C1CB"/>
</linearGradient>
<linearGradient id="paint4_linear_344_463" x1="10.4645" y1="27.6806" x2="24.6975" y2="19.5006" gradientUnits="userSpaceOnUse">
<stop stop-color="#0998F6"/>
<stop offset="1" stop-color="#39C1CB"/>
</linearGradient>
<linearGradient id="paint5_linear_344_463" x1="-0.522673" y1="12.6939" x2="17.2814" y2="2.46167" gradientUnits="userSpaceOnUse">
<stop stop-color="#0998F6"/>
<stop offset="1" stop-color="#39C1CB"/>
</linearGradient>
<linearGradient id="paint6_linear_344_463" x1="-0.500078" y1="8.46497" x2="13.6156" y2="0.35249" gradientUnits="userSpaceOnUse">
<stop stop-color="#0998F6"/>
<stop offset="1" stop-color="#39C1CB"/>
</linearGradient>
<linearGradient id="paint7_linear_344_463" x1="-0.387238" y1="10.4822" x2="16.6122" y2="0.712424" gradientUnits="userSpaceOnUse">
<stop offset="0.2" stop-color="#4182C3" stop-opacity="0"/>
<stop offset="0.28" stop-color="#3684CD" stop-opacity="0.18"/>
<stop offset="0.39" stop-color="#2A87DA" stop-opacity="0.4"/>
<stop offset="0.49" stop-color="#208AE5" stop-opacity="0.58"/>
<stop offset="0.6" stop-color="#188CEE" stop-opacity="0.73"/>
<stop offset="0.7" stop-color="#118DF5" stop-opacity="0.85"/>
<stop offset="0.81" stop-color="#0C8FFA" stop-opacity="0.93"/>
<stop offset="0.91" stop-color="#098FFD" stop-opacity="0.98"/>
<stop offset="1" stop-color="#0990FF"/>
</linearGradient>
<linearGradient id="paint8_linear_344_463" x1="-0.38856" y1="14.7524" x2="20.3011" y2="2.86178" gradientUnits="userSpaceOnUse">
<stop offset="0.2" stop-color="#4182C3" stop-opacity="0"/>
<stop offset="0.28" stop-color="#3684CD" stop-opacity="0.18"/>
<stop offset="0.39" stop-color="#2A87DA" stop-opacity="0.4"/>
<stop offset="0.49" stop-color="#208AE5" stop-opacity="0.58"/>
<stop offset="0.6" stop-color="#188CEE" stop-opacity="0.73"/>
<stop offset="0.7" stop-color="#118DF5" stop-opacity="0.85"/>
<stop offset="0.81" stop-color="#0C8FFA" stop-opacity="0.93"/>
<stop offset="0.91" stop-color="#098FFD" stop-opacity="0.98"/>
<stop offset="1" stop-color="#0990FF"/>
</linearGradient>
<linearGradient id="paint9_linear_344_463" x1="-0.388836" y1="19.0201" x2="23.9874" y2="5.01072" gradientUnits="userSpaceOnUse">
<stop offset="0.2" stop-color="#4182C3" stop-opacity="0"/>
<stop offset="0.28" stop-color="#3684CD" stop-opacity="0.18"/>
<stop offset="0.39" stop-color="#2A87DA" stop-opacity="0.4"/>
<stop offset="0.49" stop-color="#208AE5" stop-opacity="0.58"/>
<stop offset="0.6" stop-color="#188CEE" stop-opacity="0.73"/>
<stop offset="0.7" stop-color="#118DF5" stop-opacity="0.85"/>
<stop offset="0.81" stop-color="#0C8FFA" stop-opacity="0.93"/>
<stop offset="0.91" stop-color="#098FFD" stop-opacity="0.98"/>
<stop offset="1" stop-color="#0990FF"/>
</linearGradient>
<linearGradient id="paint10_linear_344_463" x1="1.38819" y1="22.2544" x2="25.8807" y2="8.17855" gradientUnits="userSpaceOnUse">
<stop offset="0.2" stop-color="#4182C3" stop-opacity="0"/>
<stop offset="0.28" stop-color="#3684CD" stop-opacity="0.18"/>
<stop offset="0.39" stop-color="#2A87DA" stop-opacity="0.4"/>
<stop offset="0.49" stop-color="#208AE5" stop-opacity="0.58"/>
<stop offset="0.6" stop-color="#188CEE" stop-opacity="0.73"/>
<stop offset="0.7" stop-color="#118DF5" stop-opacity="0.85"/>
<stop offset="0.81" stop-color="#0C8FFA" stop-opacity="0.93"/>
<stop offset="0.91" stop-color="#098FFD" stop-opacity="0.98"/>
<stop offset="1" stop-color="#0990FF"/>
</linearGradient>
<linearGradient id="paint11_linear_344_463" x1="5.0759" y1="24.3875" x2="25.8762" y2="12.4332" gradientUnits="userSpaceOnUse">
<stop offset="0.2" stop-color="#4182C3" stop-opacity="0"/>
<stop offset="0.28" stop-color="#3684CD" stop-opacity="0.18"/>
<stop offset="0.39" stop-color="#2A87DA" stop-opacity="0.4"/>
<stop offset="0.49" stop-color="#208AE5" stop-opacity="0.58"/>
<stop offset="0.6" stop-color="#188CEE" stop-opacity="0.73"/>
<stop offset="0.7" stop-color="#118DF5" stop-opacity="0.85"/>
<stop offset="0.81" stop-color="#0C8FFA" stop-opacity="0.93"/>
<stop offset="0.91" stop-color="#098FFD" stop-opacity="0.98"/>
<stop offset="1" stop-color="#0990FF"/>
</linearGradient>
<linearGradient id="paint12_linear_344_463" x1="8.75432" y1="26.5224" x2="25.868" y2="16.6869" gradientUnits="userSpaceOnUse">
<stop offset="0.2" stop-color="#4182C3" stop-opacity="0"/>
<stop offset="0.28" stop-color="#3684CD" stop-opacity="0.18"/>
<stop offset="0.39" stop-color="#2A87DA" stop-opacity="0.4"/>
<stop offset="0.49" stop-color="#208AE5" stop-opacity="0.58"/>
<stop offset="0.6" stop-color="#188CEE" stop-opacity="0.73"/>
<stop offset="0.7" stop-color="#118DF5" stop-opacity="0.85"/>
<stop offset="0.81" stop-color="#0C8FFA" stop-opacity="0.93"/>
<stop offset="0.91" stop-color="#098FFD" stop-opacity="0.98"/>
<stop offset="1" stop-color="#0990FF"/>
</linearGradient>
</defs>
</svg>
