<svg width="25" height="25" viewBox="0 0 25 25" fill="none" xmlns="http://www.w3.org/2000/svg">
<mask id="mask0_303_368" style="mask-type:alpha" maskUnits="userSpaceOnUse" x="0" y="0" width="25" height="25">
<path fill-rule="evenodd" clip-rule="evenodd" d="M0 0H25V25H0V0Z" fill="white"/>
</mask>
<g mask="url(#mask0_303_368)">
<path fill-rule="evenodd" clip-rule="evenodd" d="M12.5 25C5.625 25 0 19.375 0 12.4375C0.0625 5.56253 5.625 -0.0624724 12.5625 2.75671e-05C19.4375 0.0625276 25 5.62503 25 12.625C24.9375 19.4375 19.375 25 12.5 25Z" fill="#0090FF"/>
<path fill-rule="evenodd" clip-rule="evenodd" d="M13.6875 11L13.3125 13L16.875 13.5L16.625 14.4375L13.125 13.9375C12.875 14.75 12.75 15.625 12.4375 16.375C12.125 17.25 11.8125 18.125 11.4375 18.9375C10.9375 20 10.0625 20.75 8.875 20.9375C8.1875 21.0625 7.4375 21 6.875 20.5625C6.6875 20.4375 6.5 20.1875 6.5 20C6.5 19.75 6.625 19.4375 6.8125 19.3125C6.9375 19.25 7.25 19.3125 7.4375 19.375C7.625 19.5625 7.8125 19.8125 7.9375 20.0625C8.3125 20.5625 8.8125 20.625 9.3125 20.25C9.875 19.75 10.1875 19.0625 10.375 18.375C10.75 16.875 11.125 15.4375 11.4375 13.9375V13.6875L8.125 13.1875L8.25 12.25L11.6875 12.75L12.125 10.8125L8.5625 10.25L8.6875 9.25002L12.375 9.75002C12.5 9.37502 12.5625 9.06252 12.6875 8.75002C13 7.62502 13.3125 6.50002 14.0625 5.50002C14.8125 4.50002 15.6875 3.87502 17 3.93752C17.5625 3.93752 18.125 4.12502 18.5 4.56252C18.5625 4.62502 18.6875 4.75002 18.6875 4.87502C18.6875 5.12502 18.6875 5.43752 18.5 5.62502C18.25 5.81252 17.9375 5.75002 17.6875 5.50002C17.5 5.31252 17.375 5.12502 17.1875 4.93752C16.8125 4.43752 16.25 4.37502 15.8125 4.81252C15.5 5.12502 15.1875 5.56252 15 6.00002C14.5625 7.31252 14.25 8.68752 13.8125 10.0625L17.25 10.5625L17 11.5L13.6875 11Z" fill="white"/>
</g>
</svg>
