<svg width="12" height="10" viewBox="0 0 12 10" fill="none" xmlns="http://www.w3.org/2000/svg">
<path d="M6.13636 9.13636L1.75568 4.75568C1.40625 4.40625 1.1733 4 1.05682 3.53693C0.943182 3.07386 0.944602 2.61364 1.06108 2.15625C1.17756 1.69602 1.40909 1.29545 1.75568 0.954545C2.1108 0.605113 2.51563 0.373579 2.97017 0.259943C3.42756 0.143466 3.88352 0.143466 4.33807 0.259943C4.79545 0.37642 5.2017 0.607954 5.55682 0.954545L6.13636 1.51705L6.71591 0.954545C7.07386 0.607954 7.48011 0.37642 7.93466 0.259943C8.3892 0.143466 8.84375 0.143466 9.2983 0.259943C9.75568 0.373579 10.1619 0.605113 10.517 0.954545C10.8636 1.29545 11.0952 1.69602 11.2116 2.15625C11.3281 2.61364 11.3281 3.07386 11.2116 3.53693C11.098 4 10.8665 4.40625 10.517 4.75568L6.13636 9.13636Z" fill="#FF0000"/>
</svg>
