<svg width="21" height="27" viewBox="0 0 21 27" fill="none" xmlns="http://www.w3.org/2000/svg">
<g clip-path="url(#clip0_4553_14406)">
<path d="M20.6103 8.26452V17.1861L15.4761 20.1654L10.3174 23.1407L5.15869 26.12V23.1448L10.3174 20.1654V17.1861L15.4638 14.2272L15.4761 11.2275L20.6103 8.26044V8.26452Z" fill="url(#paint0_linear_4553_14406)"/>
<path d="M20.6103 8.26452V17.1861L15.4761 20.1654L10.3174 23.1407L5.15869 26.12V23.1448L10.3174 20.1654V17.1861L15.4638 14.2272L15.4761 11.2275L20.6103 8.26044V8.26452Z" fill="url(#paint1_linear_4553_14406)"/>
<path d="M18.2595 0L16.627 2.43243L17.1861 2.75484L17.1738 6.27696L18.888 7.26871V3.73434L19.5614 4.12206L18.2595 0Z" fill="#D4DFFA"/>
<path d="M5.15462 23.1448V26.12L0 23.1284V20.1532L5.15462 23.1448Z" fill="url(#paint2_linear_4553_14406)"/>
<path d="M5.15462 23.1448V26.12L0 23.1284V20.1532L5.15462 23.1448Z" fill="url(#paint3_linear_4553_14406)"/>
<path d="M5.15462 23.1448L10.3133 20.1655L5.14238 17.178L0 20.1532L5.15462 23.1448Z" fill="url(#paint4_linear_4553_14406)"/>
<path d="M5.15462 23.1448L10.3133 20.1655L5.14238 17.178L0 20.1532L5.15462 23.1448Z" fill="url(#paint5_linear_4553_14406)"/>
<path d="M5.14648 17.178L10.3174 20.1654V17.1861L5.14648 14.1864V17.178V17.178Z" fill="url(#paint6_linear_4553_14406)"/>
<path d="M5.14648 17.178L10.3174 20.1654V17.1861L5.14648 14.1864V17.178V17.178Z" fill="url(#paint7_linear_4553_14406)"/>
<path d="M10.3133 17.1861L15.4598 14.2272L10.2807 11.2071L5.13831 14.1864L10.3092 17.1861H10.3133Z" fill="url(#paint8_linear_4553_14406)"/>
<path d="M10.3133 17.1861L15.4598 14.2272L10.2807 11.2071L5.13831 14.1864L10.3092 17.1861H10.3133Z" fill="url(#paint9_linear_4553_14406)"/>
<path d="M10.2848 11.2071V8.24823L15.4761 11.2275L15.4639 14.2273L10.2848 11.2071V11.2071Z" fill="url(#paint10_linear_4553_14406)"/>
<path d="M10.2848 11.2071V8.24823L15.4761 11.2275L15.4639 14.2273L10.2848 11.2071V11.2071Z" fill="url(#paint11_linear_4553_14406)"/>
<path d="M15.472 11.2316L10.2806 8.25231L15.4557 5.29749L20.6062 8.26455L15.472 11.2316Z" fill="url(#paint12_linear_4553_14406)"/>
<path d="M15.472 11.2316L10.2806 8.25231L15.4557 5.29749L20.6062 8.26455L15.472 11.2316Z" fill="url(#paint13_linear_4553_14406)"/>
<path d="M1.71826 21.1531L1.73051 24.1365L3.42831 25.1201L3.43647 22.149L1.71826 21.1531Z" fill="#D4DFFA"/>
<path d="M3.43642 22.149L8.58695 19.1697L6.86467 18.1738L1.72229 21.1531L3.4405 22.149H3.43642Z" fill="#D4DFFA"/>
<path d="M8.58691 19.1656V16.1822L6.86462 15.1863V18.1697L8.58691 19.1656Z" fill="#D4DFFA"/>
<path d="M8.58283 16.1821L13.7374 13.2232L12.0233 12.2233L6.86462 15.1863L8.58283 16.1821V16.1821Z" fill="#D4DFFA"/>
<path d="M13.7375 13.2232V10.2317L12.0275 9.24811V12.2193L13.7375 13.2192V13.2232Z" fill="#D4DFFA"/>
<path d="M13.7375 10.2358L18.8921 7.26872L17.1739 6.27698L12.0275 9.25221L13.7375 10.2358Z" fill="#D4DFFA"/>
</g>
<defs>
<linearGradient id="paint0_linear_4553_14406" x1="5.15461" y1="17.1902" x2="20.6103" y2="17.1902" gradientUnits="userSpaceOnUse">
<stop stop-color="#3CBFDF" stop-opacity="0.8"/>
<stop offset="0.28" stop-color="#2F92B3" stop-opacity="0.88"/>
<stop offset="0.57" stop-color="#23698C" stop-opacity="0.95"/>
<stop offset="0.82" stop-color="#1B4D74" stop-opacity="0.99"/>
<stop offset="1" stop-color="#19416C"/>
</linearGradient>
<linearGradient id="paint1_linear_4553_14406" x1="5.15461" y1="17.1902" x2="20.6103" y2="17.1902" gradientUnits="userSpaceOnUse">
<stop stop-color="#3CBFDF" stop-opacity="0.8"/>
<stop offset="0.45" stop-color="#2D89AB" stop-opacity="0.89"/>
<stop offset="1" stop-color="#19416C"/>
</linearGradient>
<linearGradient id="paint2_linear_4553_14406" x1="0" y1="23.1366" x2="5.15462" y2="23.1366" gradientUnits="userSpaceOnUse">
<stop stop-color="#3CBFDF" stop-opacity="0.8"/>
<stop offset="0.58" stop-color="#27799B" stop-opacity="0.92"/>
<stop offset="1" stop-color="#19416C"/>
</linearGradient>
<linearGradient id="paint3_linear_4553_14406" x1="1.93043" y1="24.2589" x2="3.22419" y2="22.0142" gradientUnits="userSpaceOnUse">
<stop stop-color="#3CBFDF" stop-opacity="0.8"/>
<stop offset="0.58" stop-color="#27799B" stop-opacity="0.92"/>
<stop offset="1" stop-color="#19416C"/>
</linearGradient>
<linearGradient id="paint4_linear_4553_14406" x1="0" y1="20.1614" x2="10.3133" y2="20.1614" gradientUnits="userSpaceOnUse">
<stop stop-color="#6159FF" stop-opacity="0.8"/>
<stop offset="0.39" stop-color="#6199EF" stop-opacity="0.9"/>
<stop offset="0.76" stop-color="#47B3E3" stop-opacity="0.97"/>
<stop offset="1" stop-color="#3CBFDF"/>
</linearGradient>
<linearGradient id="paint5_linear_4553_14406" x1="0" y1="20.1614" x2="10.3133" y2="20.1614" gradientUnits="userSpaceOnUse">
<stop stop-color="#6159FF" stop-opacity="0.8"/>
<stop offset="0.68" stop-color="#56A4EA" stop-opacity="0.93"/>
<stop offset="1" stop-color="#3CBFDF"/>
</linearGradient>
<linearGradient id="paint6_linear_4553_14406" x1="5.1424" y1="17.1739" x2="10.3133" y2="17.1739" gradientUnits="userSpaceOnUse">
<stop stop-color="#3CBFDF" stop-opacity="0.8"/>
<stop offset="0.58" stop-color="#27799B" stop-opacity="0.92"/>
<stop offset="1" stop-color="#19416C"/>
</linearGradient>
<linearGradient id="paint7_linear_4553_14406" x1="7.081" y1="18.2962" x2="8.37883" y2="16.0515" gradientUnits="userSpaceOnUse">
<stop stop-color="#3CBFDF" stop-opacity="0.8"/>
<stop offset="0.58" stop-color="#27799B" stop-opacity="0.92"/>
<stop offset="1" stop-color="#19416C"/>
</linearGradient>
<linearGradient id="paint8_linear_4553_14406" x1="5.14239" y1="14.1986" x2="15.4598" y2="14.1986" gradientUnits="userSpaceOnUse">
<stop stop-color="#6159FF" stop-opacity="0.8"/>
<stop offset="0.39" stop-color="#6199EF" stop-opacity="0.9"/>
<stop offset="0.76" stop-color="#47B3E3" stop-opacity="0.97"/>
<stop offset="1" stop-color="#3CBFDF"/>
</linearGradient>
<linearGradient id="paint9_linear_4553_14406" x1="5.14239" y1="14.1986" x2="15.4598" y2="14.1986" gradientUnits="userSpaceOnUse">
<stop stop-color="#6159FF" stop-opacity="0.8"/>
<stop offset="1" stop-color="#3CBFDF"/>
</linearGradient>
<linearGradient id="paint10_linear_4553_14406" x1="10.2848" y1="11.2398" x2="15.4721" y2="11.2398" gradientUnits="userSpaceOnUse">
<stop stop-color="#3CBFDF" stop-opacity="0.8"/>
<stop offset="0.58" stop-color="#27799B" stop-opacity="0.92"/>
<stop offset="1" stop-color="#19416C"/>
</linearGradient>
<linearGradient id="paint11_linear_4553_14406" x1="12.2234" y1="12.3621" x2="13.5253" y2="10.1052" gradientUnits="userSpaceOnUse">
<stop stop-color="#3CBFDF" stop-opacity="0.8"/>
<stop offset="0.58" stop-color="#27799B" stop-opacity="0.92"/>
<stop offset="1" stop-color="#19416C"/>
</linearGradient>
<linearGradient id="paint12_linear_4553_14406" x1="10.2847" y1="8.26455" x2="20.6103" y2="8.26455" gradientUnits="userSpaceOnUse">
<stop stop-color="#6159FF" stop-opacity="0.8"/>
<stop offset="0.39" stop-color="#6199EF" stop-opacity="0.9"/>
<stop offset="0.76" stop-color="#47B3E3" stop-opacity="0.97"/>
<stop offset="1" stop-color="#3CBFDF"/>
</linearGradient>
<linearGradient id="paint13_linear_4553_14406" x1="10.2847" y1="8.26455" x2="20.6103" y2="8.26455" gradientUnits="userSpaceOnUse">
<stop stop-color="#6159FF" stop-opacity="0.8"/>
<stop offset="1" stop-color="#3CBFDF"/>
</linearGradient>
<clipPath id="clip0_4553_14406">
<rect width="20.6103" height="26.12" fill="white"/>
</clipPath>
</defs>
</svg>
