<svg width="64" height="64" viewBox="0 0 64 64" fill="none" xmlns="http://www.w3.org/2000/svg">
<path d="M58.4951 20.249L58.4966 42.1103L45.9141 49.4079L33.2748 56.7002V56.7077L20.6348 64V56.7077L33.2748 49.4101V42.1133L45.8827 34.8673L45.9141 27.5182L58.4951 20.249Z" fill="url(#paint0_linear_1742_4495)"/>
<path d="M58.4951 20.249L58.4966 42.1103L45.9141 49.4079L33.2748 56.7002V56.7077L20.6348 64V56.7077L33.2748 49.4101V42.1133L45.8827 34.8673L45.9141 27.5182L58.4951 20.249Z" fill="url(#paint1_linear_1742_4495)"/>
<path d="M52.7398 0L48.7385 5.96082L50.1036 6.74867L50.073 15.3807L54.2707 17.8078V9.15406L55.9203 10.107L52.7398 0Z" fill="#F2DCC2"/>
<path d="M20.6348 56.708V64.0003L8 56.6699L8.00075 49.3828L20.6348 56.708Z" fill="url(#paint2_linear_1742_4495)"/>
<path d="M20.6348 56.708V64.0003L8 56.6699L8.00075 49.3828L20.6348 56.708Z" fill="url(#paint3_linear_1742_4495)"/>
<path d="M20.6348 56.7081L33.2748 49.4106L20.6079 42.0898L8.00073 49.3829L20.6348 56.7081Z" fill="url(#paint4_linear_1742_4495)"/>
<path d="M20.6348 56.7081L33.2748 49.4106L20.6079 42.0898L8.00073 49.3829L20.6348 56.7081Z" fill="url(#paint5_linear_1742_4495)"/>
<path d="M20.6078 42.0899L33.2747 49.4106V42.1138L20.6011 34.7617L20.6078 42.0899Z" fill="url(#paint6_linear_1742_4495)"/>
<path d="M20.6078 42.0899L33.2747 49.4106V42.1138L20.6011 34.7617L20.6078 42.0899Z" fill="url(#paint7_linear_1742_4495)"/>
<path d="M33.2747 42.1133L45.8827 34.8672L33.1971 27.4629L20.6011 34.7612L33.2747 42.1133Z" fill="url(#paint8_linear_1742_4495)"/>
<path d="M33.2747 42.1133L45.8827 34.8672L33.1971 27.4629L20.6011 34.7612L33.2747 42.1133Z" fill="url(#paint9_linear_1742_4495)"/>
<path d="M33.1973 27.4628V20.2168L45.9142 27.5181L45.8829 34.8672L33.1973 27.4628Z" fill="url(#paint10_linear_1742_4495)"/>
<path d="M33.1973 27.4628V20.2168L45.9142 27.5181L45.8829 34.8672L33.1973 27.4628Z" fill="url(#paint11_linear_1742_4495)"/>
<path d="M45.9142 27.5179L33.1973 20.2166L45.8761 12.9795L58.4953 20.2487L45.9142 27.5179Z" fill="url(#paint12_linear_1742_4495)"/>
<path d="M45.9142 27.5179L33.1973 20.2166L45.8761 12.9795L58.4953 20.2487L45.9142 27.5179Z" fill="url(#paint13_linear_1742_4495)"/>
<path d="M12.2139 51.8252L12.2408 59.1302L16.3981 61.5423L16.4212 54.2649L12.2139 51.8252Z" fill="#F2DCC2"/>
<path d="M16.4212 54.2652L29.0374 46.9617L24.8188 44.5234L12.2139 51.8255L16.4212 54.2652Z" fill="#F2DCC2"/>
<path d="M29.0377 46.9612L29.0347 39.6532L24.8213 37.209L24.8191 44.523L29.0377 46.9612Z" fill="#F2DCC2"/>
<path d="M29.0346 39.6531L41.6612 32.4026L37.4643 29.9531L24.8213 37.2089L29.0346 39.6531Z" fill="#F2DCC2"/>
<path d="M41.6612 32.4025V25.0758L37.468 22.6689V29.9531L41.6612 32.4025Z" fill="#F2DCC2"/>
<path d="M41.6612 25.0763L54.287 17.8079L50.0804 15.3809L37.468 22.6695L41.6612 25.0763Z" fill="#F2DCC2"/>
<defs>
<linearGradient id="paint0_linear_1742_4495" x1="20.6348" y1="42.1245" x2="58.4966" y2="42.1245" gradientUnits="userSpaceOnUse">
<stop stop-color="#A82D65" stop-opacity="0.8"/>
<stop offset="0.28" stop-color="#771F43" stop-opacity="0.88"/>
<stop offset="0.57" stop-color="#501428" stop-opacity="0.95"/>
<stop offset="0.82" stop-color="#380D17" stop-opacity="0.99"/>
<stop offset="1" stop-color="#300B11"/>
</linearGradient>
<linearGradient id="paint1_linear_1742_4495" x1="20.6348" y1="42.1245" x2="58.4966" y2="42.1245" gradientUnits="userSpaceOnUse">
<stop stop-color="#A82D65" stop-opacity="0.8"/>
<stop offset="0.45" stop-color="#6F1D3D" stop-opacity="0.89"/>
<stop offset="1" stop-color="#300B11"/>
</linearGradient>
<linearGradient id="paint2_linear_1742_4495" x1="8" y1="56.6916" x2="20.6348" y2="56.6916" gradientUnits="userSpaceOnUse">
<stop stop-color="#A82D65" stop-opacity="0.8"/>
<stop offset="0.58" stop-color="#5F1832" stop-opacity="0.92"/>
<stop offset="1" stop-color="#300B11"/>
</linearGradient>
<linearGradient id="paint3_linear_1742_4495" x1="12.7316" y1="59.4382" x2="15.9032" y2="53.9449" gradientUnits="userSpaceOnUse">
<stop stop-color="#A82D65" stop-opacity="0.8"/>
<stop offset="0.58" stop-color="#5F1832" stop-opacity="0.92"/>
<stop offset="1" stop-color="#300B11"/>
</linearGradient>
<linearGradient id="paint4_linear_1742_4495" x1="8.00073" y1="49.3986" x2="33.2748" y2="49.3986" gradientUnits="userSpaceOnUse">
<stop stop-color="#FF8059" stop-opacity="0.8"/>
<stop offset="0.39" stop-color="#D3565F" stop-opacity="0.9"/>
<stop offset="0.76" stop-color="#B33863" stop-opacity="0.97"/>
<stop offset="1" stop-color="#A82D65"/>
</linearGradient>
<linearGradient id="paint5_linear_1742_4495" x1="8.00073" y1="49.3986" x2="33.2748" y2="49.3986" gradientUnits="userSpaceOnUse">
<stop stop-color="#FF8059" stop-opacity="0.8"/>
<stop offset="0.68" stop-color="#C64961" stop-opacity="0.93"/>
<stop offset="1" stop-color="#A82D65"/>
</linearGradient>
<linearGradient id="paint6_linear_1742_4495" x1="20.6011" y1="42.0862" x2="33.2747" y2="42.0862" gradientUnits="userSpaceOnUse">
<stop stop-color="#A82D65" stop-opacity="0.8"/>
<stop offset="0.58" stop-color="#5F1832" stop-opacity="0.92"/>
<stop offset="1" stop-color="#300B11"/>
</linearGradient>
<linearGradient id="paint7_linear_1742_4495" x1="25.3506" y1="44.8358" x2="28.5252" y2="39.3365" gradientUnits="userSpaceOnUse">
<stop stop-color="#A82D65" stop-opacity="0.8"/>
<stop offset="0.58" stop-color="#5F1832" stop-opacity="0.92"/>
<stop offset="1" stop-color="#300B11"/>
</linearGradient>
<linearGradient id="paint8_linear_1742_4495" x1="20.6011" y1="34.7881" x2="45.8827" y2="34.7881" gradientUnits="userSpaceOnUse">
<stop stop-color="#FF8059" stop-opacity="0.8"/>
<stop offset="0.39" stop-color="#D3565F" stop-opacity="0.9"/>
<stop offset="0.76" stop-color="#B33863" stop-opacity="0.97"/>
<stop offset="1" stop-color="#A82D65"/>
</linearGradient>
<linearGradient id="paint9_linear_1742_4495" x1="20.6011" y1="34.7881" x2="45.8827" y2="34.7881" gradientUnits="userSpaceOnUse">
<stop stop-color="#FF8059" stop-opacity="0.8"/>
<stop offset="1" stop-color="#A82D65"/>
</linearGradient>
<linearGradient id="paint10_linear_1742_4495" x1="33.1973" y1="27.542" x2="45.9142" y2="27.542" gradientUnits="userSpaceOnUse">
<stop stop-color="#A82D65" stop-opacity="0.8"/>
<stop offset="0.58" stop-color="#5F1832" stop-opacity="0.92"/>
<stop offset="1" stop-color="#300B11"/>
</linearGradient>
<linearGradient id="paint11_linear_1742_4495" x1="37.9543" y1="30.2894" x2="41.1438" y2="24.764" gradientUnits="userSpaceOnUse">
<stop stop-color="#A82D65" stop-opacity="0.8"/>
<stop offset="0.58" stop-color="#5F1832" stop-opacity="0.92"/>
<stop offset="1" stop-color="#300B11"/>
</linearGradient>
<linearGradient id="paint12_linear_1742_4495" x1="33.1973" y1="20.2487" x2="58.4953" y2="20.2487" gradientUnits="userSpaceOnUse">
<stop stop-color="#FF8059" stop-opacity="0.8"/>
<stop offset="0.39" stop-color="#D3565F" stop-opacity="0.9"/>
<stop offset="0.76" stop-color="#B33863" stop-opacity="0.97"/>
<stop offset="1" stop-color="#A82D65"/>
</linearGradient>
<linearGradient id="paint13_linear_1742_4495" x1="33.1973" y1="20.2487" x2="58.4953" y2="20.2487" gradientUnits="userSpaceOnUse">
<stop stop-color="#FF8059" stop-opacity="0.8"/>
<stop offset="1" stop-color="#A82D65"/>
</linearGradient>
</defs>
</svg>
