<svg width="25" height="27" viewBox="0 0 25 27" fill="none" xmlns="http://www.w3.org/2000/svg">
<g clip-path="url(#clip0_4553_14375)">
<path d="M17.3657 3.00788L12.158 0L6.95032 3.00788L12.158 6.06066L17.3657 3.00788V3.00788Z" fill="url(#paint0_linear_4553_14375)"/>
<path d="M12.158 6.01575V11.0275L10.4235 10.0399L7.83192 8.56654L7.81151 8.55429L6.94629 8.06454V3.00787L7.18708 3.14664L12.154 6.01575H12.158Z" fill="url(#paint1_linear_4553_14375)"/>
<path d="M12.158 6.01575V11.0275L10.4235 10.0399L7.83192 8.56654L7.81151 8.55429L6.94629 8.06454V3.00787L7.18708 3.14664L12.154 6.01575H12.158Z" fill="url(#paint2_linear_4553_14375)"/>
<path d="M17.3657 3.00787V8.04414L16.4882 8.54205L16.4719 8.55021L13.9007 10.0113L12.1539 11.003V6.01575L17.3616 3.00787H17.3657Z" fill="url(#paint3_linear_4553_14375)"/>
<path d="M24.312 14.0681L19.1043 17.1208L14.1211 14.2028L13.8966 14.0722L15.6107 13.0804L19.1043 11.0643H19.1124L22.5897 13.0763L24.316 14.0722L24.312 14.0681Z" fill="url(#paint4_linear_4553_14375)"/>
<path d="M19.1043 17.0759V22.0877L17.3698 21.1L14.7741 19.6226L14.7537 19.6104L13.8966 19.1206V14.064L14.1252 14.1946L19.1084 17.0718L19.1043 17.0759Z" fill="url(#paint5_linear_4553_14375)"/>
<path d="M19.1043 17.0759V22.0877L17.3698 21.1L14.7741 19.6226L14.7537 19.6104L13.8966 19.1206V14.064L14.1252 14.1946L19.1084 17.0718L19.1043 17.0759Z" fill="url(#paint6_linear_4553_14375)"/>
<path d="M19.1044 17.0759V22.0673L24.312 19.1043V14.0681L19.1044 17.0759V17.0759Z" fill="url(#paint7_linear_4553_14375)"/>
<path d="M17.3657 18.1003L14.77 19.6227L12.1621 21.1531L9.52152 19.6022L7.18297 18.2309L6.9585 18.1003L10.4276 16.0965L12.1662 15.0925L13.9007 16.0924L17.3738 18.1003H17.3657Z" fill="url(#paint8_linear_4553_14375)"/>
<path d="M17.3657 18.1003L14.77 19.6227L12.1621 21.1531L9.52152 19.6022L7.18297 18.2309L6.9585 18.1003L10.4276 16.0965L12.1662 15.0925L13.9007 16.0924L17.3738 18.1003H17.3657Z" fill="url(#paint9_linear_4553_14375)"/>
<path d="M6.94629 18.1003V23.157L12.154 26.1241V21.1123L6.94629 18.1044V18.1003Z" fill="url(#paint10_linear_4553_14375)"/>
<path d="M6.94629 18.1003V23.157L12.154 26.1241V21.1123L6.94629 18.1044V18.1003Z" fill="url(#paint11_linear_4553_14375)"/>
<path d="M12.1581 21.1082V26.0996L17.3698 23.1366V18.1003L12.1581 21.1082V21.1082Z" fill="url(#paint12_linear_4553_14375)"/>
<path d="M12.1581 21.1082V26.0996L17.3698 23.1366V18.1003L12.1581 21.1082V21.1082Z" fill="url(#paint13_linear_4553_14375)"/>
<path d="M10.4194 14.0681L5.21176 17.1208L0.22855 14.1987L0 14.0681L1.71004 13.0804L5.20768 11.0602L8.68898 13.0682L10.4194 14.0681Z" fill="url(#paint14_linear_4553_14375)"/>
<path d="M10.4194 14.0681L5.21176 17.1208L0.22855 14.1987L0 14.0681L1.71004 13.0804L5.20768 11.0602L8.68898 13.0682L10.4194 14.0681Z" fill="url(#paint15_linear_4553_14375)"/>
<path d="M0 14.0681V19.1247L5.21176 22.0918V17.08L0 14.0681Z" fill="url(#paint16_linear_4553_14375)"/>
<path d="M0 14.0681V19.1247L5.21176 22.0918V17.08L0 14.0681Z" fill="url(#paint17_linear_4553_14375)"/>
<path d="M10.4195 14.068V19.0798L9.53384 19.59L9.51751 19.5981L6.9504 21.0796L5.21179 22.0836V17.0718L10.4235 14.064L10.4195 14.068Z" fill="url(#paint18_linear_4553_14375)"/>
<path d="M10.4195 14.068V19.0798L9.53384 19.59L9.51751 19.5981L6.9504 21.0796L5.21179 22.0836V17.0718L10.4235 14.064L10.4195 14.068Z" fill="url(#paint19_linear_4553_14375)"/>
<path d="M10.4194 7.04835L5.21176 4.04047L0 7.04835L5.20768 10.1011L10.4154 7.04835H10.4194Z" fill="url(#paint20_linear_4553_14375)"/>
<path d="M0 7.04834V12.105L5.21176 15.0721V10.0603L0 7.04834Z" fill="url(#paint21_linear_4553_14375)"/>
<path d="M0 7.04834V12.105L5.21176 15.0721V10.0603L0 7.04834Z" fill="url(#paint22_linear_4553_14375)"/>
<path d="M10.4194 7.04834V12.0846L8.68895 13.0682L5.20764 15.0476V10.0562L7.8074 8.55432L10.4194 7.04834V7.04834Z" fill="url(#paint23_linear_4553_14375)"/>
<path d="M10.4194 7.04834V12.0846L8.68895 13.0682L5.20764 15.0476V10.0562L7.8074 8.55432L10.4194 7.04834V7.04834Z" fill="url(#paint24_linear_4553_14375)"/>
<path d="M24.3201 7.04835L19.1125 4.04047L13.9048 7.04835L19.1165 10.1011L24.3242 7.04835H24.3201Z" fill="url(#paint25_linear_4553_14375)"/>
<path d="M19.1125 10.0562V15.068L15.6108 13.0763L13.9008 12.105V7.04834L14.1293 7.17894L16.4883 8.54208L19.1084 10.0562H19.1125Z" fill="url(#paint26_linear_4553_14375)"/>
<path d="M19.1125 10.0562V15.068L15.6108 13.0763L13.9008 12.105V7.04834L14.1293 7.17894L16.4883 8.54208L19.1084 10.0562H19.1125Z" fill="url(#paint27_linear_4553_14375)"/>
<path d="M19.1125 10.0562V15.0476L24.3202 12.0846V7.04834L19.1125 10.0562V10.0562Z" fill="url(#paint28_linear_4553_14375)"/>
<path d="M19.1125 10.0562V15.0476L24.3202 12.0846V7.04834L19.1125 10.0562V10.0562Z" fill="url(#paint29_linear_4553_14375)"/>
</g>
<defs>
<linearGradient id="paint0_linear_4553_14375" x1="6.95032" y1="3.02829" x2="17.3657" y2="3.02829" gradientUnits="userSpaceOnUse">
<stop stop-color="#6159FF" stop-opacity="0.8"/>
<stop offset="0.2" stop-color="#5C7ADC" stop-opacity="0.87"/>
<stop offset="0.47" stop-color="#53A8E8" stop-opacity="0.94"/>
<stop offset="0.74" stop-color="#42B8E1" stop-opacity="0.99"/>
<stop offset="1" stop-color="#3CBFDF"/>
</linearGradient>
<linearGradient id="paint1_linear_4553_14375" x1="6.94629" y1="7.01566" x2="12.158" y2="7.01566" gradientUnits="userSpaceOnUse">
<stop stop-color="#3CBFDF" stop-opacity="0.8"/>
<stop offset="0.2" stop-color="#39B5D6" stop-opacity="0.82"/>
<stop offset="0.53" stop-color="#2E8EAF" stop-opacity="0.89"/>
<stop offset="0.97" stop-color="#194A71" stop-opacity="0.99"/>
<stop offset="1" stop-color="#19416C"/>
</linearGradient>
<linearGradient id="paint2_linear_4553_14375" x1="6.94629" y1="7.01566" x2="12.158" y2="7.01566" gradientUnits="userSpaceOnUse">
<stop stop-color="#3CBFDF" stop-opacity="0.8"/>
<stop offset="0.2" stop-color="#39B5D6" stop-opacity="0.82"/>
<stop offset="0.53" stop-color="#2E8EAF" stop-opacity="0.89"/>
<stop offset="0.97" stop-color="#194A71" stop-opacity="0.99"/>
<stop offset="1" stop-color="#19416C"/>
</linearGradient>
<linearGradient id="paint3_linear_4553_14375" x1="12.3866" y1="11.1377" x2="17.1535" y2="2.88544" gradientUnits="userSpaceOnUse">
<stop stop-color="#3CBFDF" stop-opacity="0.8"/>
<stop offset="0.43" stop-color="#2C84A6" stop-opacity="0.9"/>
<stop offset="0.8" stop-color="#1F557C" stop-opacity="0.97"/>
<stop offset="1" stop-color="#19416C"/>
</linearGradient>
<linearGradient id="paint4_linear_4553_14375" x1="13.8966" y1="14.0885" x2="24.312" y2="14.0885" gradientUnits="userSpaceOnUse">
<stop stop-color="#6159FF" stop-opacity="0.8"/>
<stop offset="0.2" stop-color="#5C7ADC" stop-opacity="0.87"/>
<stop offset="0.47" stop-color="#53A8E8" stop-opacity="0.94"/>
<stop offset="0.74" stop-color="#42B8E1" stop-opacity="0.99"/>
<stop offset="1" stop-color="#3CBFDF"/>
</linearGradient>
<linearGradient id="paint5_linear_4553_14375" x1="13.8925" y1="18.0758" x2="19.1043" y2="18.0758" gradientUnits="userSpaceOnUse">
<stop stop-color="#3CBFDF" stop-opacity="0.8"/>
<stop offset="0.23" stop-color="#319EBF" stop-opacity="0.86"/>
<stop offset="0.55" stop-color="#256E92" stop-opacity="0.94"/>
<stop offset="0.82" stop-color="#1C4E76" stop-opacity="0.98"/>
<stop offset="1" stop-color="#19416C"/>
</linearGradient>
<linearGradient id="paint6_linear_4553_14375" x1="13.8925" y1="18.0758" x2="19.1043" y2="18.0758" gradientUnits="userSpaceOnUse">
<stop stop-color="#3CBFDF" stop-opacity="0.8"/>
<stop offset="0.23" stop-color="#319EBF" stop-opacity="0.86"/>
<stop offset="0.55" stop-color="#256E92" stop-opacity="0.94"/>
<stop offset="0.82" stop-color="#1C4E76" stop-opacity="0.98"/>
<stop offset="1" stop-color="#19416C"/>
</linearGradient>
<linearGradient id="paint7_linear_4553_14375" x1="19.1044" y1="18.0636" x2="24.312" y2="18.0636" gradientUnits="userSpaceOnUse">
<stop stop-color="#3CBFDF" stop-opacity="0.8"/>
<stop offset="0.43" stop-color="#2C84A6" stop-opacity="0.9"/>
<stop offset="0.8" stop-color="#1F557C" stop-opacity="0.97"/>
<stop offset="1" stop-color="#19416C"/>
</linearGradient>
<linearGradient id="paint8_linear_4553_14375" x1="6.95033" y1="18.1208" x2="17.3657" y2="18.1208" gradientUnits="userSpaceOnUse">
<stop stop-color="#6159FF" stop-opacity="0.8"/>
<stop offset="0.2" stop-color="#5C7ADC" stop-opacity="0.87"/>
<stop offset="0.47" stop-color="#53A8E8" stop-opacity="0.94"/>
<stop offset="0.74" stop-color="#42B8E1" stop-opacity="0.99"/>
<stop offset="1" stop-color="#3CBFDF"/>
</linearGradient>
<linearGradient id="paint9_linear_4553_14375" x1="6.95033" y1="18.1208" x2="17.3657" y2="18.1208" gradientUnits="userSpaceOnUse">
<stop stop-color="#6159FF" stop-opacity="0.8"/>
<stop offset="0.2" stop-color="#5C7ADC" stop-opacity="0.87"/>
<stop offset="0.47" stop-color="#53A8E8" stop-opacity="0.94"/>
<stop offset="0.74" stop-color="#42B8E1" stop-opacity="0.99"/>
<stop offset="1" stop-color="#3CBFDF"/>
</linearGradient>
<linearGradient id="paint10_linear_4553_14375" x1="6.94629" y1="22.1081" x2="12.158" y2="22.1081" gradientUnits="userSpaceOnUse">
<stop stop-color="#3CBFDF" stop-opacity="0.8"/>
<stop offset="0.23" stop-color="#319EBF" stop-opacity="0.86"/>
<stop offset="0.55" stop-color="#256E92" stop-opacity="0.94"/>
<stop offset="0.82" stop-color="#1C4E76" stop-opacity="0.98"/>
<stop offset="1" stop-color="#19416C"/>
</linearGradient>
<linearGradient id="paint11_linear_4553_14375" x1="6.94629" y1="22.1081" x2="12.158" y2="22.1081" gradientUnits="userSpaceOnUse">
<stop stop-color="#3CBFDF" stop-opacity="0.8"/>
<stop offset="0.23" stop-color="#319EBF" stop-opacity="0.86"/>
<stop offset="0.55" stop-color="#256E92" stop-opacity="0.94"/>
<stop offset="0.82" stop-color="#1C4E76" stop-opacity="0.98"/>
<stop offset="1" stop-color="#19416C"/>
</linearGradient>
<linearGradient id="paint12_linear_4553_14375" x1="12.1581" y1="22.0959" x2="17.3698" y2="22.0959" gradientUnits="userSpaceOnUse">
<stop stop-color="#3CBFDF" stop-opacity="0.8"/>
<stop offset="0.43" stop-color="#2C84A6" stop-opacity="0.9"/>
<stop offset="0.8" stop-color="#1F557C" stop-opacity="0.97"/>
<stop offset="1" stop-color="#19416C"/>
</linearGradient>
<linearGradient id="paint13_linear_4553_14375" x1="12.1581" y1="22.0959" x2="17.3698" y2="22.0959" gradientUnits="userSpaceOnUse">
<stop stop-color="#3CBFDF" stop-opacity="0.8"/>
<stop offset="0.43" stop-color="#2C84A6" stop-opacity="0.9"/>
<stop offset="0.8" stop-color="#1F557C" stop-opacity="0.97"/>
<stop offset="1" stop-color="#19416C"/>
</linearGradient>
<linearGradient id="paint14_linear_4553_14375" x1="0" y1="14.0885" x2="10.4194" y2="14.0885" gradientUnits="userSpaceOnUse">
<stop stop-color="#6159FF" stop-opacity="0.8"/>
<stop offset="0.2" stop-color="#5C7ADC" stop-opacity="0.87"/>
<stop offset="0.47" stop-color="#53A8E8" stop-opacity="0.94"/>
<stop offset="0.74" stop-color="#42B8E1" stop-opacity="0.99"/>
<stop offset="1" stop-color="#3CBFDF"/>
</linearGradient>
<linearGradient id="paint15_linear_4553_14375" x1="0" y1="14.0885" x2="10.4194" y2="14.0885" gradientUnits="userSpaceOnUse">
<stop stop-color="#6159FF" stop-opacity="0.8"/>
<stop offset="0.2" stop-color="#5C7ADC" stop-opacity="0.87"/>
<stop offset="0.47" stop-color="#53A8E8" stop-opacity="0.94"/>
<stop offset="0.74" stop-color="#42B8E1" stop-opacity="0.99"/>
<stop offset="1" stop-color="#3CBFDF"/>
</linearGradient>
<linearGradient id="paint16_linear_4553_14375" x1="0" y1="18.0758" x2="5.21176" y2="18.0758" gradientUnits="userSpaceOnUse">
<stop stop-color="#3CBFDF" stop-opacity="0.8"/>
<stop offset="0.23" stop-color="#319EBF" stop-opacity="0.86"/>
<stop offset="0.55" stop-color="#256E92" stop-opacity="0.94"/>
<stop offset="0.82" stop-color="#1C4E76" stop-opacity="0.98"/>
<stop offset="1" stop-color="#19416C"/>
</linearGradient>
<linearGradient id="paint17_linear_4553_14375" x1="0.208144" y1="13.9456" x2="4.98321" y2="22.2183" gradientUnits="userSpaceOnUse">
<stop stop-color="#3CBFDF" stop-opacity="0.8"/>
<stop offset="0.23" stop-color="#319EBF" stop-opacity="0.86"/>
<stop offset="0.55" stop-color="#256E92" stop-opacity="0.94"/>
<stop offset="0.82" stop-color="#1C4E76" stop-opacity="0.98"/>
<stop offset="1" stop-color="#19416C"/>
</linearGradient>
<linearGradient id="paint18_linear_4553_14375" x1="5.21179" y1="18.0758" x2="10.4195" y2="18.0758" gradientUnits="userSpaceOnUse">
<stop stop-color="#3CBFDF" stop-opacity="0.8"/>
<stop offset="0.43" stop-color="#2C84A6" stop-opacity="0.9"/>
<stop offset="0.8" stop-color="#1F557C" stop-opacity="0.97"/>
<stop offset="1" stop-color="#19416C"/>
</linearGradient>
<linearGradient id="paint19_linear_4553_14375" x1="6.73002" y1="16.1944" x2="8.90124" y2="19.9573" gradientUnits="userSpaceOnUse">
<stop stop-color="#3CBFDF" stop-opacity="0.8"/>
<stop offset="0.43" stop-color="#2C84A6" stop-opacity="0.9"/>
<stop offset="0.8" stop-color="#1F557C" stop-opacity="0.97"/>
<stop offset="1" stop-color="#19416C"/>
</linearGradient>
<linearGradient id="paint20_linear_4553_14375" x1="0" y1="7.06875" x2="10.4194" y2="7.06875" gradientUnits="userSpaceOnUse">
<stop stop-color="#6159FF" stop-opacity="0.8"/>
<stop offset="0.2" stop-color="#5C7ADC" stop-opacity="0.87"/>
<stop offset="0.47" stop-color="#53A8E8" stop-opacity="0.94"/>
<stop offset="0.74" stop-color="#42B8E1" stop-opacity="0.99"/>
<stop offset="1" stop-color="#3CBFDF"/>
</linearGradient>
<linearGradient id="paint21_linear_4553_14375" x1="0" y1="11.0561" x2="5.21176" y2="11.0561" gradientUnits="userSpaceOnUse">
<stop stop-color="#3CBFDF" stop-opacity="0.8"/>
<stop offset="0.2" stop-color="#39B5D6" stop-opacity="0.82"/>
<stop offset="0.53" stop-color="#2E8EAF" stop-opacity="0.89"/>
<stop offset="0.97" stop-color="#194A71" stop-opacity="0.99"/>
<stop offset="1" stop-color="#19416C"/>
</linearGradient>
<linearGradient id="paint22_linear_4553_14375" x1="1.5019" y1="12.9702" x2="3.68945" y2="9.17875" gradientUnits="userSpaceOnUse">
<stop stop-color="#3CBFDF" stop-opacity="0.8"/>
<stop offset="0.23" stop-color="#319EBF" stop-opacity="0.86"/>
<stop offset="0.55" stop-color="#256E92" stop-opacity="0.94"/>
<stop offset="0.82" stop-color="#1C4E76" stop-opacity="0.98"/>
<stop offset="1" stop-color="#19416C"/>
</linearGradient>
<linearGradient id="paint23_linear_4553_14375" x1="5.21172" y1="11.048" x2="10.4194" y2="11.048" gradientUnits="userSpaceOnUse">
<stop stop-color="#3CBFDF" stop-opacity="0.8"/>
<stop offset="0.28" stop-color="#3BBCDD" stop-opacity="0.81"/>
<stop offset="0.48" stop-color="#38B2D3" stop-opacity="0.83"/>
<stop offset="0.65" stop-color="#329CBD" stop-opacity="0.87"/>
<stop offset="0.82" stop-color="#287C9E" stop-opacity="0.92"/>
<stop offset="0.97" stop-color="#1C4E76" stop-opacity="0.98"/>
<stop offset="1" stop-color="#19416C"/>
</linearGradient>
<linearGradient id="paint24_linear_4553_14375" x1="5.44027" y1="15.1782" x2="10.2072" y2="6.9259" gradientUnits="userSpaceOnUse">
<stop stop-color="#3CBFDF" stop-opacity="0.8"/>
<stop offset="0.43" stop-color="#2C84A6" stop-opacity="0.9"/>
<stop offset="0.8" stop-color="#1F557C" stop-opacity="0.97"/>
<stop offset="1" stop-color="#19416C"/>
</linearGradient>
<linearGradient id="paint25_linear_4553_14375" x1="13.9048" y1="7.06875" x2="24.3201" y2="7.06875" gradientUnits="userSpaceOnUse">
<stop stop-color="#6159FF" stop-opacity="0.8"/>
<stop offset="0.2" stop-color="#5C7ADC" stop-opacity="0.87"/>
<stop offset="0.47" stop-color="#53A8E8" stop-opacity="0.94"/>
<stop offset="0.74" stop-color="#42B8E1" stop-opacity="0.99"/>
<stop offset="1" stop-color="#3CBFDF"/>
</linearGradient>
<linearGradient id="paint26_linear_4553_14375" x1="13.9008" y1="11.0561" x2="19.1125" y2="11.0561" gradientUnits="userSpaceOnUse">
<stop stop-color="#3CBFDF" stop-opacity="0.8"/>
<stop offset="0.43" stop-color="#2C84A6" stop-opacity="0.9"/>
<stop offset="0.8" stop-color="#1F557C" stop-opacity="0.97"/>
<stop offset="1" stop-color="#19416C"/>
</linearGradient>
<linearGradient id="paint27_linear_4553_14375" x1="15.4027" y1="12.9702" x2="17.5902" y2="9.17875" gradientUnits="userSpaceOnUse">
<stop stop-color="#3CBFDF" stop-opacity="0.8"/>
<stop offset="0.43" stop-color="#2C84A6" stop-opacity="0.9"/>
<stop offset="0.8" stop-color="#1F557C" stop-opacity="0.97"/>
<stop offset="1" stop-color="#19416C"/>
</linearGradient>
<linearGradient id="paint28_linear_4553_14375" x1="19.1125" y1="11.048" x2="24.3202" y2="11.048" gradientUnits="userSpaceOnUse">
<stop stop-color="#3CBFDF" stop-opacity="0.8"/>
<stop offset="0.43" stop-color="#2C84A6" stop-opacity="0.9"/>
<stop offset="0.8" stop-color="#1F557C" stop-opacity="0.97"/>
<stop offset="1" stop-color="#19416C"/>
</linearGradient>
<linearGradient id="paint29_linear_4553_14375" x1="19.3411" y1="15.1782" x2="24.108" y2="6.9259" gradientUnits="userSpaceOnUse">
<stop stop-color="#3CBFDF" stop-opacity="0.8"/>
<stop offset="0.43" stop-color="#2C84A6" stop-opacity="0.9"/>
<stop offset="0.8" stop-color="#1F557C" stop-opacity="0.97"/>
<stop offset="1" stop-color="#19416C"/>
</linearGradient>
<clipPath id="clip0_4553_14375">
<rect width="24.3202" height="26.12" fill="white"/>
</clipPath>
</defs>
</svg>
