<svg width="64" height="64" viewBox="0 0 64 64" fill="none" xmlns="http://www.w3.org/2000/svg">
<path d="M45.2173 7.36984L32.4524 0L19.6956 7.36984L32.4604 14.8472L45.2173 7.36984Z" fill="url(#paint0_linear_1742_4374)"/>
<path d="M32.4528 14.74V27.0233L28.1981 24.6018L21.8524 20.9898L21.803 20.9622L19.6873 19.7573V7.37012L20.2814 7.71293L32.4528 14.74Z" fill="url(#paint1_linear_1742_4374)"/>
<path d="M32.4528 14.74V27.0233L28.1981 24.6018L21.8524 20.9898L21.803 20.9622L19.6873 19.7573V7.37012L20.2814 7.71293L32.4528 14.74Z" fill="url(#paint2_linear_1742_4374)"/>
<path d="M45.2175 7.37012V19.7072L43.0683 20.9303L43.0255 20.9542L36.7284 24.5371L32.4526 26.9695V14.74L45.2175 7.37012Z" fill="url(#paint3_linear_1742_4374)"/>
<path d="M62.2375 34.4672L49.4807 41.9438L49.4727 41.9395L37.2656 34.789L36.7151 34.4672L40.9146 32.0407L49.4727 27.0967L49.493 27.1083L58.0082 32.0254L62.2375 34.4672Z" fill="url(#paint4_linear_1742_4374)"/>
<path d="M49.4729 41.8359V54.1192L45.2211 51.6992L38.8564 48.0771L38.8085 48.0495L36.7073 46.854V34.4668L37.2658 34.7886L49.4729 41.8359Z" fill="url(#paint5_linear_1742_4374)"/>
<path d="M49.4729 41.8359V54.1192L45.2211 51.6992L38.8564 48.0771L38.8085 48.0495L36.7073 46.854V34.4668L37.2658 34.7886L49.4729 41.8359Z" fill="url(#paint6_linear_1742_4374)"/>
<path d="M49.4729 41.8357V54.0652L62.2378 46.8029V34.4658L49.4729 41.8357Z" fill="url(#paint7_linear_1742_4374)"/>
<path d="M45.2209 44.3464L38.8563 48.0767L32.4641 51.8237L32.4561 51.8186L25.9832 48.0273L20.249 44.6682L19.6992 44.3457L28.1977 39.4366L32.4561 36.9766L36.7072 39.4308L45.2209 44.3464Z" fill="url(#paint8_linear_1742_4374)"/>
<path d="M45.2209 44.3464L38.8563 48.0767L32.4641 51.8237L32.4561 51.8186L25.9832 48.0273L20.249 44.6682L19.6992 44.3457L28.1977 39.4366L32.4561 36.9766L36.7072 39.4308L45.2209 44.3464Z" fill="url(#paint9_linear_1742_4374)"/>
<path d="M19.6914 44.3467V56.7338L32.4563 63.9998V51.7165L19.6914 44.3467Z" fill="url(#paint10_linear_1742_4374)"/>
<path d="M19.6914 44.3467V56.7338L32.4563 63.9998V51.7165L19.6914 44.3467Z" fill="url(#paint11_linear_1742_4374)"/>
<path d="M32.4563 51.7165V63.9461L45.2219 56.6837V44.3467L32.4563 51.7165Z" fill="url(#paint12_linear_1742_4374)"/>
<path d="M32.4563 51.7165V63.9461L45.2219 56.6837V44.3467L32.4563 51.7165Z" fill="url(#paint13_linear_1742_4374)"/>
<path d="M28.1977 34.4672L15.4401 41.9438L15.4321 41.9395L3.22655 34.7897L2.67456 34.4672L6.8639 32.0465L15.4321 27.0967L23.9575 32.0196L28.1977 34.4672Z" fill="url(#paint14_linear_1742_4374)"/>
<path d="M28.1977 34.4672L15.4401 41.9438L15.4321 41.9395L3.22655 34.7897L2.67456 34.4672L6.8639 32.0465L15.4321 27.0967L23.9575 32.0196L28.1977 34.4672Z" fill="url(#paint15_linear_1742_4374)"/>
<path d="M2.66675 34.4658V46.8537L15.4323 54.119V41.8357L2.66675 34.4658Z" fill="url(#paint16_linear_1742_4374)"/>
<path d="M2.66675 34.4658V46.8537L15.4323 54.119V41.8357L2.66675 34.4658Z" fill="url(#paint17_linear_1742_4374)"/>
<path d="M28.1979 34.4668V46.7494L26.0256 48.0037L25.9834 48.0277L19.6914 51.6607L15.4324 54.1199V41.8359L28.1979 34.4668Z" fill="url(#paint18_linear_1742_4374)"/>
<path d="M28.1979 34.4668V46.7494L26.0256 48.0037L25.9834 48.0277L19.6914 51.6607L15.4324 54.1199V41.8359L28.1979 34.4668Z" fill="url(#paint19_linear_1742_4374)"/>
<path d="M28.1972 17.27L15.4324 9.89941L2.67554 17.2693L15.4404 24.7473L28.1972 17.27Z" fill="url(#paint20_linear_1742_4374)"/>
<path d="M2.66675 17.2695V29.6574L15.4323 36.9234V24.6401L2.66675 17.2695Z" fill="url(#paint21_linear_1742_4374)"/>
<path d="M2.66675 17.2695V29.6574L15.4323 36.9234V24.6401L2.66675 17.2695Z" fill="url(#paint22_linear_1742_4374)"/>
<path d="M28.1979 17.2705V29.6068L23.9578 32.0196L15.4324 36.8699V24.6396L21.8028 20.9623L28.1979 17.2705Z" fill="url(#paint23_linear_1742_4374)"/>
<path d="M28.1979 17.2705V29.6068L23.9578 32.0196L15.4324 36.8699V24.6396L21.8028 20.9623L28.1979 17.2705Z" fill="url(#paint24_linear_1742_4374)"/>
<path d="M62.2583 17.2693L49.4934 9.89941L36.7358 17.2693L49.5014 24.7473L62.2583 17.2693Z" fill="url(#paint25_linear_1742_4374)"/>
<path d="M49.4934 24.6394V36.9227L40.915 32.0404L36.7285 29.6574V17.2695L37.2863 17.5913L43.0684 20.9301L49.4934 24.6394Z" fill="url(#paint26_linear_1742_4374)"/>
<path d="M49.4934 24.6394V36.9227L40.915 32.0404L36.7285 29.6574V17.2695L37.2863 17.5913L43.0684 20.9301L49.4934 24.6394Z" fill="url(#paint27_linear_1742_4374)"/>
<path d="M49.4932 24.6401V36.8689L62.258 29.6073V17.2695L49.4932 24.6401Z" fill="url(#paint28_linear_1742_4374)"/>
<path d="M49.4932 24.6401V36.8689L62.258 29.6073V17.2695L49.4932 24.6401Z" fill="url(#paint29_linear_1742_4374)"/>
<defs>
<linearGradient id="paint0_linear_1742_4374" x1="19.6948" y1="7.42359" x2="45.2173" y2="7.42359" gradientUnits="userSpaceOnUse">
<stop stop-color="#FF8059" stop-opacity="0.8"/>
<stop offset="0.2" stop-color="#DF625D" stop-opacity="0.87"/>
<stop offset="0.47" stop-color="#C14562" stop-opacity="0.94"/>
<stop offset="0.74" stop-color="#AE3364" stop-opacity="0.99"/>
<stop offset="1" stop-color="#A82D65"/>
</linearGradient>
<linearGradient id="paint1_linear_1742_4374" x1="19.6873" y1="17.1971" x2="32.4528" y2="17.1971" gradientUnits="userSpaceOnUse">
<stop stop-color="#A82D65" stop-opacity="0.8"/>
<stop offset="0.2" stop-color="#9A295B" stop-opacity="0.82"/>
<stop offset="0.53" stop-color="#731E40" stop-opacity="0.89"/>
<stop offset="0.97" stop-color="#350C15" stop-opacity="0.99"/>
<stop offset="1" stop-color="#300B11"/>
</linearGradient>
<linearGradient id="paint2_linear_1742_4374" x1="19.6873" y1="17.1971" x2="32.4528" y2="17.1971" gradientUnits="userSpaceOnUse">
<stop stop-color="#A82D65" stop-opacity="0.8"/>
<stop offset="0.2" stop-color="#9A295B" stop-opacity="0.82"/>
<stop offset="0.53" stop-color="#731E40" stop-opacity="0.89"/>
<stop offset="0.97" stop-color="#350C15" stop-opacity="0.99"/>
<stop offset="1" stop-color="#300B11"/>
</linearGradient>
<linearGradient id="paint3_linear_1742_4374" x1="33.0199" y1="27.2964" x2="44.6974" y2="7.06943" gradientUnits="userSpaceOnUse">
<stop stop-color="#A82D65" stop-opacity="0.8"/>
<stop offset="0.43" stop-color="#6A1C3A" stop-opacity="0.9"/>
<stop offset="0.8" stop-color="#40101C" stop-opacity="0.97"/>
<stop offset="1" stop-color="#300B11"/>
</linearGradient>
<linearGradient id="paint4_linear_1742_4374" x1="36.7158" y1="34.5203" x2="62.2375" y2="34.5203" gradientUnits="userSpaceOnUse">
<stop stop-color="#FF8059" stop-opacity="0.8"/>
<stop offset="0.2" stop-color="#DF625D" stop-opacity="0.87"/>
<stop offset="0.47" stop-color="#C14562" stop-opacity="0.94"/>
<stop offset="0.74" stop-color="#AE3364" stop-opacity="0.99"/>
<stop offset="1" stop-color="#A82D65"/>
</linearGradient>
<linearGradient id="paint5_linear_1742_4374" x1="36.7073" y1="44.293" x2="49.4729" y2="44.293" gradientUnits="userSpaceOnUse">
<stop stop-color="#A82D65" stop-opacity="0.8"/>
<stop offset="0.23" stop-color="#83224B" stop-opacity="0.86"/>
<stop offset="0.55" stop-color="#56162B" stop-opacity="0.94"/>
<stop offset="0.82" stop-color="#3A0E18" stop-opacity="0.98"/>
<stop offset="1" stop-color="#300B11"/>
</linearGradient>
<linearGradient id="paint6_linear_1742_4374" x1="36.7073" y1="44.293" x2="49.4729" y2="44.293" gradientUnits="userSpaceOnUse">
<stop stop-color="#A82D65" stop-opacity="0.8"/>
<stop offset="0.23" stop-color="#83224B" stop-opacity="0.86"/>
<stop offset="0.55" stop-color="#56162B" stop-opacity="0.94"/>
<stop offset="0.82" stop-color="#3A0E18" stop-opacity="0.98"/>
<stop offset="1" stop-color="#300B11"/>
</linearGradient>
<linearGradient id="paint7_linear_1742_4374" x1="49.4729" y1="44.2659" x2="62.2378" y2="44.2659" gradientUnits="userSpaceOnUse">
<stop stop-color="#A82D65" stop-opacity="0.8"/>
<stop offset="0.43" stop-color="#6A1C3A" stop-opacity="0.9"/>
<stop offset="0.8" stop-color="#40101C" stop-opacity="0.97"/>
<stop offset="1" stop-color="#300B11"/>
</linearGradient>
<linearGradient id="paint8_linear_1742_4374" x1="19.6992" y1="44.4001" x2="45.2209" y2="44.4001" gradientUnits="userSpaceOnUse">
<stop stop-color="#FF8059" stop-opacity="0.8"/>
<stop offset="0.2" stop-color="#DF625D" stop-opacity="0.87"/>
<stop offset="0.47" stop-color="#C14562" stop-opacity="0.94"/>
<stop offset="0.74" stop-color="#AE3364" stop-opacity="0.99"/>
<stop offset="1" stop-color="#A82D65"/>
</linearGradient>
<linearGradient id="paint9_linear_1742_4374" x1="19.6992" y1="44.4001" x2="45.2209" y2="44.4001" gradientUnits="userSpaceOnUse">
<stop stop-color="#FF8059" stop-opacity="0.8"/>
<stop offset="0.2" stop-color="#DF625D" stop-opacity="0.87"/>
<stop offset="0.47" stop-color="#C14562" stop-opacity="0.94"/>
<stop offset="0.74" stop-color="#AE3364" stop-opacity="0.99"/>
<stop offset="1" stop-color="#A82D65"/>
</linearGradient>
<linearGradient id="paint10_linear_1742_4374" x1="19.6914" y1="54.1729" x2="32.4563" y2="54.1729" gradientUnits="userSpaceOnUse">
<stop stop-color="#A82D65" stop-opacity="0.8"/>
<stop offset="0.23" stop-color="#83224B" stop-opacity="0.86"/>
<stop offset="0.55" stop-color="#56162B" stop-opacity="0.94"/>
<stop offset="0.82" stop-color="#3A0E18" stop-opacity="0.98"/>
<stop offset="1" stop-color="#300B11"/>
</linearGradient>
<linearGradient id="paint11_linear_1742_4374" x1="19.6914" y1="54.1729" x2="32.4563" y2="54.1729" gradientUnits="userSpaceOnUse">
<stop stop-color="#A82D65" stop-opacity="0.8"/>
<stop offset="0.23" stop-color="#83224B" stop-opacity="0.86"/>
<stop offset="0.55" stop-color="#56162B" stop-opacity="0.94"/>
<stop offset="0.82" stop-color="#3A0E18" stop-opacity="0.98"/>
<stop offset="1" stop-color="#300B11"/>
</linearGradient>
<linearGradient id="paint12_linear_1742_4374" x1="32.4563" y1="54.146" x2="45.2219" y2="54.146" gradientUnits="userSpaceOnUse">
<stop stop-color="#A82D65" stop-opacity="0.8"/>
<stop offset="0.43" stop-color="#6A1C3A" stop-opacity="0.9"/>
<stop offset="0.8" stop-color="#40101C" stop-opacity="0.97"/>
<stop offset="1" stop-color="#300B11"/>
</linearGradient>
<linearGradient id="paint13_linear_1742_4374" x1="32.4563" y1="54.146" x2="45.2219" y2="54.146" gradientUnits="userSpaceOnUse">
<stop stop-color="#A82D65" stop-opacity="0.8"/>
<stop offset="0.43" stop-color="#6A1C3A" stop-opacity="0.9"/>
<stop offset="0.8" stop-color="#40101C" stop-opacity="0.97"/>
<stop offset="1" stop-color="#300B11"/>
</linearGradient>
<linearGradient id="paint14_linear_1742_4374" x1="2.67456" y1="34.5203" x2="28.1977" y2="34.5203" gradientUnits="userSpaceOnUse">
<stop stop-color="#FF8059" stop-opacity="0.8"/>
<stop offset="0.2" stop-color="#DF625D" stop-opacity="0.87"/>
<stop offset="0.47" stop-color="#C14562" stop-opacity="0.94"/>
<stop offset="0.74" stop-color="#AE3364" stop-opacity="0.99"/>
<stop offset="1" stop-color="#A82D65"/>
</linearGradient>
<linearGradient id="paint15_linear_1742_4374" x1="2.67456" y1="34.5203" x2="28.1977" y2="34.5203" gradientUnits="userSpaceOnUse">
<stop stop-color="#FF8059" stop-opacity="0.8"/>
<stop offset="0.2" stop-color="#DF625D" stop-opacity="0.87"/>
<stop offset="0.47" stop-color="#C14562" stop-opacity="0.94"/>
<stop offset="0.74" stop-color="#AE3364" stop-opacity="0.99"/>
<stop offset="1" stop-color="#A82D65"/>
</linearGradient>
<linearGradient id="paint16_linear_1742_4374" x1="2.66675" y1="44.2928" x2="15.4323" y2="44.2928" gradientUnits="userSpaceOnUse">
<stop stop-color="#A82D65" stop-opacity="0.8"/>
<stop offset="0.23" stop-color="#83224B" stop-opacity="0.86"/>
<stop offset="0.55" stop-color="#56162B" stop-opacity="0.94"/>
<stop offset="0.82" stop-color="#3A0E18" stop-opacity="0.98"/>
<stop offset="1" stop-color="#300B11"/>
</linearGradient>
<linearGradient id="paint17_linear_1742_4374" x1="3.17662" y1="34.1717" x2="14.8774" y2="54.4393" gradientUnits="userSpaceOnUse">
<stop stop-color="#A82D65" stop-opacity="0.8"/>
<stop offset="0.23" stop-color="#83224B" stop-opacity="0.86"/>
<stop offset="0.55" stop-color="#56162B" stop-opacity="0.94"/>
<stop offset="0.82" stop-color="#3A0E18" stop-opacity="0.98"/>
<stop offset="1" stop-color="#300B11"/>
</linearGradient>
<linearGradient id="paint18_linear_1742_4374" x1="15.4324" y1="44.293" x2="28.1979" y2="44.293" gradientUnits="userSpaceOnUse">
<stop stop-color="#A82D65" stop-opacity="0.8"/>
<stop offset="0.43" stop-color="#6A1C3A" stop-opacity="0.9"/>
<stop offset="0.8" stop-color="#40101C" stop-opacity="0.97"/>
<stop offset="1" stop-color="#300B11"/>
</linearGradient>
<linearGradient id="paint19_linear_1742_4374" x1="19.1554" y1="39.6868" x2="24.4742" y2="48.8992" gradientUnits="userSpaceOnUse">
<stop stop-color="#A82D65" stop-opacity="0.8"/>
<stop offset="0.43" stop-color="#6A1C3A" stop-opacity="0.9"/>
<stop offset="0.8" stop-color="#40101C" stop-opacity="0.97"/>
<stop offset="1" stop-color="#300B11"/>
</linearGradient>
<linearGradient id="paint20_linear_1742_4374" x1="2.67554" y1="17.3237" x2="28.1972" y2="17.3237" gradientUnits="userSpaceOnUse">
<stop stop-color="#FF8059" stop-opacity="0.8"/>
<stop offset="0.2" stop-color="#DF625D" stop-opacity="0.87"/>
<stop offset="0.47" stop-color="#C14562" stop-opacity="0.94"/>
<stop offset="0.74" stop-color="#AE3364" stop-opacity="0.99"/>
<stop offset="1" stop-color="#A82D65"/>
</linearGradient>
<linearGradient id="paint21_linear_1742_4374" x1="2.66675" y1="27.0965" x2="15.4323" y2="27.0965" gradientUnits="userSpaceOnUse">
<stop stop-color="#A82D65" stop-opacity="0.8"/>
<stop offset="0.2" stop-color="#9A295B" stop-opacity="0.82"/>
<stop offset="0.53" stop-color="#731E40" stop-opacity="0.89"/>
<stop offset="0.97" stop-color="#350C15" stop-opacity="0.99"/>
<stop offset="1" stop-color="#300B11"/>
</linearGradient>
<linearGradient id="paint22_linear_1742_4374" x1="6.34477" y1="31.7811" x2="11.7093" y2="22.4902" gradientUnits="userSpaceOnUse">
<stop stop-color="#A82D65" stop-opacity="0.8"/>
<stop offset="0.23" stop-color="#83224B" stop-opacity="0.86"/>
<stop offset="0.55" stop-color="#56162B" stop-opacity="0.94"/>
<stop offset="0.82" stop-color="#3A0E18" stop-opacity="0.98"/>
<stop offset="1" stop-color="#300B11"/>
</linearGradient>
<linearGradient id="paint23_linear_1742_4374" x1="15.4324" y1="27.0698" x2="28.1979" y2="27.0698" gradientUnits="userSpaceOnUse">
<stop stop-color="#A82D65" stop-opacity="0.8"/>
<stop offset="0.28" stop-color="#A42C62" stop-opacity="0.81"/>
<stop offset="0.48" stop-color="#972859" stop-opacity="0.83"/>
<stop offset="0.65" stop-color="#81224A" stop-opacity="0.87"/>
<stop offset="0.82" stop-color="#621934" stop-opacity="0.92"/>
<stop offset="0.97" stop-color="#3A0E18" stop-opacity="0.98"/>
<stop offset="1" stop-color="#300B11"/>
</linearGradient>
<linearGradient id="paint24_linear_1742_4374" x1="15.9989" y1="37.1967" x2="27.6772" y2="16.9698" gradientUnits="userSpaceOnUse">
<stop stop-color="#A82D65" stop-opacity="0.8"/>
<stop offset="0.43" stop-color="#6A1C3A" stop-opacity="0.9"/>
<stop offset="0.8" stop-color="#40101C" stop-opacity="0.97"/>
<stop offset="1" stop-color="#300B11"/>
</linearGradient>
<linearGradient id="paint25_linear_1742_4374" x1="36.7358" y1="17.323" x2="62.2583" y2="17.323" gradientUnits="userSpaceOnUse">
<stop stop-color="#FF8059" stop-opacity="0.8"/>
<stop offset="0.2" stop-color="#DF625D" stop-opacity="0.87"/>
<stop offset="0.47" stop-color="#C14562" stop-opacity="0.94"/>
<stop offset="0.74" stop-color="#AE3364" stop-opacity="0.99"/>
<stop offset="1" stop-color="#A82D65"/>
</linearGradient>
<linearGradient id="paint26_linear_1742_4374" x1="36.7278" y1="27.0965" x2="49.4934" y2="27.0965" gradientUnits="userSpaceOnUse">
<stop stop-color="#A82D65" stop-opacity="0.8"/>
<stop offset="0.43" stop-color="#6A1C3A" stop-opacity="0.9"/>
<stop offset="0.8" stop-color="#40101C" stop-opacity="0.97"/>
<stop offset="1" stop-color="#300B11"/>
</linearGradient>
<linearGradient id="paint27_linear_1742_4374" x1="40.4058" y1="31.7811" x2="45.7703" y2="22.4902" gradientUnits="userSpaceOnUse">
<stop stop-color="#A82D65" stop-opacity="0.8"/>
<stop offset="0.43" stop-color="#6A1C3A" stop-opacity="0.9"/>
<stop offset="0.8" stop-color="#40101C" stop-opacity="0.97"/>
<stop offset="1" stop-color="#300B11"/>
</linearGradient>
<linearGradient id="paint28_linear_1742_4374" x1="49.4932" y1="27.0696" x2="62.258" y2="27.0696" gradientUnits="userSpaceOnUse">
<stop stop-color="#A82D65" stop-opacity="0.8"/>
<stop offset="0.43" stop-color="#6A1C3A" stop-opacity="0.9"/>
<stop offset="0.8" stop-color="#40101C" stop-opacity="0.97"/>
<stop offset="1" stop-color="#300B11"/>
</linearGradient>
<linearGradient id="paint29_linear_1742_4374" x1="50.0597" y1="37.1965" x2="61.738" y2="16.9696" gradientUnits="userSpaceOnUse">
<stop stop-color="#A82D65" stop-opacity="0.8"/>
<stop offset="0.43" stop-color="#6A1C3A" stop-opacity="0.9"/>
<stop offset="0.8" stop-color="#40101C" stop-opacity="0.97"/>
<stop offset="1" stop-color="#300B11"/>
</linearGradient>
</defs>
</svg>
