<svg width="121" height="38" viewBox="0 0 121 38" fill="none" xmlns="http://www.w3.org/2000/svg">
<path d="M47.8372 16.5511V1.80148H57.1405V3.71556H50.1343V8.21926H56.5088V10.1333H50.1343V16.5511H47.8372Z" fill="black"/>
<path d="M60.9307 3.77185C60.5287 3.77185 60.2416 3.65926 59.9544 3.37778C59.6673 3.15259 59.5524 2.81481 59.5524 2.47704C59.5524 2.13926 59.6673 1.80148 59.9544 1.57629C60.2416 1.35111 60.5287 1.18222 60.9307 1.18222C61.3327 1.18222 61.6198 1.29481 61.907 1.57629C62.1941 1.85778 62.309 2.13926 62.309 2.47704C62.309 2.81481 62.1941 3.15259 61.907 3.37778C61.6198 3.65926 61.2753 3.77185 60.9307 3.77185ZM59.7821 16.5511V5.51704H61.9644V16.5511H59.7821Z" fill="black"/>
<path d="M67.1329 1.80148V16.5511H64.9506V1.80148H67.1329Z" fill="black"/>
<path d="M74.9431 16.7763C73.8519 16.7763 72.8757 16.5511 72.0717 16.0444C71.2677 15.5378 70.636 14.9185 70.234 14.0741C69.832 13.2296 69.6023 12.2163 69.6023 11.0904C69.6023 9.96444 69.832 8.95111 70.234 8.10666C70.6934 7.26222 71.2677 6.58666 72.0717 6.08C72.8757 5.57333 73.7945 5.34814 74.8282 5.34814C75.4599 5.34814 76.0916 5.46074 76.6659 5.68592C77.2402 5.91111 77.8144 6.19259 78.2739 6.64296C78.7333 7.09333 79.1353 7.65629 79.4224 8.38814C79.7096 9.0637 79.8244 9.96444 79.8244 10.9215V11.7096H70.8657V10.077H77.6996C77.6996 9.51407 77.5847 9.0074 77.355 8.55703C77.1253 8.10666 76.7807 7.76889 76.3788 7.4874C75.9768 7.26222 75.4599 7.09333 74.8856 7.09333C74.2539 7.09333 73.7371 7.26222 73.2777 7.5437C72.8182 7.82518 72.4737 8.21926 72.244 8.72592C72.0143 9.17629 71.842 9.73926 71.842 10.2459V11.4844C71.842 12.2163 71.9568 12.8356 72.244 13.3985C72.5311 13.9052 72.8757 14.2993 73.3351 14.5807C73.7945 14.8622 74.3688 14.9748 75.0005 14.9748C75.4025 14.9748 75.8045 14.9185 76.149 14.8059C76.4936 14.6933 76.7807 14.5244 77.0679 14.2993C77.2976 14.0741 77.5273 13.7926 77.6422 13.4548L79.7096 13.7926C79.5373 14.4118 79.2501 14.9185 78.7907 15.3689C78.3313 15.8193 77.8144 16.157 77.1827 16.4385C76.4936 16.6637 75.7471 16.7763 74.9431 16.7763Z" fill="black"/>
<path d="M87.0028 16.7763C85.9117 16.7763 84.9929 16.5511 84.1889 16.0444C83.3849 15.5378 82.8106 14.8622 82.4086 14.0178C82.0066 13.1733 81.7769 12.16 81.7769 11.0904C81.7769 10.0207 82.0066 8.95111 82.4086 8.10666C82.8106 7.26222 83.4423 6.58666 84.2463 6.08C85.0503 5.57333 85.9691 5.34814 87.0028 5.34814C87.8643 5.34814 88.6108 5.51703 89.2999 5.79852C89.9891 6.08 90.5059 6.53037 90.9079 7.09333C91.3099 7.65629 91.5396 8.27555 91.6545 9.0637H89.5297C89.4148 8.55703 89.1277 8.10666 88.7257 7.71259C88.3237 7.31851 87.7494 7.14963 87.0603 7.14963C86.4286 7.14963 85.9117 7.31852 85.4523 7.6C84.9929 7.93777 84.6483 8.38814 84.3612 8.95111C84.074 9.51407 83.9592 10.1896 83.9592 10.9778C83.9592 11.7659 84.074 12.4978 84.3037 13.0607C84.5334 13.6237 84.9354 14.0741 85.3949 14.4118C85.8543 14.7496 86.3711 14.9185 87.0028 14.9185C87.4048 14.9185 87.8068 14.8622 88.1514 14.6933C88.496 14.5244 88.7831 14.3556 89.0128 14.0178C89.2425 13.68 89.4148 13.3985 89.5297 13.0044H91.6545C91.5971 13.7363 91.3099 14.3556 90.9653 14.9185C90.6208 15.4815 90.0465 15.9318 89.3574 16.2696C88.6682 16.6074 87.8643 16.7763 87.0028 16.7763Z" fill="black"/>
<path d="M98.7181 16.7763C97.6844 16.7763 96.7656 16.5511 95.9616 16.0444C95.1576 15.5378 94.5833 14.9185 94.1239 14.0741C93.6645 13.2296 93.4922 12.2163 93.4922 11.0904C93.4922 9.96444 93.7219 8.95111 94.1239 8.10666C94.5259 7.26222 95.1576 6.58666 95.9616 6.08C96.7656 5.57333 97.6844 5.34814 98.7181 5.34814C99.7518 5.34814 100.671 5.57333 101.475 6.08C102.279 6.58666 102.853 7.20592 103.312 8.10666C103.772 8.95111 103.944 9.96444 103.944 11.0904C103.944 12.2163 103.714 13.2296 103.312 14.0741C102.91 14.9185 102.279 15.5941 101.475 16.0444C100.671 16.4948 99.8092 16.7763 98.7181 16.7763ZM98.7181 14.9748C99.4072 14.9748 99.9815 14.8059 100.441 14.4118C100.9 14.0741 101.245 13.5674 101.475 13.0044C101.704 12.4415 101.819 11.7659 101.819 11.0341C101.819 10.3022 101.704 9.68296 101.475 9.0637C101.245 8.44444 100.9 7.99407 100.441 7.65629C99.9815 7.31852 99.4072 7.09333 98.7181 7.09333C98.029 7.09333 97.4547 7.26222 96.9953 7.65629C96.5358 7.99407 96.1913 8.50074 95.9616 9.0637C95.7319 9.62666 95.617 10.3022 95.617 11.0341C95.617 11.7659 95.7319 12.3852 95.9616 13.0044C96.1913 13.5674 96.5358 14.0741 96.9953 14.4118C97.4547 14.8059 98.029 14.9748 98.7181 14.9748Z" fill="black"/>
<path d="M107.562 3.77185C107.16 3.77185 106.873 3.65926 106.586 3.37778C106.299 3.15259 106.184 2.81481 106.184 2.47704C106.184 2.13926 106.299 1.80148 106.586 1.57629C106.873 1.35111 107.16 1.18222 107.562 1.18222C107.964 1.18222 108.251 1.29481 108.538 1.57629C108.825 1.85778 108.94 2.13926 108.94 2.47704C108.94 2.81481 108.825 3.15259 108.538 3.37778C108.251 3.65926 107.906 3.77185 107.562 3.77185ZM106.413 16.5511V5.51704H108.596V16.5511H106.413Z" fill="black"/>
<path d="M113.764 9.96445V16.5511H111.582V5.51704H113.707V7.31852H113.822C114.051 6.75556 114.511 6.24889 115.028 5.91112C115.602 5.57334 116.291 5.40445 117.152 5.40445C117.899 5.40445 118.588 5.57334 119.162 5.85482C119.737 6.1926 120.196 6.64297 120.483 7.26223C120.77 7.88149 120.943 8.66963 120.943 9.57038V16.6074H118.76V9.85186C118.76 9.06371 118.531 8.44445 118.129 7.99408C117.727 7.54371 117.095 7.31852 116.348 7.31852C115.832 7.31852 115.372 7.43112 114.97 7.6563C114.568 7.88149 114.281 8.16297 114.051 8.61334C113.822 9.06371 113.764 9.40149 113.764 9.96445Z" fill="black"/>
<path d="M56.0494 25.3896C55.9919 24.7141 55.6474 24.1511 55.0731 23.8133C54.4988 23.4193 53.8097 23.2504 52.9483 23.2504C52.3166 23.2504 51.7997 23.363 51.3403 23.5319C50.8809 23.7007 50.5363 23.9822 50.3066 24.32C50.0769 24.6578 49.9046 25.0519 49.9046 25.4459C49.9046 25.7837 50.0195 26.1215 50.1343 26.3467C50.2492 26.5719 50.5363 26.797 50.8235 26.9659C51.1106 27.1348 51.3977 27.2474 51.7423 27.4163C52.0869 27.5852 52.374 27.6415 52.6611 27.6978L54.1543 28.0919C54.6137 28.2045 55.1305 28.3733 55.6474 28.5422C56.1642 28.7111 56.6236 28.9926 57.0256 29.3304C57.4276 29.6682 57.8296 30.0622 58.0593 30.5126C58.289 30.963 58.4613 31.5259 58.4613 32.2015C58.4613 33.0459 58.2316 33.7778 57.8296 34.4533C57.4276 35.1289 56.7385 35.6356 55.9345 35.9733C55.1305 36.3674 54.0968 36.5363 52.9483 36.5363C51.7997 36.5363 50.8235 36.3674 50.0195 36.0296C49.2155 35.6919 48.5264 35.1852 48.0669 34.5096C47.6075 33.8341 47.3204 33.1022 47.3204 32.2015H49.6175C49.6749 32.7645 49.8472 33.1585 50.1343 33.5526C50.4215 33.9467 50.8235 34.1719 51.3403 34.3407C51.8572 34.5096 52.374 34.6222 52.9483 34.6222C53.58 34.6222 54.1543 34.5096 54.6711 34.3407C55.188 34.1719 55.59 33.8904 55.8771 33.4963C56.1642 33.1022 56.3365 32.7082 56.3365 32.2578C56.3365 31.8074 56.2217 31.4696 55.9345 31.1882C55.6474 30.9067 55.3602 30.6815 54.9008 30.5126C54.4414 30.3437 53.982 30.1748 53.4651 30.0059L51.6849 29.5556C50.4789 29.2178 49.5026 28.7674 48.8135 28.1482C48.1244 27.5289 47.6649 26.5719 47.6649 25.5585C47.6649 24.7141 47.8946 23.9822 48.3541 23.3067C48.8135 22.6874 49.4452 22.1807 50.2492 21.843C51.0532 21.5052 51.972 21.3363 52.9483 21.3363C53.9245 21.3363 54.8434 21.5052 55.6474 21.843C56.4514 22.1807 57.0256 22.6874 57.4851 23.3067C57.9445 23.9259 58.1742 24.6015 58.1742 25.3896H56.0494Z" fill="black"/>
<path d="M64.2615 36.48C63.5724 36.48 62.8833 36.3674 62.309 36.0859C61.7347 35.8044 61.2753 35.4667 60.9307 34.96C60.5862 34.4533 60.4139 33.8341 60.4139 33.1022C60.4139 32.483 60.5287 31.9763 60.7584 31.5822C60.9882 31.1881 61.3327 30.8504 61.7347 30.6252C62.1367 30.4 62.5961 30.2311 63.113 30.0622C63.6298 29.9496 64.1467 29.837 64.6635 29.7807C65.3527 29.7244 65.8695 29.6118 66.3289 29.6118C66.7884 29.6118 67.0755 29.4993 67.2478 29.3867C67.4201 29.2741 67.5349 29.1052 67.5349 28.8237V28.7674C67.5349 28.1481 67.3626 27.6415 67.0181 27.3037C66.6735 26.9659 66.0992 26.797 65.4101 26.797C64.721 26.797 64.0893 26.9659 63.6873 27.2474C63.2853 27.5289 62.9407 27.923 62.8258 28.317L60.7584 27.8667C60.9882 27.1911 61.3901 26.6281 61.8496 26.2341C62.309 25.84 62.8833 25.5022 63.4575 25.3333C64.0318 25.1644 64.721 25.0518 65.4101 25.0518C65.8695 25.0518 66.3289 25.1081 66.8458 25.2207C67.3626 25.3333 67.822 25.5022 68.2815 25.7837C68.7409 26.0652 69.0855 26.4593 69.3726 26.9659C69.6597 27.4726 69.7746 28.1481 69.7746 28.9363V36.2548H67.6498V34.7348H67.5349C67.3626 35.0163 67.1903 35.2978 66.9032 35.5793C66.6161 35.8607 66.2715 36.0859 65.8121 36.2548C65.4101 36.4237 64.8932 36.48 64.2615 36.48ZM64.721 34.7911C65.3527 34.7911 65.8695 34.6785 66.2715 34.4533C66.7309 34.2281 67.0181 33.8904 67.2478 33.5526C67.4775 33.2148 67.5923 32.7644 67.5923 32.3141V30.9067C67.5349 30.963 67.3626 31.0756 67.1329 31.1319C66.9032 31.1881 66.6735 31.2444 66.3864 31.3007C66.0992 31.357 65.8121 31.4133 65.5824 31.4133C65.2952 31.4696 65.0655 31.4696 64.8932 31.5259C64.4912 31.5822 64.0893 31.6948 63.7447 31.8074C63.4001 31.92 63.113 32.0889 62.8833 32.3704C62.6536 32.6519 62.5961 32.9333 62.5961 33.2711C62.5961 33.8341 62.7684 34.2281 63.2278 34.4533C63.6298 34.6222 64.1467 34.7911 64.721 34.7911Z" fill="black"/>
<path d="M78.0441 25.2207V26.9659H71.8994V25.2207H78.0441ZM73.5073 22.5185H75.6896V32.9896C75.6896 33.3837 75.747 33.7215 75.8619 33.9467C75.9767 34.1719 76.149 34.2845 76.3787 34.397C76.6084 34.5096 76.7807 34.5096 77.0678 34.5096C77.2401 34.5096 77.4124 34.5096 77.5273 34.4533C77.6421 34.397 77.757 34.397 77.8144 34.397L78.2164 36.1985C78.1015 36.2548 77.9293 36.3111 77.6996 36.3674C77.4698 36.4237 77.1827 36.4237 76.8381 36.48C76.2639 36.48 75.747 36.3674 75.2302 36.1985C74.7133 35.9733 74.3113 35.6356 74.0242 35.2415C73.737 34.7911 73.5648 34.2282 73.5648 33.5526L73.5073 22.5185Z" fill="black"/>
<path d="M87.5771 31.6948V25.2207H89.7594V36.2548H87.5771V34.3407H87.4623C87.2326 34.9037 86.7732 35.4104 86.1989 35.8044C85.6246 36.1985 84.9355 36.3674 84.074 36.3674C83.3275 36.3674 82.6958 36.1985 82.1789 35.917C81.6047 35.5793 81.2027 35.1289 80.8581 34.5096C80.5135 33.8904 80.3987 33.1022 80.3987 32.2015V25.2207H82.5809V31.9763C82.5809 32.7081 82.8106 33.3274 83.2126 33.7778C83.6146 34.2281 84.1889 34.4533 84.878 34.4533C85.28 34.4533 85.682 34.3407 86.084 34.1718C86.486 34.003 86.8306 33.6652 87.1177 33.2711C87.4623 32.8207 87.5771 32.3141 87.5771 31.6948Z" fill="black"/>
<path d="M92.7456 36.2548V25.2207H94.8704V26.9659H94.9853C95.215 26.3467 95.5596 25.8963 96.0764 25.5585C96.5933 25.2207 97.1675 25.0518 97.8567 25.0518C97.9715 25.0518 98.1438 25.0518 98.3735 25.0518C98.5458 25.0518 98.7181 25.0518 98.8329 25.1081V27.1911C98.7755 27.1911 98.6032 27.1348 98.3735 27.0785C98.1438 27.0222 97.9141 27.0222 97.6844 27.0222C97.1675 27.0222 96.7081 27.1348 96.3061 27.36C95.9041 27.5852 95.5596 27.8667 95.3298 28.2607C95.1001 28.6548 94.9853 29.0489 94.9853 29.5556V36.3111L92.7456 36.2548Z" fill="black"/>
<path d="M102.853 29.6681V36.2548H100.671V25.2207H102.795V27.0222H102.91C103.14 26.4593 103.599 25.9526 104.116 25.6148C104.691 25.277 105.38 25.0518 106.241 25.0518C106.988 25.0518 107.677 25.2207 108.251 25.5022C108.825 25.84 109.285 26.2904 109.572 26.9096C109.916 27.5289 110.031 28.317 110.031 29.2178V36.2548H107.849V29.4993C107.849 28.7111 107.619 28.0918 107.217 27.6415C106.815 27.1911 106.184 26.9659 105.437 26.9659C104.92 26.9659 104.461 27.0785 104.059 27.3037C103.657 27.5289 103.37 27.8104 103.14 28.2607C102.968 28.5985 102.853 29.1052 102.853 29.6681Z" fill="black"/>
<path d="M31.9872 8.61334L0 26.7408V28.4859L1.37826 29.2741L33.5377 11.0904V9.51408L31.9872 8.61334Z" fill="url(#paint0_linear_304_198)"/>
<path d="M3.56049 30.5126L6.48929 32.1452L33.5377 16.8889V13.5111L3.56049 30.5126Z" fill="url(#paint1_linear_304_198)"/>
<path d="M29.8049 7.37481L26.8761 5.74222L0 20.9422V24.2637L29.8049 7.37481Z" fill="url(#paint2_linear_304_198)"/>
<path d="M33.5377 22.6311V19.3096L8.67157 33.3837L11.6004 35.0726L33.5377 22.6311Z" fill="url(#paint3_linear_304_198)"/>
<path d="M13.7827 36.3111L16.7689 38L33.5378 28.4859V25.1082L13.7827 36.3111Z" fill="url(#paint4_linear_304_198)"/>
<path d="M0 15.1437V18.4652L24.6939 4.50371L21.7651 2.81482L0 15.1437Z" fill="url(#paint5_linear_304_198)"/>
<path d="M19.5828 1.5763L16.7689 0L0 9.51407V12.6667L19.5828 1.5763Z" fill="url(#paint6_linear_304_198)"/>
<path d="M21.4205 0.562958L0 12.6667V15.1437L23.6028 1.80148L21.4205 0.562958Z" fill="url(#paint7_linear_304_198)"/>
<path d="M0 20.9422L28.7138 4.67258L26.5316 3.49036L0 18.4652V20.9422Z" fill="url(#paint8_linear_304_198)"/>
<path d="M0 26.7407L33.8249 7.6L31.6426 6.36148L0 24.2637V26.7407Z" fill="url(#paint9_linear_304_198)"/>
<path d="M3.56048 30.5126L35.3754 12.4978V10.0208L1.37823 29.2741L3.56048 30.5126Z" fill="url(#paint10_linear_304_198)"/>
<path d="M8.67157 33.3837L35.3754 18.2963V15.8193L6.48932 32.1452L8.67157 33.3837Z" fill="url(#paint11_linear_304_198)"/>
<path d="M13.7827 36.3111L35.3754 24.0948V21.6178L11.6004 35.0726L13.7827 36.3111Z" fill="url(#paint12_linear_304_198)"/>
<defs>
<linearGradient id="paint0_linear_304_198" x1="-0.0322744" y1="28.4216" x2="33.1835" y2="8.85851" gradientUnits="userSpaceOnUse">
<stop stop-color="#0998F6"/>
<stop offset="1" stop-color="#39C1CB"/>
</linearGradient>
<linearGradient id="paint1_linear_304_198" x1="4.31065" y1="31.7572" x2="33.9931" y2="14.2751" gradientUnits="userSpaceOnUse">
<stop stop-color="#0998F6"/>
<stop offset="1" stop-color="#39C1CB"/>
</linearGradient>
<linearGradient id="paint2_linear_304_198" x1="-0.725023" y1="23.0233" x2="28.8005" y2="5.63369" gradientUnits="userSpaceOnUse">
<stop stop-color="#0998F6"/>
<stop offset="1" stop-color="#39C1CB"/>
</linearGradient>
<linearGradient id="paint3_linear_304_198" x1="9.42897" y1="34.6534" x2="34.0448" y2="20.1554" gradientUnits="userSpaceOnUse">
<stop stop-color="#0998F6"/>
<stop offset="1" stop-color="#39C1CB"/>
</linearGradient>
<linearGradient id="paint4_linear_304_198" x1="14.5539" y1="37.5665" x2="34.1055" y2="26.0512" gradientUnits="userSpaceOnUse">
<stop stop-color="#0998F6"/>
<stop offset="1" stop-color="#39C1CB"/>
</linearGradient>
<linearGradient id="paint5_linear_304_198" x1="-0.726935" y1="17.2275" x2="23.7301" y2="2.82301" gradientUnits="userSpaceOnUse">
<stop stop-color="#0998F6"/>
<stop offset="1" stop-color="#39C1CB"/>
</linearGradient>
<linearGradient id="paint6_linear_304_198" x1="-0.695511" y1="11.4882" x2="18.6948" y2="0.0678508" gradientUnits="userSpaceOnUse">
<stop stop-color="#0998F6"/>
<stop offset="1" stop-color="#39C1CB"/>
</linearGradient>
<linearGradient id="paint7_linear_304_198" x1="-0.538572" y1="14.2259" x2="22.8131" y2="0.472488" gradientUnits="userSpaceOnUse">
<stop offset="0.2" stop-color="#4182C3" stop-opacity="0"/>
<stop offset="0.28" stop-color="#3684CD" stop-opacity="0.18"/>
<stop offset="0.39" stop-color="#2A87DA" stop-opacity="0.4"/>
<stop offset="0.49" stop-color="#208AE5" stop-opacity="0.58"/>
<stop offset="0.6" stop-color="#188CEE" stop-opacity="0.73"/>
<stop offset="0.7" stop-color="#118DF5" stop-opacity="0.85"/>
<stop offset="0.81" stop-color="#0C8FFA" stop-opacity="0.93"/>
<stop offset="0.91" stop-color="#098FFD" stop-opacity="0.98"/>
<stop offset="1" stop-color="#0990FF"/>
</linearGradient>
<linearGradient id="paint8_linear_304_198" x1="-0.540411" y1="20.0211" x2="27.8804" y2="3.28205" gradientUnits="userSpaceOnUse">
<stop offset="0.2" stop-color="#4182C3" stop-opacity="0"/>
<stop offset="0.28" stop-color="#3684CD" stop-opacity="0.18"/>
<stop offset="0.39" stop-color="#2A87DA" stop-opacity="0.4"/>
<stop offset="0.49" stop-color="#208AE5" stop-opacity="0.58"/>
<stop offset="0.6" stop-color="#188CEE" stop-opacity="0.73"/>
<stop offset="0.7" stop-color="#118DF5" stop-opacity="0.85"/>
<stop offset="0.81" stop-color="#0C8FFA" stop-opacity="0.93"/>
<stop offset="0.91" stop-color="#098FFD" stop-opacity="0.98"/>
<stop offset="1" stop-color="#0990FF"/>
</linearGradient>
<linearGradient id="paint9_linear_304_198" x1="-0.540795" y1="25.8131" x2="32.9442" y2="6.09137" gradientUnits="userSpaceOnUse">
<stop offset="0.2" stop-color="#4182C3" stop-opacity="0"/>
<stop offset="0.28" stop-color="#3684CD" stop-opacity="0.18"/>
<stop offset="0.39" stop-color="#2A87DA" stop-opacity="0.4"/>
<stop offset="0.49" stop-color="#208AE5" stop-opacity="0.58"/>
<stop offset="0.6" stop-color="#188CEE" stop-opacity="0.73"/>
<stop offset="0.7" stop-color="#118DF5" stop-opacity="0.85"/>
<stop offset="0.81" stop-color="#0C8FFA" stop-opacity="0.93"/>
<stop offset="0.91" stop-color="#098FFD" stop-opacity="0.98"/>
<stop offset="1" stop-color="#0990FF"/>
</linearGradient>
<linearGradient id="paint10_linear_304_198" x1="1.93069" y1="30.2024" x2="35.5755" y2="10.3872" gradientUnits="userSpaceOnUse">
<stop offset="0.2" stop-color="#4182C3" stop-opacity="0"/>
<stop offset="0.28" stop-color="#3684CD" stop-opacity="0.18"/>
<stop offset="0.39" stop-color="#2A87DA" stop-opacity="0.4"/>
<stop offset="0.49" stop-color="#208AE5" stop-opacity="0.58"/>
<stop offset="0.6" stop-color="#188CEE" stop-opacity="0.73"/>
<stop offset="0.7" stop-color="#118DF5" stop-opacity="0.85"/>
<stop offset="0.81" stop-color="#0C8FFA" stop-opacity="0.93"/>
<stop offset="0.91" stop-color="#098FFD" stop-opacity="0.98"/>
<stop offset="1" stop-color="#0990FF"/>
</linearGradient>
<linearGradient id="paint11_linear_304_198" x1="7.05972" y1="33.0973" x2="35.6326" y2="16.2688" gradientUnits="userSpaceOnUse">
<stop offset="0.2" stop-color="#4182C3" stop-opacity="0"/>
<stop offset="0.28" stop-color="#3684CD" stop-opacity="0.18"/>
<stop offset="0.39" stop-color="#2A87DA" stop-opacity="0.4"/>
<stop offset="0.49" stop-color="#208AE5" stop-opacity="0.58"/>
<stop offset="0.6" stop-color="#188CEE" stop-opacity="0.73"/>
<stop offset="0.7" stop-color="#118DF5" stop-opacity="0.85"/>
<stop offset="0.81" stop-color="#0C8FFA" stop-opacity="0.93"/>
<stop offset="0.91" stop-color="#098FFD" stop-opacity="0.98"/>
<stop offset="1" stop-color="#0990FF"/>
</linearGradient>
<linearGradient id="paint12_linear_304_198" x1="12.1755" y1="35.9948" x2="35.6841" y2="22.1489" gradientUnits="userSpaceOnUse">
<stop offset="0.2" stop-color="#4182C3" stop-opacity="0"/>
<stop offset="0.28" stop-color="#3684CD" stop-opacity="0.18"/>
<stop offset="0.39" stop-color="#2A87DA" stop-opacity="0.4"/>
<stop offset="0.49" stop-color="#208AE5" stop-opacity="0.58"/>
<stop offset="0.6" stop-color="#188CEE" stop-opacity="0.73"/>
<stop offset="0.7" stop-color="#118DF5" stop-opacity="0.85"/>
<stop offset="0.81" stop-color="#0C8FFA" stop-opacity="0.93"/>
<stop offset="0.91" stop-color="#098FFD" stop-opacity="0.98"/>
<stop offset="1" stop-color="#0990FF"/>
</linearGradient>
</defs>
</svg>
