<svg width="24" height="24" viewBox="0 0 24 24" fill="none" xmlns="http://www.w3.org/2000/svg">
<g clip-path="url(#clip0_1638_4330)">
<path d="M3.9735 4.20722C4.716 4.81247 4.99725 4.76972 6.399 4.67597L19.614 3.88322C19.8952 3.88322 19.6612 3.60197 19.5667 3.55472L17.3715 1.96847C16.9537 1.63997 16.3912 1.26947 15.3165 1.35872L2.52375 2.29622C2.055 2.33897 1.96125 2.57372 2.14875 2.76122L3.9735 4.20722ZM4.76625 7.28972V21.1917C4.76625 21.938 5.1375 22.2192 5.9775 22.172L20.5012 21.332C21.3412 21.2847 21.4387 20.7732 21.4387 20.1642V6.35597C21.4387 5.74622 21.204 5.42222 20.6887 5.46947L5.51325 6.35597C4.95075 6.40322 4.767 6.67997 4.767 7.28597L4.76625 7.28972ZM19.1025 8.03147C19.1962 8.45372 19.1025 8.87147 18.6802 8.92247L17.9812 9.06347V19.325C17.3715 19.6535 16.8135 19.841 16.3485 19.841C15.5985 19.841 15.411 19.6062 14.8522 18.9072L10.2742 11.72V18.6732L11.7232 19.0017C11.7232 19.0017 11.7232 19.8417 10.5555 19.8417L7.33275 20.0292C7.239 19.8417 7.33275 19.373 7.66125 19.283L8.50125 19.0482V9.85697L7.3335 9.76322C7.23975 9.34097 7.4745 8.73572 8.12625 8.68922L11.583 8.45447L16.3485 15.7355V9.29372L15.1335 9.15272C15.0397 8.64122 15.411 8.26622 15.8797 8.22272L19.1025 8.03147ZM1.44975 1.03547L14.7585 0.0552207C16.3912 -0.0857793 16.8135 0.00797072 17.8403 0.754221L22.0905 3.74222C22.7895 4.25372 23.0243 4.39472 23.0243 4.95347V21.3327C23.0243 22.3602 22.6492 22.9655 21.3442 23.0592L5.883 23.993C4.9065 24.0402 4.43775 23.8992 3.92175 23.2467L0.79275 19.184C0.234 18.4377 0 17.879 0 17.2272V2.66897C0 1.82897 0.375 1.12997 1.449 1.03622L1.44975 1.03547Z" fill="white"/>
</g>
<defs>
<clipPath id="clip0_1638_4330">
<rect width="24" height="24" fill="white"/>
</clipPath>
</defs>
</svg>
