<svg width="21" height="40" viewBox="0 0 21 40" fill="none" xmlns="http://www.w3.org/2000/svg">
<path d="M14.6218 0.717135L14.1138 0.420058C12.3278 -0.62589 10.8794 0.484143 10.8794 2.89875V17.2518L17.8557 21.3354V6.98275C17.8557 4.56998 16.4078 1.76263 14.6218 0.717135Z" fill="url(#paint0_linear_1716_4405)"/>
<path d="M14.6218 0.717135L14.1138 0.420058C12.3278 -0.62589 10.8794 0.484143 10.8794 2.89875V17.2518L17.8557 21.3354V6.98275C17.8557 4.56998 16.4078 1.76263 14.6218 0.717135Z" fill="url(#paint1_linear_1716_4405)"/>
<path d="M7.37086 23.1172L14.4501 27.2634L12.6817 28.2984L5.60059 24.1535L7.37086 23.1172Z" fill="url(#paint2_linear_1716_4405)"/>
<path d="M12.6816 28.2992V30.3723L5.59961 26.227L5.60051 24.1543L12.6816 28.2992Z" fill="url(#paint3_linear_1716_4405)"/>
<path d="M5.60084 26.2266L12.6801 30.3724L10.9117 31.4078L3.83057 27.2629L5.60084 26.2266Z" fill="url(#paint4_linear_1716_4405)"/>
<path d="M10.9116 31.4076V33.4803L3.82959 29.3349L3.83049 27.2627L10.9116 31.4076Z" fill="url(#paint5_linear_1716_4405)"/>
<path d="M3.83131 29.335L10.9106 33.4812L9.14212 34.5162L2.06104 30.3713L3.83131 29.335Z" fill="url(#paint6_linear_1716_4405)"/>
<path d="M9.14205 34.516V36.5891L2.06006 32.4433L2.06096 30.3711L9.14205 34.516Z" fill="url(#paint7_linear_1716_4405)"/>
<path d="M2.06129 32.4434L9.14057 36.5892L7.3721 37.6246L0.291016 33.4792L2.06129 32.4434Z" fill="url(#paint8_linear_1716_4405)"/>
<path d="M7.37086 23.1172L14.4501 27.2634L12.6817 28.2984L5.60059 24.1535L7.37086 23.1172Z" fill="url(#paint9_linear_1716_4405)"/>
<path d="M5.60084 26.2266L12.6801 30.3724L10.9117 31.4078L3.83057 27.2629L5.60084 26.2266Z" fill="url(#paint10_linear_1716_4405)"/>
<path d="M3.83131 29.335L10.9106 33.4812L9.14212 34.5162L2.06104 30.3713L3.83131 29.335Z" fill="url(#paint11_linear_1716_4405)"/>
<path d="M2.06129 32.4434L9.14057 36.5892L7.3721 37.6246L0.291016 33.4792L2.06129 32.4434Z" fill="url(#paint12_linear_1716_4405)"/>
<path d="M7.37203 37.6248V39.6975L0.290039 35.5522L0.290943 33.4795L7.37203 37.6248Z" fill="url(#paint13_linear_1716_4405)"/>
<path d="M7.37207 39.6976V37.625L9.14054 36.5896L9.14189 34.516L10.9104 33.481L10.9117 31.4074L12.6802 30.372L12.6815 28.2984L14.45 27.2635L14.4514 25.1899L16.2198 24.1544L16.2212 22.0809L17.9896 21.0459L17.9914 33.4792L7.37207 39.6976Z" fill="url(#paint14_linear_1716_4405)"/>
<path d="M17.9897 21.0465L16.2212 22.082L9.14014 17.9366L17.856 12.7559L17.9897 21.0465Z" fill="url(#paint15_linear_1716_4405)"/>
<path d="M17.9897 21.0465L16.2212 22.082L9.14014 17.9366L17.856 12.7559L17.9897 21.0465Z" fill="url(#paint16_linear_1716_4405)"/>
<path d="M16.2211 22.0804V24.1536L9.13916 20.0082L9.14006 17.9355L16.2211 22.0804Z" fill="url(#paint17_linear_1716_4405)"/>
<path d="M16.2211 22.0804V24.1536L9.13916 20.0082L9.14006 17.9355L16.2211 22.0804Z" fill="url(#paint18_linear_1716_4405)"/>
<path d="M14.4511 25.1898V27.2625L7.36914 23.1171L7.37004 21.0449L14.4511 25.1898Z" fill="url(#paint19_linear_1716_4405)"/>
<path d="M12.6816 28.2992V30.3723L5.59961 26.227L5.60051 24.1543L12.6816 28.2992Z" fill="url(#paint20_linear_1716_4405)"/>
<path d="M10.9116 31.4076V33.4803L3.82959 29.3349L3.83049 27.2627L10.9116 31.4076Z" fill="url(#paint21_linear_1716_4405)"/>
<path d="M9.14205 34.516V36.5891L2.06006 32.4433L2.06096 30.3711L9.14205 34.516Z" fill="url(#paint22_linear_1716_4405)"/>
<path d="M7.37203 37.6248V39.6975L0.290039 35.5522L0.290943 33.4795L7.37203 37.6248Z" fill="url(#paint23_linear_1716_4405)"/>
<path d="M14.4511 25.1898V27.2625L7.36914 23.1171L7.37004 21.0449L14.4511 25.1898Z" fill="url(#paint24_linear_1716_4405)"/>
<path d="M9.14039 20.0088L16.2197 24.1546L14.4512 25.19L7.37012 21.0451L9.14039 20.0088Z" fill="url(#paint25_linear_1716_4405)"/>
<path d="M9.14039 20.0088L16.2197 24.1546L14.4512 25.19L7.37012 21.0451L9.14039 20.0088Z" fill="url(#paint26_linear_1716_4405)"/>
<path d="M13.8491 17.5119C16.0134 17.5119 17.768 15.733 17.768 13.5387C17.768 11.3443 16.0134 9.56543 13.8491 9.56543C11.6847 9.56543 9.93018 11.3443 9.93018 13.5387C9.93018 15.733 11.6847 17.5119 13.8491 17.5119Z" fill="url(#paint27_linear_1716_4405)"/>
<path d="M13.8491 17.5119C16.0134 17.5119 17.768 15.733 17.768 13.5387C17.768 11.3443 16.0134 9.56543 13.8491 9.56543C11.6847 9.56543 9.93018 11.3443 9.93018 13.5387C9.93018 15.733 11.6847 17.5119 13.8491 17.5119Z" fill="#F2DCC2"/>
<path style="mix-blend-mode:lighten" d="M13.6093 20.408C17.3782 20.408 20.4335 17.3103 20.4335 13.4891C20.4335 9.66797 17.3782 6.57031 13.6093 6.57031C9.84045 6.57031 6.78516 9.66797 6.78516 13.4891C6.78516 17.3103 9.84045 20.408 13.6093 20.408Z" fill="url(#paint28_radial_1716_4405)"/>
<defs>
<linearGradient id="paint0_linear_1716_4405" x1="10.8794" y1="10.6809" x2="17.8557" y2="10.6809" gradientUnits="userSpaceOnUse">
<stop stop-color="#A82D65" stop-opacity="0.8"/>
<stop offset="0.06" stop-color="#9B295C" stop-opacity="0.82"/>
<stop offset="0.33" stop-color="#6D1C3B" stop-opacity="0.9"/>
<stop offset="0.58" stop-color="#4B1324" stop-opacity="0.95"/>
<stop offset="0.81" stop-color="#370D16" stop-opacity="0.99"/>
<stop offset="1" stop-color="#300B11"/>
</linearGradient>
<linearGradient id="paint1_linear_1716_4405" x1="10.8794" y1="10.6809" x2="17.8557" y2="10.6809" gradientUnits="userSpaceOnUse">
<stop stop-color="#A82D65" stop-opacity="0.8"/>
<stop offset="0.03" stop-color="#A02B5F" stop-opacity="0.81"/>
<stop offset="0.18" stop-color="#771F43" stop-opacity="0.88"/>
<stop offset="0.35" stop-color="#58162D" stop-opacity="0.93"/>
<stop offset="0.53" stop-color="#41101D" stop-opacity="0.97"/>
<stop offset="0.73" stop-color="#340C14" stop-opacity="0.99"/>
<stop offset="1" stop-color="#300B11"/>
</linearGradient>
<linearGradient id="paint2_linear_1716_4405" x1="5.60059" y1="25.708" x2="14.4501" y2="25.708" gradientUnits="userSpaceOnUse">
<stop stop-color="#FF8059" stop-opacity="0.8"/>
<stop offset="1" stop-color="#A82D65"/>
</linearGradient>
<linearGradient id="paint3_linear_1716_4405" x1="5.59961" y1="27.2633" x2="12.6816" y2="27.2633" gradientUnits="userSpaceOnUse">
<stop stop-color="#A82D65" stop-opacity="0.8"/>
<stop offset="0.44" stop-color="#711E3F" stop-opacity="0.89"/>
<stop offset="1" stop-color="#300B11"/>
</linearGradient>
<linearGradient id="paint4_linear_1716_4405" x1="3.83057" y1="28.8169" x2="12.6801" y2="28.8169" gradientUnits="userSpaceOnUse">
<stop stop-color="#FF8059" stop-opacity="0.8"/>
<stop offset="1" stop-color="#A82D65"/>
</linearGradient>
<linearGradient id="paint5_linear_1716_4405" x1="3.82959" y1="30.3712" x2="10.9116" y2="30.3712" gradientUnits="userSpaceOnUse">
<stop stop-color="#A82D65" stop-opacity="0.8"/>
<stop offset="0.44" stop-color="#711E3F" stop-opacity="0.89"/>
<stop offset="1" stop-color="#300B11"/>
</linearGradient>
<linearGradient id="paint6_linear_1716_4405" x1="2.06104" y1="31.9258" x2="10.9106" y2="31.9258" gradientUnits="userSpaceOnUse">
<stop stop-color="#FF8059" stop-opacity="0.8"/>
<stop offset="1" stop-color="#A82D65"/>
</linearGradient>
<linearGradient id="paint7_linear_1716_4405" x1="2.06006" y1="33.4801" x2="9.14205" y2="33.4801" gradientUnits="userSpaceOnUse">
<stop stop-color="#A82D65" stop-opacity="0.8"/>
<stop offset="0.44" stop-color="#711E3F" stop-opacity="0.89"/>
<stop offset="1" stop-color="#300B11"/>
</linearGradient>
<linearGradient id="paint8_linear_1716_4405" x1="0.291016" y1="35.0337" x2="9.14057" y2="35.0337" gradientUnits="userSpaceOnUse">
<stop stop-color="#FF8059" stop-opacity="0.8"/>
<stop offset="1" stop-color="#A82D65"/>
</linearGradient>
<linearGradient id="paint9_linear_1716_4405" x1="5.60059" y1="25.708" x2="14.4501" y2="25.708" gradientUnits="userSpaceOnUse">
<stop stop-color="#FF8059" stop-opacity="0.8"/>
<stop offset="0.05" stop-color="#F8795A" stop-opacity="0.82"/>
<stop offset="0.43" stop-color="#CC5060" stop-opacity="0.92"/>
<stop offset="0.76" stop-color="#B23664" stop-opacity="0.98"/>
<stop offset="1" stop-color="#A82D65"/>
</linearGradient>
<linearGradient id="paint10_linear_1716_4405" x1="3.83057" y1="28.8169" x2="12.6801" y2="28.8169" gradientUnits="userSpaceOnUse">
<stop stop-color="#FF8059" stop-opacity="0.8"/>
<stop offset="0.05" stop-color="#F8795A" stop-opacity="0.82"/>
<stop offset="0.43" stop-color="#CC5060" stop-opacity="0.92"/>
<stop offset="0.76" stop-color="#B23664" stop-opacity="0.98"/>
<stop offset="1" stop-color="#A82D65"/>
</linearGradient>
<linearGradient id="paint11_linear_1716_4405" x1="2.06104" y1="31.9258" x2="10.9106" y2="31.9258" gradientUnits="userSpaceOnUse">
<stop stop-color="#FF8059" stop-opacity="0.8"/>
<stop offset="0.05" stop-color="#F8795A" stop-opacity="0.82"/>
<stop offset="0.43" stop-color="#CC5060" stop-opacity="0.92"/>
<stop offset="0.76" stop-color="#B23664" stop-opacity="0.98"/>
<stop offset="1" stop-color="#A82D65"/>
</linearGradient>
<linearGradient id="paint12_linear_1716_4405" x1="0.291016" y1="35.0337" x2="9.14057" y2="35.0337" gradientUnits="userSpaceOnUse">
<stop stop-color="#FF8059" stop-opacity="0.8"/>
<stop offset="0.05" stop-color="#F8795A" stop-opacity="0.82"/>
<stop offset="0.43" stop-color="#CC5060" stop-opacity="0.92"/>
<stop offset="0.76" stop-color="#B23664" stop-opacity="0.98"/>
<stop offset="1" stop-color="#A82D65"/>
</linearGradient>
<linearGradient id="paint13_linear_1716_4405" x1="0.290039" y1="36.5885" x2="7.37203" y2="36.5885" gradientUnits="userSpaceOnUse">
<stop stop-color="#A82D65" stop-opacity="0.8"/>
<stop offset="0.44" stop-color="#711E3F" stop-opacity="0.89"/>
<stop offset="1" stop-color="#300B11"/>
</linearGradient>
<linearGradient id="paint14_linear_1716_4405" x1="7.37207" y1="30.372" x2="17.9914" y2="30.372" gradientUnits="userSpaceOnUse">
<stop stop-color="#A82D65" stop-opacity="0.8"/>
<stop offset="0.44" stop-color="#711E3F" stop-opacity="0.89"/>
<stop offset="1" stop-color="#300B11"/>
</linearGradient>
<linearGradient id="paint15_linear_1716_4405" x1="9.14014" y1="17.4189" x2="17.9901" y2="17.4189" gradientUnits="userSpaceOnUse">
<stop stop-color="#FF8059" stop-opacity="0.8"/>
<stop offset="0.66" stop-color="#C04462" stop-opacity="0.94"/>
<stop offset="1" stop-color="#A82D65"/>
</linearGradient>
<linearGradient id="paint16_linear_1716_4405" x1="9.14014" y1="17.4189" x2="17.9901" y2="17.4189" gradientUnits="userSpaceOnUse">
<stop stop-color="#FF8059" stop-opacity="0.8"/>
<stop offset="0.24" stop-color="#F7785A" stop-opacity="0.82"/>
<stop offset="0.54" stop-color="#E0635D" stop-opacity="0.87"/>
<stop offset="0.87" stop-color="#BB3F62" stop-opacity="0.96"/>
<stop offset="1" stop-color="#A82D65"/>
</linearGradient>
<linearGradient id="paint17_linear_1716_4405" x1="9.13916" y1="21.0446" x2="16.2211" y2="21.0446" gradientUnits="userSpaceOnUse">
<stop stop-color="#A82D65" stop-opacity="0.8"/>
<stop offset="0.44" stop-color="#711E3F" stop-opacity="0.89"/>
<stop offset="1" stop-color="#300B11"/>
</linearGradient>
<linearGradient id="paint18_linear_1716_4405" x1="9.13916" y1="21.0446" x2="16.2211" y2="21.0446" gradientUnits="userSpaceOnUse">
<stop stop-color="#A82D65" stop-opacity="0.8"/>
<stop offset="0.44" stop-color="#711E3F" stop-opacity="0.89"/>
<stop offset="1" stop-color="#300B11"/>
</linearGradient>
<linearGradient id="paint19_linear_1716_4405" x1="7.36914" y1="24.1539" x2="14.4511" y2="24.1539" gradientUnits="userSpaceOnUse">
<stop stop-color="#A82D65" stop-opacity="0.8"/>
<stop offset="0.44" stop-color="#711E3F" stop-opacity="0.89"/>
<stop offset="1" stop-color="#300B11"/>
</linearGradient>
<linearGradient id="paint20_linear_1716_4405" x1="5.59961" y1="27.2633" x2="12.6816" y2="27.2633" gradientUnits="userSpaceOnUse">
<stop stop-color="#A82D65" stop-opacity="0.8"/>
<stop offset="0.44" stop-color="#711E3F" stop-opacity="0.89"/>
<stop offset="1" stop-color="#300B11"/>
</linearGradient>
<linearGradient id="paint21_linear_1716_4405" x1="3.82959" y1="30.3712" x2="10.9116" y2="30.3712" gradientUnits="userSpaceOnUse">
<stop stop-color="#A82D65" stop-opacity="0.8"/>
<stop offset="0.44" stop-color="#711E3F" stop-opacity="0.89"/>
<stop offset="1" stop-color="#300B11"/>
</linearGradient>
<linearGradient id="paint22_linear_1716_4405" x1="2.06006" y1="33.4801" x2="9.14205" y2="33.4801" gradientUnits="userSpaceOnUse">
<stop stop-color="#A82D65" stop-opacity="0.8"/>
<stop offset="0.44" stop-color="#711E3F" stop-opacity="0.89"/>
<stop offset="1" stop-color="#300B11"/>
</linearGradient>
<linearGradient id="paint23_linear_1716_4405" x1="0.290039" y1="36.5885" x2="7.37203" y2="36.5885" gradientUnits="userSpaceOnUse">
<stop stop-color="#A82D65" stop-opacity="0.8"/>
<stop offset="0.44" stop-color="#711E3F" stop-opacity="0.89"/>
<stop offset="1" stop-color="#300B11"/>
</linearGradient>
<linearGradient id="paint24_linear_1716_4405" x1="7.36914" y1="24.1539" x2="14.4511" y2="24.1539" gradientUnits="userSpaceOnUse">
<stop stop-color="#A82D65" stop-opacity="0.8"/>
<stop offset="0.44" stop-color="#711E3F" stop-opacity="0.89"/>
<stop offset="1" stop-color="#300B11"/>
</linearGradient>
<linearGradient id="paint25_linear_1716_4405" x1="7.37012" y1="22.5992" x2="16.2197" y2="22.5992" gradientUnits="userSpaceOnUse">
<stop stop-color="#FF8059" stop-opacity="0.8"/>
<stop offset="0.24" stop-color="#F7785A" stop-opacity="0.82"/>
<stop offset="0.54" stop-color="#E0635D" stop-opacity="0.87"/>
<stop offset="0.87" stop-color="#BB3F62" stop-opacity="0.96"/>
<stop offset="1" stop-color="#A82D65"/>
</linearGradient>
<linearGradient id="paint26_linear_1716_4405" x1="7.37012" y1="22.5992" x2="16.2197" y2="22.5992" gradientUnits="userSpaceOnUse">
<stop stop-color="#FF8059" stop-opacity="0.8"/>
<stop offset="1" stop-color="#A82D65"/>
</linearGradient>
<linearGradient id="paint27_linear_1716_4405" x1="9.93018" y1="13.5387" x2="17.768" y2="13.5387" gradientUnits="userSpaceOnUse">
<stop stop-color="#FF8059" stop-opacity="0.8"/>
<stop offset="0.15" stop-color="#EA6C5C" stop-opacity="0.85"/>
<stop offset="0.46" stop-color="#C64961" stop-opacity="0.93"/>
<stop offset="0.75" stop-color="#B03464" stop-opacity="0.98"/>
<stop offset="1" stop-color="#A82D65"/>
</linearGradient>
<radialGradient id="paint28_radial_1716_4405" cx="0" cy="0" r="1" gradientUnits="userSpaceOnUse" gradientTransform="translate(13.6093 13.4891) scale(6.82419 6.91882)">
<stop stop-color="#EA9980"/>
<stop offset="0.05" stop-color="#EBA088" stop-opacity="0.94"/>
<stop offset="0.32" stop-color="#F2C1B2" stop-opacity="0.61"/>
<stop offset="0.55" stop-color="#F8DCD3" stop-opacity="0.35"/>
<stop offset="0.75" stop-color="#FCEFEB" stop-opacity="0.16"/>
<stop offset="0.91" stop-color="#FEFBFA" stop-opacity="0.04"/>
<stop offset="1" stop-color="white" stop-opacity="0"/>
</radialGradient>
</defs>
</svg>
