<svg width="24" height="25" viewBox="0 0 24 25" fill="none" xmlns="http://www.w3.org/2000/svg">
<g clip-path="url(#clip0_2467_5237)">
<path d="M12.8154 22.5954L12.8157 21.1907L15.2484 22.5954V23.9999L12.8154 22.5954Z" fill="url(#paint0_linear_2467_5237)"/>
<path d="M12.8157 21.1909L14.0319 20.4888L16.4646 21.8932L15.2484 22.5956L12.8157 21.1909Z" fill="url(#paint1_linear_2467_5237)"/>
<path d="M14.032 19.084L15.2485 18.3816L17.6812 19.7863L16.465 20.4887L14.032 19.084Z" fill="url(#paint2_linear_2467_5237)"/>
<path d="M15.2483 15.5726L20.114 12.7634L22.5467 14.1679L17.681 16.9771L15.2483 15.5726Z" fill="url(#paint3_linear_2467_5237)"/>
<path d="M14.032 20.4887V19.084L16.4647 20.4887V21.8932L14.032 20.4887Z" fill="url(#paint4_linear_2467_5237)"/>
<path d="M15.2483 18.3817V15.5728L17.681 16.9772V19.7864L15.2483 18.3817Z" fill="url(#paint5_linear_2467_5237)"/>
<path d="M15.2483 24.0001V22.5956L16.4645 21.8932V20.4888L17.681 19.7864V16.9772L22.5467 14.168V19.7864L15.2483 24.0001Z" fill="url(#paint6_linear_2467_5237)"/>
<path d="M15.2483 24.0001V22.5956L16.4645 21.8932V20.4888L17.681 19.7864V16.9772L22.5467 14.168V19.7864L15.2483 24.0001Z" fill="url(#paint7_linear_2467_5237)"/>
<path d="M4.64941 9.15035L7.08211 7.74561L11.9478 10.5545L16.8138 7.74561L19.2462 9.15035L11.9478 13.364L4.64941 9.15035Z" fill="url(#paint8_linear_2467_5237)"/>
<path d="M4.64941 9.15035L7.08211 7.74561L11.9478 10.5545L16.8138 7.74561L19.2462 9.15035L11.9478 13.364L4.64941 9.15035Z" fill="url(#paint9_linear_2467_5237)"/>
<path d="M19.2461 9.15015V11.9594L14.3805 14.7686V17.5775L13.1642 18.2799V19.6846L11.9478 20.3867V13.3638L19.2461 9.15015Z" fill="url(#paint10_linear_2467_5237)"/>
<path d="M19.2461 9.15015V11.9594L14.3805 14.7686V17.5775L13.1642 18.2799V19.6846L11.9478 20.3867V13.3638L19.2461 9.15015Z" fill="url(#paint11_linear_2467_5237)"/>
<path d="M4.64941 9.15015V11.9594L9.51481 14.7686V17.5775L10.7313 18.2799V19.6846L11.9475 20.3867L11.9478 13.3638L4.64941 9.15015Z" fill="url(#paint12_linear_2467_5237)"/>
<path d="M4.64941 9.15015V11.9594L9.51481 14.7686V17.5775L10.7313 18.2799V19.6846L11.9475 20.3867L11.9478 13.3638L4.64941 9.15015Z" fill="url(#paint13_linear_2467_5237)"/>
<path d="M10.7313 22.4936L10.731 21.0889L8.29834 22.4936V23.8984L10.7313 22.4936Z" fill="url(#paint14_linear_2467_5237)"/>
<path d="M10.7312 21.0888L9.51497 20.3867L7.08228 21.7912L8.29848 22.4936L10.7312 21.0888Z" fill="url(#paint15_linear_2467_5237)"/>
<path d="M9.51491 18.9821L8.29842 18.28L5.86572 19.6845L7.08221 20.3869L9.51491 18.9821Z" fill="url(#paint16_linear_2467_5237)"/>
<path d="M8.29838 15.4708L3.43298 12.6616L1 14.0661L5.86568 16.8753L8.29838 15.4708Z" fill="url(#paint17_linear_2467_5237)"/>
<path d="M9.51497 20.3869V18.9822L7.08228 20.3869V21.7914L9.51497 20.3869Z" fill="url(#paint18_linear_2467_5237)"/>
<path d="M8.29842 18.2799V15.4707L5.86572 16.8752V19.6844L8.29842 18.2799Z" fill="url(#paint19_linear_2467_5237)"/>
<path d="M8.29838 23.8983V22.4936L7.08217 21.7912V20.3867L5.86568 19.6843V16.8751L1 14.0659V19.6843L8.29838 23.8983Z" fill="url(#paint20_linear_2467_5237)"/>
<path d="M8.29834 5.63867L8.29862 7.04314L11.9478 9.14998V7.74551L8.29834 5.63867Z" fill="url(#paint21_linear_2467_5237)"/>
<path d="M8.29834 5.63867L8.29862 7.04314L11.9478 9.14998V7.74551L8.29834 5.63867Z" fill="url(#paint22_linear_2467_5237)"/>
<path d="M15.5969 5.63892V7.04338L11.9478 9.15022V7.74575L15.5969 5.63892Z" fill="url(#paint23_linear_2467_5237)"/>
<path d="M15.5969 5.63892V7.04338L11.9478 9.15022V7.74575L15.5969 5.63892Z" fill="url(#paint24_linear_2467_5237)"/>
<path d="M8.29834 5.63858L11.9478 3.53174L15.597 5.63886L11.9478 7.7457L8.29834 5.63858Z" fill="url(#paint25_linear_2467_5237)"/>
<path d="M8.29834 5.63858L11.9478 3.53174L15.597 5.63886L11.9478 7.7457L8.29834 5.63858Z" fill="url(#paint26_linear_2467_5237)"/>
<path d="M12.163 5.97401C13.1699 5.97401 13.9862 5.15774 13.9862 4.15082C13.9862 3.14391 13.1699 2.32764 12.163 2.32764C11.1561 2.32764 10.3398 3.14391 10.3398 4.15082C10.3398 5.15774 11.1561 5.97401 12.163 5.97401Z" fill="url(#paint27_linear_2467_5237)"/>
<path d="M12.163 5.97401C13.1699 5.97401 13.9862 5.15774 13.9862 4.15082C13.9862 3.14391 13.1699 2.32764 12.163 2.32764C11.1561 2.32764 10.3398 3.14391 10.3398 4.15082C10.3398 5.15774 11.1561 5.97401 12.163 5.97401Z" fill="#F2DCC2"/>
<path style="mix-blend-mode:lighten" d="M12.163 8.50671C14.5121 8.50671 16.4164 6.60242 16.4164 4.25335C16.4164 1.90429 14.5121 0 12.163 0C9.81396 0 7.90967 1.90429 7.90967 4.25335C7.90967 6.60242 9.81396 8.50671 12.163 8.50671Z" fill="url(#paint28_radial_2467_5237)"/>
</g>
<defs>
<linearGradient id="paint0_linear_2467_5237" x1="13.728" y1="23.1222" x2="14.3361" y2="22.0686" gradientUnits="userSpaceOnUse">
<stop stop-color="#A82D65" stop-opacity="0.8"/>
<stop offset="0.11" stop-color="#912755" stop-opacity="0.84"/>
<stop offset="0.34" stop-color="#671B37" stop-opacity="0.91"/>
<stop offset="0.57" stop-color="#481222" stop-opacity="0.96"/>
<stop offset="0.8" stop-color="#360D15" stop-opacity="0.99"/>
<stop offset="1" stop-color="#300B11"/>
</linearGradient>
<linearGradient id="paint1_linear_2467_5237" x1="12.8157" y1="21.542" x2="16.4646" y2="21.542" gradientUnits="userSpaceOnUse">
<stop stop-color="#FF8059" stop-opacity="0.8"/>
<stop offset="0.39" stop-color="#D2555F" stop-opacity="0.9"/>
<stop offset="0.76" stop-color="#B33863" stop-opacity="0.97"/>
<stop offset="1" stop-color="#A82D65"/>
</linearGradient>
<linearGradient id="paint2_linear_2467_5237" x1="2517.23" y1="1529.67" x2="2990.46" y2="1529.67" gradientUnits="userSpaceOnUse">
<stop stop-color="#FF8059" stop-opacity="0.8"/>
<stop offset="0.39" stop-color="#D2555F" stop-opacity="0.9"/>
<stop offset="0.76" stop-color="#B33863" stop-opacity="0.97"/>
<stop offset="1" stop-color="#A82D65"/>
</linearGradient>
<linearGradient id="paint3_linear_2467_5237" x1="5337.15" y1="2351.4" x2="7230.06" y2="2351.4" gradientUnits="userSpaceOnUse">
<stop stop-color="#FF8059" stop-opacity="0.8"/>
<stop offset="0.39" stop-color="#D2555F" stop-opacity="0.9"/>
<stop offset="0.76" stop-color="#B33863" stop-opacity="0.97"/>
<stop offset="1" stop-color="#A82D65"/>
</linearGradient>
<linearGradient id="paint4_linear_2467_5237" x1="14.9443" y1="21.0155" x2="15.5527" y2="19.962" gradientUnits="userSpaceOnUse">
<stop stop-color="#A82D65" stop-opacity="0.8"/>
<stop offset="0.03" stop-color="#9F2A5E" stop-opacity="0.82"/>
<stop offset="0.18" stop-color="#771F42" stop-opacity="0.88"/>
<stop offset="0.35" stop-color="#57162D" stop-opacity="0.93"/>
<stop offset="0.53" stop-color="#41101D" stop-opacity="0.97"/>
<stop offset="0.73" stop-color="#340C14" stop-opacity="0.99"/>
<stop offset="1" stop-color="#300B11"/>
</linearGradient>
<linearGradient id="paint5_linear_2467_5237" x1="1841.72" y1="2932.58" x2="2052.05" y2="2722.27" gradientUnits="userSpaceOnUse">
<stop stop-color="#A82D65" stop-opacity="0.8"/>
<stop offset="0.03" stop-color="#9F2A5E" stop-opacity="0.82"/>
<stop offset="0.18" stop-color="#771F42" stop-opacity="0.88"/>
<stop offset="0.35" stop-color="#57162D" stop-opacity="0.93"/>
<stop offset="0.53" stop-color="#41101D" stop-opacity="0.97"/>
<stop offset="0.73" stop-color="#340C14" stop-opacity="0.99"/>
<stop offset="1" stop-color="#300B11"/>
</linearGradient>
<linearGradient id="paint6_linear_2467_5237" x1="5337.15" y1="6943.34" x2="7230.06" y2="6943.34" gradientUnits="userSpaceOnUse">
<stop stop-color="#A82D65" stop-opacity="0.8"/>
<stop offset="0.03" stop-color="#9F2A5E" stop-opacity="0.82"/>
<stop offset="0.18" stop-color="#771F42" stop-opacity="0.88"/>
<stop offset="0.35" stop-color="#57162D" stop-opacity="0.93"/>
<stop offset="0.53" stop-color="#41101D" stop-opacity="0.97"/>
<stop offset="0.73" stop-color="#340C14" stop-opacity="0.99"/>
<stop offset="1" stop-color="#300B11"/>
</linearGradient>
<linearGradient id="paint7_linear_2467_5237" x1="16.4648" y1="24.7024" x2="22.5467" y2="14.168" gradientUnits="userSpaceOnUse">
<stop stop-color="#A82D65" stop-opacity="0.8"/>
<stop offset="0.04" stop-color="#9B295C" stop-opacity="0.82"/>
<stop offset="0.19" stop-color="#741E41" stop-opacity="0.89"/>
<stop offset="0.34" stop-color="#56162B" stop-opacity="0.94"/>
<stop offset="0.51" stop-color="#40101D" stop-opacity="0.97"/>
<stop offset="0.71" stop-color="#340C14" stop-opacity="0.99"/>
<stop offset="1" stop-color="#300B11"/>
</linearGradient>
<linearGradient id="paint8_linear_2467_5237" x1="4.64913" y1="10.5548" x2="19.2462" y2="10.5548" gradientUnits="userSpaceOnUse">
<stop stop-color="#FF8059" stop-opacity="0.8"/>
<stop offset="0.01" stop-color="#FD7E59" stop-opacity="0.81"/>
<stop offset="0.23" stop-color="#D75A5E" stop-opacity="0.89"/>
<stop offset="0.46" stop-color="#BD4162" stop-opacity="0.95"/>
<stop offset="0.71" stop-color="#AD3264" stop-opacity="0.99"/>
<stop offset="1" stop-color="#A82D65"/>
</linearGradient>
<linearGradient id="paint9_linear_2467_5237" x1="4.64913" y1="10.5548" x2="19.2462" y2="10.5548" gradientUnits="userSpaceOnUse">
<stop stop-color="#FF8059" stop-opacity="0.8"/>
<stop offset="0.01" stop-color="#FD7E59" stop-opacity="0.81"/>
<stop offset="0.23" stop-color="#D75A5E" stop-opacity="0.89"/>
<stop offset="0.46" stop-color="#BD4162" stop-opacity="0.95"/>
<stop offset="0.71" stop-color="#AD3264" stop-opacity="0.99"/>
<stop offset="1" stop-color="#A82D65"/>
</linearGradient>
<linearGradient id="paint10_linear_2467_5237" x1="11.9478" y1="14.7683" x2="19.2461" y2="14.7683" gradientUnits="userSpaceOnUse">
<stop stop-color="#A82D65" stop-opacity="0.8"/>
<stop offset="0.13" stop-color="#8B2551" stop-opacity="0.85"/>
<stop offset="0.35" stop-color="#641A35" stop-opacity="0.91"/>
<stop offset="0.57" stop-color="#471121" stop-opacity="0.96"/>
<stop offset="0.79" stop-color="#360D15" stop-opacity="0.99"/>
<stop offset="1" stop-color="#300B11"/>
</linearGradient>
<linearGradient id="paint11_linear_2467_5237" x1="4477.82" y1="6204.88" x2="6370.73" y2="6204.88" gradientUnits="userSpaceOnUse">
<stop stop-color="#A82D65" stop-opacity="0.8"/>
<stop offset="0.03" stop-color="#9F2A5E" stop-opacity="0.82"/>
<stop offset="0.18" stop-color="#771F42" stop-opacity="0.88"/>
<stop offset="0.35" stop-color="#57162D" stop-opacity="0.93"/>
<stop offset="0.53" stop-color="#41101D" stop-opacity="0.97"/>
<stop offset="0.73" stop-color="#340C14" stop-opacity="0.99"/>
<stop offset="1" stop-color="#300B11"/>
</linearGradient>
<linearGradient id="paint12_linear_2467_5237" x1="2577.55" y1="6204.88" x2="4470.53" y2="6204.88" gradientUnits="userSpaceOnUse">
<stop stop-color="#A82D65" stop-opacity="0.8"/>
<stop offset="0.03" stop-color="#9F2A5E" stop-opacity="0.82"/>
<stop offset="0.18" stop-color="#771F42" stop-opacity="0.88"/>
<stop offset="0.35" stop-color="#57162D" stop-opacity="0.93"/>
<stop offset="0.53" stop-color="#41101D" stop-opacity="0.97"/>
<stop offset="0.73" stop-color="#340C14" stop-opacity="0.99"/>
<stop offset="1" stop-color="#300B11"/>
</linearGradient>
<linearGradient id="paint13_linear_2467_5237" x1="6.77792" y1="17.4019" x2="9.819" y2="12.135" gradientUnits="userSpaceOnUse">
<stop stop-color="#A82D65" stop-opacity="0.8"/>
<stop offset="0.23" stop-color="#942757" stop-opacity="0.83"/>
<stop offset="0.65" stop-color="#601933" stop-opacity="0.92"/>
<stop offset="1" stop-color="#300B11"/>
</linearGradient>
<linearGradient id="paint14_linear_2467_5237" x1="8.29834" y1="22.4936" x2="10.7313" y2="22.4936" gradientUnits="userSpaceOnUse">
<stop stop-color="#A82D65" stop-opacity="0.8"/>
<stop offset="0.05" stop-color="#A12B60" stop-opacity="0.81"/>
<stop offset="0.47" stop-color="#641A35" stop-opacity="0.91"/>
<stop offset="0.81" stop-color="#3E0F1B" stop-opacity="0.98"/>
<stop offset="1" stop-color="#300B11"/>
</linearGradient>
<linearGradient id="paint15_linear_2467_5237" x1="1608.92" y1="1681.59" x2="2082.07" y2="1681.59" gradientUnits="userSpaceOnUse">
<stop stop-color="#FF8059" stop-opacity="0.8"/>
<stop offset="0.01" stop-color="#FD7E59" stop-opacity="0.81"/>
<stop offset="0.23" stop-color="#D75A5E" stop-opacity="0.89"/>
<stop offset="0.46" stop-color="#BD4162" stop-opacity="0.95"/>
<stop offset="0.71" stop-color="#AD3264" stop-opacity="0.99"/>
<stop offset="1" stop-color="#A82D65"/>
</linearGradient>
<linearGradient id="paint16_linear_2467_5237" x1="1450.07" y1="1521.74" x2="1923.3" y2="1521.74" gradientUnits="userSpaceOnUse">
<stop stop-color="#FF8059" stop-opacity="0.8"/>
<stop offset="0.01" stop-color="#FD7E59" stop-opacity="0.81"/>
<stop offset="0.23" stop-color="#D75A5E" stop-opacity="0.89"/>
<stop offset="0.46" stop-color="#BD4162" stop-opacity="0.95"/>
<stop offset="0.71" stop-color="#AD3264" stop-opacity="0.99"/>
<stop offset="1" stop-color="#A82D65"/>
</linearGradient>
<linearGradient id="paint17_linear_2467_5237" x1="1627.44" y1="2336.04" x2="3520.35" y2="2336.04" gradientUnits="userSpaceOnUse">
<stop stop-color="#FF8059" stop-opacity="0.8"/>
<stop offset="0.01" stop-color="#FD7E59" stop-opacity="0.81"/>
<stop offset="0.23" stop-color="#D75A5E" stop-opacity="0.89"/>
<stop offset="0.46" stop-color="#BD4162" stop-opacity="0.95"/>
<stop offset="0.71" stop-color="#AD3264" stop-opacity="0.99"/>
<stop offset="1" stop-color="#A82D65"/>
</linearGradient>
<linearGradient id="paint18_linear_2467_5237" x1="1075.01" y1="2128.84" x2="1285.32" y2="2128.84" gradientUnits="userSpaceOnUse">
<stop stop-color="#A82D65" stop-opacity="0.8"/>
<stop offset="0.05" stop-color="#A12B60" stop-opacity="0.81"/>
<stop offset="0.47" stop-color="#641A35" stop-opacity="0.91"/>
<stop offset="0.81" stop-color="#3E0F1B" stop-opacity="0.98"/>
<stop offset="1" stop-color="#300B11"/>
</linearGradient>
<linearGradient id="paint19_linear_2467_5237" x1="968.63" y1="3074.98" x2="1389.26" y2="2654.35" gradientUnits="userSpaceOnUse">
<stop stop-color="#A82D65" stop-opacity="0.8"/>
<stop offset="0.05" stop-color="#A12B60" stop-opacity="0.81"/>
<stop offset="0.47" stop-color="#641A35" stop-opacity="0.91"/>
<stop offset="0.81" stop-color="#3E0F1B" stop-opacity="0.98"/>
<stop offset="1" stop-color="#300B11"/>
</linearGradient>
<linearGradient id="paint20_linear_2467_5237" x1="3.4327" y1="21.0891" x2="5.86568" y2="16.8751" gradientUnits="userSpaceOnUse">
<stop stop-color="#A82D65" stop-opacity="0.8"/>
<stop offset="0.01" stop-color="#A72D64" stop-opacity="0.8"/>
<stop offset="0.18" stop-color="#7C2046" stop-opacity="0.87"/>
<stop offset="0.36" stop-color="#5A172F" stop-opacity="0.93"/>
<stop offset="0.54" stop-color="#43101E" stop-opacity="0.97"/>
<stop offset="0.75" stop-color="#350C14" stop-opacity="0.99"/>
<stop offset="1" stop-color="#300B11"/>
</linearGradient>
<linearGradient id="paint21_linear_2467_5237" x1="1768.15" y1="1021.6" x2="2241.41" y2="1021.6" gradientUnits="userSpaceOnUse">
<stop stop-color="#A82D65" stop-opacity="0.8"/>
<stop offset="0.13" stop-color="#8B2551" stop-opacity="0.85"/>
<stop offset="0.35" stop-color="#641A35" stop-opacity="0.91"/>
<stop offset="0.57" stop-color="#471121" stop-opacity="0.96"/>
<stop offset="0.79" stop-color="#360D15" stop-opacity="0.99"/>
<stop offset="1" stop-color="#300B11"/>
</linearGradient>
<linearGradient id="paint22_linear_2467_5237" x1="1768.15" y1="1021.6" x2="2241.41" y2="1021.6" gradientUnits="userSpaceOnUse">
<stop stop-color="#A82D65" stop-opacity="0.8"/>
<stop offset="0.13" stop-color="#8B2551" stop-opacity="0.85"/>
<stop offset="0.35" stop-color="#641A35" stop-opacity="0.91"/>
<stop offset="0.57" stop-color="#471121" stop-opacity="0.96"/>
<stop offset="0.79" stop-color="#360D15" stop-opacity="0.99"/>
<stop offset="1" stop-color="#300B11"/>
</linearGradient>
<linearGradient id="paint23_linear_2467_5237" x1="2244.89" y1="1021.63" x2="2718.11" y2="1021.63" gradientUnits="userSpaceOnUse">
<stop stop-color="#A82D65" stop-opacity="0.8"/>
<stop offset="0.13" stop-color="#8B2551" stop-opacity="0.85"/>
<stop offset="0.35" stop-color="#641A35" stop-opacity="0.91"/>
<stop offset="0.57" stop-color="#471121" stop-opacity="0.96"/>
<stop offset="0.79" stop-color="#360D15" stop-opacity="0.99"/>
<stop offset="1" stop-color="#300B11"/>
</linearGradient>
<linearGradient id="paint24_linear_2467_5237" x1="2244.89" y1="1021.63" x2="2718.11" y2="1021.63" gradientUnits="userSpaceOnUse">
<stop stop-color="#A82D65" stop-opacity="0.8"/>
<stop offset="0.13" stop-color="#8B2551" stop-opacity="0.85"/>
<stop offset="0.35" stop-color="#641A35" stop-opacity="0.91"/>
<stop offset="0.57" stop-color="#471121" stop-opacity="0.96"/>
<stop offset="0.79" stop-color="#360D15" stop-opacity="0.99"/>
<stop offset="1" stop-color="#300B11"/>
</linearGradient>
<linearGradient id="paint25_linear_2467_5237" x1="3527.86" y1="959.889" x2="5420.84" y2="959.889" gradientUnits="userSpaceOnUse">
<stop stop-color="#FF8059" stop-opacity="0.8"/>
<stop offset="0.01" stop-color="#FD7E59" stop-opacity="0.81"/>
<stop offset="0.23" stop-color="#D75A5E" stop-opacity="0.89"/>
<stop offset="0.46" stop-color="#BD4162" stop-opacity="0.95"/>
<stop offset="0.71" stop-color="#AD3264" stop-opacity="0.99"/>
<stop offset="1" stop-color="#A82D65"/>
</linearGradient>
<linearGradient id="paint26_linear_2467_5237" x1="3527.86" y1="959.889" x2="5420.84" y2="959.889" gradientUnits="userSpaceOnUse">
<stop stop-color="#FF8059" stop-opacity="0.8"/>
<stop offset="0.01" stop-color="#FD7E59" stop-opacity="0.81"/>
<stop offset="0.23" stop-color="#D75A5E" stop-opacity="0.89"/>
<stop offset="0.46" stop-color="#BD4162" stop-opacity="0.95"/>
<stop offset="0.71" stop-color="#AD3264" stop-opacity="0.99"/>
<stop offset="1" stop-color="#A82D65"/>
</linearGradient>
<linearGradient id="paint27_linear_2467_5237" x1="2033.2" y1="637.088" x2="2505.7" y2="637.088" gradientUnits="userSpaceOnUse">
<stop stop-color="#FF8059" stop-opacity="0.8"/>
<stop offset="0.01" stop-color="#FD7E59" stop-opacity="0.81"/>
<stop offset="0.23" stop-color="#D75A5E" stop-opacity="0.89"/>
<stop offset="0.46" stop-color="#BD4162" stop-opacity="0.95"/>
<stop offset="0.71" stop-color="#AD3264" stop-opacity="0.99"/>
<stop offset="1" stop-color="#A82D65"/>
</linearGradient>
<radialGradient id="paint28_radial_2467_5237" cx="0" cy="0" r="1" gradientUnits="userSpaceOnUse" gradientTransform="translate(12.163 4.25335) scale(4.25335)">
<stop stop-color="#EA9980"/>
<stop offset="0.05" stop-color="#EBA088" stop-opacity="0.94"/>
<stop offset="0.32" stop-color="#F2C1B2" stop-opacity="0.61"/>
<stop offset="0.55" stop-color="#F8DCD3" stop-opacity="0.35"/>
<stop offset="0.75" stop-color="#FCEFEB" stop-opacity="0.16"/>
<stop offset="0.91" stop-color="#FEFBFA" stop-opacity="0.04"/>
<stop offset="1" stop-color="white" stop-opacity="0"/>
</radialGradient>
<clipPath id="clip0_2467_5237">
<rect width="24" height="24" fill="white" transform="translate(0 0.399902)"/>
</clipPath>
</defs>
</svg>
