<svg width="26" height="27" viewBox="0 0 26 27" fill="none" xmlns="http://www.w3.org/2000/svg">
<g clip-path="url(#clip0_4553_14340)">
<mask id="mask0_4553_14340" style="mask-type:alpha" maskUnits="userSpaceOnUse" x="0" y="0" width="26" height="27">
<path d="M25.6918 0.428223H0V26.12H25.6918V0.428223Z" fill="white"/>
</mask>
<g mask="url(#mask0_4553_14340)">
<path d="M13.7236 24.1931V22.6945L16.3249 24.1931V25.6918L13.7236 24.1931Z" fill="url(#paint0_linear_4553_14340)"/>
<path d="M13.7236 22.6837L15.0296 21.9344L17.6309 23.4331L16.3249 24.1824L13.7236 22.6837V22.6837Z" fill="url(#paint1_linear_4553_14340)"/>
<path d="M15.0189 20.425L16.3249 19.6757L18.9262 21.1743L17.6202 21.9237L15.0189 20.425V20.425Z" fill="url(#paint2_linear_4553_14340)"/>
<path d="M16.325 16.6676L21.5382 13.6595L24.1395 15.1582L18.9262 18.1663L16.325 16.6676V16.6676Z" fill="url(#paint3_linear_4553_14340)"/>
<path d="M15.0189 21.9344V20.4357L17.6202 21.9344V23.433L15.0189 21.9344V21.9344Z" fill="url(#paint4_linear_4553_14340)"/>
<path d="M16.325 19.6756V16.6675L18.9262 18.1662V21.1743L16.325 19.6756Z" fill="url(#paint5_linear_4553_14340)"/>
<path d="M16.325 25.6918V24.1931L17.631 23.4438V21.9451L18.937 21.1957V18.1876L24.1502 15.1796V21.1957L16.3357 25.7025L16.325 25.6918Z" fill="url(#paint6_linear_4553_14340)"/>
<path d="M16.325 25.6918V24.1931L17.631 23.4438V21.9451L18.937 21.1957V18.1876L24.1502 15.1796V21.1957L16.3357 25.7025L16.325 25.6918Z" fill="url(#paint7_linear_4553_14340)"/>
<path d="M4.97778 9.79501L7.57908 8.29633L12.7924 11.3044L18.0057 8.29633L20.607 9.79501L12.7924 14.3018L4.97778 9.79501V9.79501Z" fill="url(#paint8_linear_4553_14340)"/>
<path d="M4.97778 9.79501L7.57908 8.29633L12.7924 11.3044L18.0057 8.29633L20.607 9.79501L12.7924 14.3018L4.97778 9.79501V9.79501Z" fill="url(#paint9_linear_4553_14340)"/>
<path d="M20.6069 9.79498V12.8031L15.3936 15.8111V18.8192L14.0876 19.5686V21.0673L12.7816 21.8166V14.3018L20.5962 9.79498H20.6069Z" fill="url(#paint10_linear_4553_14340)"/>
<path d="M20.6069 9.79498V12.8031L15.3936 15.8111V18.8192L14.0876 19.5686V21.0673L12.7816 21.8166V14.3018L20.5962 9.79498H20.6069Z" fill="url(#paint11_linear_4553_14340)"/>
<path d="M4.97778 9.79498V12.8031L10.1911 15.8111V18.8192L11.4971 19.5686V21.0673L12.8031 21.8166V14.3018L4.98849 9.79498H4.97778Z" fill="url(#paint12_linear_4553_14340)"/>
<path d="M4.97778 9.79498V12.8031L10.1911 15.8111V18.8192L11.4971 19.5686V21.0673L12.8031 21.8166V14.3018L4.98849 9.79498H4.97778Z" fill="url(#paint13_linear_4553_14340)"/>
<path d="M11.4863 24.0753V22.5767L8.88501 24.0753V25.574L11.4863 24.0753Z" fill="url(#paint14_linear_4553_14340)"/>
<path d="M11.4863 22.5767L10.1803 21.8273L7.57898 23.326L8.88498 24.0754L11.4863 22.5767Z" fill="url(#paint15_linear_4553_14340)"/>
<path d="M10.1804 20.3179L8.87437 19.5686L6.27307 21.0673L7.57907 21.8166L10.1804 20.3179Z" fill="url(#paint16_linear_4553_14340)"/>
<path d="M8.88502 16.5605L3.67173 13.5524L1.07043 15.0511L6.28373 18.0592L8.88502 16.5605Z" fill="url(#paint17_linear_4553_14340)"/>
<path d="M10.1803 21.8273V20.3286L7.57898 21.8273V23.326L10.1803 21.8273Z" fill="url(#paint18_linear_4553_14340)"/>
<path d="M8.88499 19.5686V16.5605L6.28369 18.0592V21.0673L8.88499 19.5686Z" fill="url(#paint19_linear_4553_14340)"/>
<path d="M8.88502 25.5848V24.0861L7.57902 23.3367V21.838L6.27302 21.0887V18.0806L1.07043 15.0618V21.078L8.88502 25.5848V25.5848Z" fill="url(#paint20_linear_4553_14340)"/>
<path d="M8.88501 6.0376V7.53629L12.7923 9.79502V8.29634L8.88501 6.0376V6.0376Z" fill="url(#paint21_linear_4553_14340)"/>
<path d="M8.88501 6.0376V7.53629L12.7923 9.79502V8.29634L8.88501 6.0376V6.0376Z" fill="url(#paint22_linear_4553_14340)"/>
<path d="M16.6997 6.0376V7.53629L12.7924 9.79502V8.29634L16.6997 6.0376V6.0376Z" fill="url(#paint23_linear_4553_14340)"/>
<path d="M16.6997 6.0376V7.53629L12.7924 9.79502V8.29634L16.6997 6.0376V6.0376Z" fill="url(#paint24_linear_4553_14340)"/>
<path d="M8.88501 6.03755L12.7923 3.77881L16.6996 6.03755L12.7923 8.29628L8.88501 6.03755V6.03755Z" fill="url(#paint25_linear_4553_14340)"/>
<path d="M8.88501 6.03755L12.7923 3.77881L16.6996 6.03755L12.7923 8.29628L8.88501 6.03755V6.03755Z" fill="url(#paint26_linear_4553_14340)"/>
<path d="M13.0171 6.39085C14.0983 6.39085 14.9654 5.51305 14.9654 4.44256C14.9654 3.37207 14.0876 2.49426 13.0171 2.49426C11.9467 2.49426 11.0688 3.37207 11.0688 4.44256C11.0688 5.51305 11.9467 6.39085 13.0171 6.39085Z" fill="url(#paint27_linear_4553_14340)"/>
<path d="M13.0171 6.39085C14.0983 6.39085 14.9654 5.51305 14.9654 4.44256C14.9654 3.37207 14.0876 2.49426 13.0171 2.49426C11.9467 2.49426 11.0688 3.37207 11.0688 4.44256C11.0688 5.51305 11.9467 6.39085 13.0171 6.39085Z" fill="#D4DFFA"/>
<path d="M13.0171 9.10989C15.5328 9.10989 17.5667 7.07595 17.5667 4.5603C17.5667 2.04464 15.5328 0 13.0171 0C10.5015 0 8.46753 2.03393 8.46753 4.54959C8.46753 7.06525 10.5015 9.09918 13.0171 9.09918V9.10989Z" fill="url(#paint28_radial_4553_14340)"/>
</g>
</g>
<defs>
<linearGradient id="paint0_linear_4553_14340" x1="14.6978" y1="24.7498" x2="15.3508" y2="23.6258" gradientUnits="userSpaceOnUse">
<stop stop-color="#3CBFDF" stop-opacity="0.8"/>
<stop offset="0.11" stop-color="#37ACCD" stop-opacity="0.84"/>
<stop offset="0.34" stop-color="#2B80A3" stop-opacity="0.91"/>
<stop offset="0.57" stop-color="#216084" stop-opacity="0.96"/>
<stop offset="0.8" stop-color="#1B4972" stop-opacity="0.99"/>
<stop offset="1" stop-color="#19416C"/>
</linearGradient>
<linearGradient id="paint1_linear_4553_14340" x1="13.7236" y1="23.0584" x2="17.6202" y2="23.0584" gradientUnits="userSpaceOnUse">
<stop stop-color="#6159FF" stop-opacity="0.8"/>
<stop offset="0.39" stop-color="#609AEE" stop-opacity="0.9"/>
<stop offset="0.76" stop-color="#47B3E3" stop-opacity="0.97"/>
<stop offset="1" stop-color="#3CBFDF"/>
</linearGradient>
<linearGradient id="paint2_linear_4553_14340" x1="2694.67" y1="20.7997" x2="3201.26" y2="20.7997" gradientUnits="userSpaceOnUse">
<stop stop-color="#6159FF" stop-opacity="0.8"/>
<stop offset="0.39" stop-color="#609AEE" stop-opacity="0.9"/>
<stop offset="0.76" stop-color="#47B3E3" stop-opacity="0.97"/>
<stop offset="1" stop-color="#3CBFDF"/>
</linearGradient>
<linearGradient id="paint3_linear_4553_14340" x1="5713.37" y1="15.9182" x2="7739.72" y2="15.9182" gradientUnits="userSpaceOnUse">
<stop stop-color="#6159FF" stop-opacity="0.8"/>
<stop offset="0.39" stop-color="#609AEE" stop-opacity="0.9"/>
<stop offset="0.76" stop-color="#47B3E3" stop-opacity="0.97"/>
<stop offset="1" stop-color="#3CBFDF"/>
</linearGradient>
<linearGradient id="paint4_linear_4553_14340" x1="15.9931" y1="22.491" x2="16.6461" y2="21.367" gradientUnits="userSpaceOnUse">
<stop stop-color="#3CBFDF" stop-opacity="0.8"/>
<stop offset="0.03" stop-color="#3AB9DB" stop-opacity="0.82"/>
<stop offset="0.18" stop-color="#2F90B3" stop-opacity="0.88"/>
<stop offset="0.35" stop-color="#257193" stop-opacity="0.93"/>
<stop offset="0.53" stop-color="#1F577D" stop-opacity="0.97"/>
<stop offset="0.73" stop-color="#1A4770" stop-opacity="0.99"/>
<stop offset="1" stop-color="#19416C"/>
</linearGradient>
<linearGradient id="paint5_linear_4553_14340" x1="-565.509" y1="602.002" x2="-340.352" y2="376.867" gradientUnits="userSpaceOnUse">
<stop stop-color="#3CBFDF" stop-opacity="0.8"/>
<stop offset="0.03" stop-color="#3AB9DB" stop-opacity="0.82"/>
<stop offset="0.18" stop-color="#2F90B3" stop-opacity="0.88"/>
<stop offset="0.35" stop-color="#257193" stop-opacity="0.93"/>
<stop offset="0.53" stop-color="#1F577D" stop-opacity="0.97"/>
<stop offset="0.73" stop-color="#1A4770" stop-opacity="0.99"/>
<stop offset="1" stop-color="#19416C"/>
</linearGradient>
<linearGradient id="paint6_linear_4553_14340" x1="5713.37" y1="20.425" x2="7739.72" y2="20.425" gradientUnits="userSpaceOnUse">
<stop stop-color="#3CBFDF" stop-opacity="0.8"/>
<stop offset="0.03" stop-color="#3AB9DB" stop-opacity="0.82"/>
<stop offset="0.18" stop-color="#2F90B3" stop-opacity="0.88"/>
<stop offset="0.35" stop-color="#257193" stop-opacity="0.93"/>
<stop offset="0.53" stop-color="#1F577D" stop-opacity="0.97"/>
<stop offset="0.73" stop-color="#1A4770" stop-opacity="0.99"/>
<stop offset="1" stop-color="#19416C"/>
</linearGradient>
<linearGradient id="paint7_linear_4553_14340" x1="17.6202" y1="26.4411" x2="24.1395" y2="15.1689" gradientUnits="userSpaceOnUse">
<stop stop-color="#3CBFDF" stop-opacity="0.8"/>
<stop offset="0.04" stop-color="#39B6D7" stop-opacity="0.82"/>
<stop offset="0.19" stop-color="#2D8FB0" stop-opacity="0.89"/>
<stop offset="0.34" stop-color="#256E92" stop-opacity="0.94"/>
<stop offset="0.51" stop-color="#1F577C" stop-opacity="0.97"/>
<stop offset="0.71" stop-color="#1A4770" stop-opacity="0.99"/>
<stop offset="1" stop-color="#19416C"/>
</linearGradient>
<linearGradient id="paint8_linear_4553_14340" x1="4.97778" y1="11.2937" x2="20.607" y2="11.2937" gradientUnits="userSpaceOnUse">
<stop stop-color="#5F59FE" stop-opacity="0.81"/>
<stop offset="0.23" stop-color="#6596F0" stop-opacity="0.89"/>
<stop offset="0.46" stop-color="#4FAAE6" stop-opacity="0.95"/>
<stop offset="0.71" stop-color="#41B9E1" stop-opacity="0.99"/>
<stop offset="1" stop-color="#3CBFDF"/>
</linearGradient>
<linearGradient id="paint9_linear_4553_14340" x1="4.97778" y1="11.2937" x2="20.607" y2="11.2937" gradientUnits="userSpaceOnUse">
<stop stop-color="#5F59FE" stop-opacity="0.81"/>
<stop offset="0.23" stop-color="#6596F0" stop-opacity="0.89"/>
<stop offset="0.46" stop-color="#4FAAE6" stop-opacity="0.95"/>
<stop offset="0.71" stop-color="#41B9E1" stop-opacity="0.99"/>
<stop offset="1" stop-color="#3CBFDF"/>
</linearGradient>
<linearGradient id="paint10_linear_4553_14340" x1="12.7923" y1="15.8111" x2="20.6069" y2="15.8111" gradientUnits="userSpaceOnUse">
<stop stop-color="#3CBFDF" stop-opacity="0.8"/>
<stop offset="0.13" stop-color="#35A6C7" stop-opacity="0.85"/>
<stop offset="0.35" stop-color="#297DA0" stop-opacity="0.91"/>
<stop offset="0.57" stop-color="#1F5E83" stop-opacity="0.96"/>
<stop offset="0.79" stop-color="#1B4972" stop-opacity="0.99"/>
<stop offset="1" stop-color="#19416C"/>
</linearGradient>
<linearGradient id="paint11_linear_4553_14340" x1="4793.47" y1="15.8111" x2="6819.81" y2="15.8111" gradientUnits="userSpaceOnUse">
<stop stop-color="#3CBFDF" stop-opacity="0.8"/>
<stop offset="0.03" stop-color="#3AB9DB" stop-opacity="0.82"/>
<stop offset="0.18" stop-color="#2F90B3" stop-opacity="0.88"/>
<stop offset="0.35" stop-color="#257193" stop-opacity="0.93"/>
<stop offset="0.53" stop-color="#1F577D" stop-opacity="0.97"/>
<stop offset="0.73" stop-color="#1A4770" stop-opacity="0.99"/>
<stop offset="1" stop-color="#19416C"/>
</linearGradient>
<linearGradient id="paint12_linear_4553_14340" x1="2759.25" y1="15.8111" x2="4785.67" y2="15.8111" gradientUnits="userSpaceOnUse">
<stop stop-color="#3CBFDF" stop-opacity="0.8"/>
<stop offset="0.03" stop-color="#3AB9DB" stop-opacity="0.82"/>
<stop offset="0.18" stop-color="#2F90B3" stop-opacity="0.88"/>
<stop offset="0.35" stop-color="#257193" stop-opacity="0.93"/>
<stop offset="0.53" stop-color="#1F577D" stop-opacity="0.97"/>
<stop offset="0.73" stop-color="#1A4770" stop-opacity="0.99"/>
<stop offset="1" stop-color="#19416C"/>
</linearGradient>
<linearGradient id="paint13_linear_4553_14340" x1="7.25793" y1="18.6265" x2="10.5122" y2="12.985" gradientUnits="userSpaceOnUse">
<stop stop-color="#3CBFDF" stop-opacity="0.8"/>
<stop offset="0.23" stop-color="#37AFD0" stop-opacity="0.83"/>
<stop offset="0.65" stop-color="#297A9C" stop-opacity="0.92"/>
<stop offset="1" stop-color="#19416C"/>
</linearGradient>
<linearGradient id="paint14_linear_4553_14340" x1="8.88501" y1="24.0753" x2="11.4863" y2="24.0753" gradientUnits="userSpaceOnUse">
<stop stop-color="#3CBFDF" stop-opacity="0.8"/>
<stop offset="0.05" stop-color="#3BBBDC" stop-opacity="0.81"/>
<stop offset="0.47" stop-color="#297DA0" stop-opacity="0.91"/>
<stop offset="0.81" stop-color="#1D547A" stop-opacity="0.98"/>
<stop offset="1" stop-color="#19416C"/>
</linearGradient>
<linearGradient id="paint15_linear_4553_14340" x1="1722.34" y1="22.9513" x2="2228.84" y2="22.9513" gradientUnits="userSpaceOnUse">
<stop stop-color="#5F59FE" stop-opacity="0.81"/>
<stop offset="0.23" stop-color="#6596F0" stop-opacity="0.89"/>
<stop offset="0.46" stop-color="#4FAAE6" stop-opacity="0.95"/>
<stop offset="0.71" stop-color="#41B9E1" stop-opacity="0.99"/>
<stop offset="1" stop-color="#3CBFDF"/>
</linearGradient>
<linearGradient id="paint16_linear_4553_14340" x1="1552.29" y1="20.6926" x2="2058.88" y2="20.6926" gradientUnits="userSpaceOnUse">
<stop stop-color="#5F59FE" stop-opacity="0.81"/>
<stop offset="0.23" stop-color="#6596F0" stop-opacity="0.89"/>
<stop offset="0.46" stop-color="#4FAAE6" stop-opacity="0.95"/>
<stop offset="0.71" stop-color="#41B9E1" stop-opacity="0.99"/>
<stop offset="1" stop-color="#3CBFDF"/>
</linearGradient>
<linearGradient id="paint17_linear_4553_14340" x1="1742.16" y1="15.8111" x2="3768.51" y2="15.8111" gradientUnits="userSpaceOnUse">
<stop stop-color="#5F59FE" stop-opacity="0.81"/>
<stop offset="0.23" stop-color="#6596F0" stop-opacity="0.89"/>
<stop offset="0.46" stop-color="#4FAAE6" stop-opacity="0.95"/>
<stop offset="0.71" stop-color="#41B9E1" stop-opacity="0.99"/>
<stop offset="1" stop-color="#3CBFDF"/>
</linearGradient>
<linearGradient id="paint18_linear_4553_14340" x1="1150.79" y1="21.8166" x2="1375.92" y2="21.8166" gradientUnits="userSpaceOnUse">
<stop stop-color="#3CBFDF" stop-opacity="0.8"/>
<stop offset="0.05" stop-color="#3BBBDC" stop-opacity="0.81"/>
<stop offset="0.47" stop-color="#297DA0" stop-opacity="0.91"/>
<stop offset="0.81" stop-color="#1D547A" stop-opacity="0.98"/>
<stop offset="1" stop-color="#19416C"/>
</linearGradient>
<linearGradient id="paint19_linear_4553_14340" x1="-1114.22" y1="1140.61" x2="-663.941" y2="690.328" gradientUnits="userSpaceOnUse">
<stop stop-color="#3CBFDF" stop-opacity="0.8"/>
<stop offset="0.05" stop-color="#3BBBDC" stop-opacity="0.81"/>
<stop offset="0.47" stop-color="#297DA0" stop-opacity="0.91"/>
<stop offset="0.81" stop-color="#1D547A" stop-opacity="0.98"/>
<stop offset="1" stop-color="#19416C"/>
</linearGradient>
<linearGradient id="paint20_linear_4553_14340" x1="3.67173" y1="22.5767" x2="6.28373" y2="18.0592" gradientUnits="userSpaceOnUse">
<stop stop-color="#3CBEDE" stop-opacity="0.8"/>
<stop offset="0.18" stop-color="#2F97B8" stop-opacity="0.87"/>
<stop offset="0.36" stop-color="#267496" stop-opacity="0.93"/>
<stop offset="0.54" stop-color="#1E597F" stop-opacity="0.97"/>
<stop offset="0.75" stop-color="#194771" stop-opacity="0.99"/>
<stop offset="1" stop-color="#19416C"/>
</linearGradient>
<linearGradient id="paint21_linear_4553_14340" x1="1892.79" y1="7.91096" x2="2399.41" y2="7.91096" gradientUnits="userSpaceOnUse">
<stop stop-color="#3CBFDF" stop-opacity="0.8"/>
<stop offset="0.13" stop-color="#35A6C7" stop-opacity="0.85"/>
<stop offset="0.35" stop-color="#297DA0" stop-opacity="0.91"/>
<stop offset="0.57" stop-color="#1F5E83" stop-opacity="0.96"/>
<stop offset="0.79" stop-color="#1B4972" stop-opacity="0.99"/>
<stop offset="1" stop-color="#19416C"/>
</linearGradient>
<linearGradient id="paint22_linear_4553_14340" x1="1892.79" y1="7.91096" x2="2399.41" y2="7.91096" gradientUnits="userSpaceOnUse">
<stop stop-color="#3CBFDF" stop-opacity="0.8"/>
<stop offset="0.13" stop-color="#35A6C7" stop-opacity="0.85"/>
<stop offset="0.35" stop-color="#297DA0" stop-opacity="0.91"/>
<stop offset="0.57" stop-color="#1F5E83" stop-opacity="0.96"/>
<stop offset="0.79" stop-color="#1B4972" stop-opacity="0.99"/>
<stop offset="1" stop-color="#19416C"/>
</linearGradient>
<linearGradient id="paint23_linear_4553_14340" x1="2403.14" y1="7.91095" x2="2909.72" y2="7.91095" gradientUnits="userSpaceOnUse">
<stop stop-color="#3CBFDF" stop-opacity="0.8"/>
<stop offset="0.13" stop-color="#35A6C7" stop-opacity="0.85"/>
<stop offset="0.35" stop-color="#297DA0" stop-opacity="0.91"/>
<stop offset="0.57" stop-color="#1F5E83" stop-opacity="0.96"/>
<stop offset="0.79" stop-color="#1B4972" stop-opacity="0.99"/>
<stop offset="1" stop-color="#19416C"/>
</linearGradient>
<linearGradient id="paint24_linear_4553_14340" x1="2403.14" y1="7.91095" x2="2909.72" y2="7.91095" gradientUnits="userSpaceOnUse">
<stop stop-color="#3CBFDF" stop-opacity="0.8"/>
<stop offset="0.13" stop-color="#35A6C7" stop-opacity="0.85"/>
<stop offset="0.35" stop-color="#297DA0" stop-opacity="0.91"/>
<stop offset="0.57" stop-color="#1F5E83" stop-opacity="0.96"/>
<stop offset="0.79" stop-color="#1B4972" stop-opacity="0.99"/>
<stop offset="1" stop-color="#19416C"/>
</linearGradient>
<linearGradient id="paint25_linear_4553_14340" x1="3776.55" y1="6.03759" x2="5802.96" y2="6.03759" gradientUnits="userSpaceOnUse">
<stop stop-color="#5F59FE" stop-opacity="0.81"/>
<stop offset="0.23" stop-color="#6596F0" stop-opacity="0.89"/>
<stop offset="0.46" stop-color="#4FAAE6" stop-opacity="0.95"/>
<stop offset="0.71" stop-color="#41B9E1" stop-opacity="0.99"/>
<stop offset="1" stop-color="#3CBFDF"/>
</linearGradient>
<linearGradient id="paint26_linear_4553_14340" x1="3776.55" y1="6.03759" x2="5802.96" y2="6.03759" gradientUnits="userSpaceOnUse">
<stop stop-color="#5F59FE" stop-opacity="0.81"/>
<stop offset="0.23" stop-color="#6596F0" stop-opacity="0.89"/>
<stop offset="0.46" stop-color="#4FAAE6" stop-opacity="0.95"/>
<stop offset="0.71" stop-color="#41B9E1" stop-opacity="0.99"/>
<stop offset="1" stop-color="#3CBFDF"/>
</linearGradient>
<linearGradient id="paint27_linear_4553_14340" x1="2176.52" y1="4.44255" x2="2682.33" y2="4.44255" gradientUnits="userSpaceOnUse">
<stop stop-color="#5F59FE" stop-opacity="0.81"/>
<stop offset="0.23" stop-color="#6596F0" stop-opacity="0.89"/>
<stop offset="0.46" stop-color="#4FAAE6" stop-opacity="0.95"/>
<stop offset="0.71" stop-color="#41B9E1" stop-opacity="0.99"/>
<stop offset="1" stop-color="#3CBFDF"/>
</linearGradient>
<radialGradient id="paint28_radial_4553_14340" cx="0" cy="0" r="1" gradientUnits="userSpaceOnUse" gradientTransform="translate(15.0082 7.1723) scale(4.54959)">
<stop stop-color="#8D87F7"/>
<stop offset="0.05" stop-color="#958FF8" stop-opacity="0.94"/>
<stop offset="0.32" stop-color="#D2DBFA" stop-opacity="0.61"/>
<stop offset="0.55" stop-color="#E8EAFC" stop-opacity="0.35"/>
<stop offset="0.75" stop-color="#EEEDFE" stop-opacity="0.16"/>
<stop offset="0.91" stop-color="#FBFBFF" stop-opacity="0.04"/>
<stop offset="1" stop-color="white" stop-opacity="0"/>
</radialGradient>
<clipPath id="clip0_4553_14340">
<rect width="25.6918" height="26.12" fill="white"/>
</clipPath>
</defs>
</svg>
