<svg width="24" height="24" viewBox="0 0 24 24" fill="none" xmlns="http://www.w3.org/2000/svg">
<g clip-path="url(#clip0_1638_4334)">
<path d="M5.07864 15.172C5.07864 16.5668 3.94797 17.6943 2.54887 17.6943C2.21657 17.6947 1.88748 17.6296 1.58042 17.503C1.27336 17.3763 0.994369 17.1905 0.75941 16.9563C0.524451 16.722 0.33814 16.4438 0.21114 16.1376C0.0841402 15.8314 0.0189459 15.5033 0.0192885 15.172C0.0192885 13.7771 1.14995 12.6498 2.54887 12.6498H5.07864V15.172ZM6.34343 15.172C6.34343 13.7771 7.47409 12.6498 8.87301 12.6498C10.2719 12.6498 11.4028 13.7771 11.4028 15.172V21.4776C11.4028 22.8725 10.2721 24 8.87301 24C8.54073 24.0003 8.21165 23.9353 7.90462 23.8086C7.59758 23.6819 7.31861 23.4961 7.08367 23.2619C6.84873 23.0276 6.66243 22.7494 6.53545 22.4432C6.40846 22.1371 6.34327 21.8089 6.34361 21.4776V15.172H6.34343Z" fill="#E01E5A"/>
<path d="M8.87288 5.04457C8.5406 5.04486 8.21153 4.97982 7.90449 4.85315C7.59745 4.72649 7.31848 4.5407 7.08354 4.30641C6.8486 4.07212 6.66231 3.79394 6.53532 3.48778C6.40833 3.18162 6.34314 2.8535 6.34349 2.52219C6.3433 1.12736 7.47397 0 8.87288 0C10.2718 0 11.4026 1.12736 11.4026 2.52219V5.04457H8.87288ZM8.87288 6.32477C10.2718 6.32477 11.4026 7.45213 11.4026 8.84696C11.4026 10.2418 10.272 11.3693 8.87288 11.3693H2.52958C2.19729 11.3697 1.86819 11.3046 1.56113 11.178C1.25408 11.0513 0.975082 10.8655 0.740123 10.6312C0.505164 10.397 0.318853 10.1188 0.191853 9.81259C0.0648531 9.50642 -0.000341255 9.17828 1.34328e-06 8.84696C1.34328e-06 7.45213 1.13067 6.32495 2.52958 6.32495H8.87307L8.87288 6.32477Z" fill="#36C5F0"/>
<path d="M19.0107 8.84696C19.0107 7.45213 20.1413 6.32477 21.5402 6.32477C22.9392 6.32477 24.07 7.45213 24.07 8.84696C24.07 10.2418 22.9393 11.3693 21.5402 11.3693H19.0107V8.84696ZM17.7457 8.84696C17.7457 10.2418 16.6152 11.3693 15.2161 11.3693C14.8838 11.3697 14.5547 11.3046 14.2477 11.178C13.9406 11.0513 13.6616 10.8655 13.4266 10.6312C13.1917 10.397 13.0054 10.1188 12.8784 9.81259C12.7514 9.50642 12.6862 9.17828 12.6865 8.84696V2.52219C12.6865 1.12736 13.8172 0 15.2161 0C16.615 0 17.7459 1.12736 17.7459 2.52219V8.84715L17.7457 8.84696Z" fill="#2EB67D"/>
<path d="M15.2161 18.9554C16.615 18.9554 17.7459 20.0828 17.7459 21.4776C17.7459 22.8725 16.6152 24 15.2161 24C14.8838 24.0003 14.5547 23.9353 14.2477 23.8087C13.9406 23.682 13.6616 23.4962 13.4266 23.2619C13.1917 23.0276 13.0054 22.7494 12.8784 22.4433C12.7514 22.1371 12.6862 21.809 12.6865 21.4776V18.9554H15.2161ZM15.2161 17.6942C14.8838 17.6945 14.5547 17.6295 14.2477 17.5028C13.9407 17.3762 13.6617 17.1904 13.4267 16.9561C13.1918 16.7219 13.0054 16.4437 12.8784 16.1375C12.7514 15.8314 12.6862 15.5033 12.6865 15.172C12.6865 13.7771 13.8172 12.6498 15.2161 12.6498H21.5596C22.9585 12.6498 24.0892 13.7771 24.0892 15.172C24.0892 16.5668 22.9585 17.6943 21.5594 17.6943H15.2161V17.6942Z" fill="#ECB22E"/>
</g>
<defs>
<clipPath id="clip0_1638_4334">
<rect width="24" height="24" fill="white"/>
</clipPath>
</defs>
</svg>
