<svg width="22" height="22" viewBox="0 0 22 22" fill="none" xmlns="http://www.w3.org/2000/svg">
<path d="M11 0C4.92545 0 0 4.92545 0 11C0 17.0746 4.92545 22 11 22C17.0746 22 22 17.0746 22 11C22 4.92545 17.0746 0 11 0ZM16.2864 8.29174C16.2937 8.40714 16.2937 8.52746 16.2937 8.64531C16.2937 12.2498 13.5487 16.4018 8.53237 16.4018C6.98549 16.4018 5.55156 15.9525 4.34353 15.179C4.56451 15.2036 4.77567 15.2134 5.00156 15.2134C6.27835 15.2134 7.45201 14.7812 8.3875 14.0496C7.18929 14.025 6.18259 13.2393 5.83884 12.1589C6.2587 12.2203 6.63683 12.2203 7.06897 12.1098C6.45201 11.9845 5.89746 11.6494 5.49955 11.1615C5.10164 10.6736 4.8849 10.0631 4.88616 9.43348V9.39911C5.2471 9.6029 5.67188 9.72812 6.11629 9.74531C5.74269 9.49633 5.4363 9.159 5.22429 8.76324C5.01228 8.36749 4.9012 7.92553 4.90089 7.47656C4.90089 6.9683 5.03348 6.50424 5.27165 6.10156C5.95646 6.94458 6.81099 7.63405 7.77971 8.12518C8.74843 8.61631 9.80966 8.8981 10.8944 8.95223C10.5089 7.09844 11.8937 5.59821 13.5585 5.59821C14.3442 5.59821 15.0513 5.92723 15.5498 6.45759C16.1661 6.34219 16.7554 6.11138 17.2808 5.80201C17.077 6.43304 16.6498 6.96585 16.0826 7.30223C16.6326 7.2433 17.1629 7.09107 17.654 6.87746C17.2833 7.42254 16.8192 7.90625 16.2864 8.29174V8.29174Z" fill="white"/>
</svg>
