<svg width="58" height="58" viewBox="0 0 58 58" fill="none" xmlns="http://www.w3.org/2000/svg">
<g clip-path="url(#clip0_3341_7654)">
<path d="M29.0274 19.5133C30.3759 19.5133 31.545 18.7938 31.6356 17.8948L32.9841 2.69698C32.9841 1.16813 31.1852 -0.000976562 29.0274 -0.000976562C26.7799 -0.000976562 25.0707 1.26782 25.0707 2.69698L26.4192 17.8948C26.5098 18.7938 27.688 19.5133 29.0274 19.5133ZM20.7533 24.2875C21.4729 23.1093 21.3832 21.7699 20.6627 21.2297L8.16371 12.5062C6.89496 11.7866 4.92658 12.6856 3.84724 14.5742C2.7679 16.4629 2.94824 18.6207 4.20702 19.3411L18.0545 25.8154C18.9535 26.0854 20.1226 25.4556 20.7524 24.2866M37.2099 24.2866C37.9295 25.4647 39.0986 26.0845 39.9078 25.7256L53.7553 19.2514C55.0241 18.5319 55.2842 16.3741 54.1151 14.4845C53.0276 12.5959 51.0574 11.6969 49.7986 12.4165L37.2997 21.1391C36.5801 21.769 36.4904 23.1175 37.209 24.2866M29.0283 38.4947C30.3768 38.4947 31.5459 39.2143 31.6365 40.1133L32.985 55.3111C32.985 56.8399 31.1861 58.009 29.0283 58.009C26.7808 58.009 25.0716 56.7402 25.0716 55.3111L26.4201 40.1133C26.5107 39.2143 27.6889 38.4947 29.0283 38.4947ZM37.209 33.7125C37.9286 32.5344 39.0977 31.9136 39.9069 32.2733L53.7544 38.6579C55.0232 39.3774 55.2833 41.5352 54.1142 43.4247C53.0267 45.3134 51.0565 46.2123 49.7977 45.4928L37.2987 36.7701C36.5792 36.2309 36.4895 34.8815 37.2081 33.7125M20.7533 33.7125C21.4729 34.8906 21.3832 36.23 20.6627 36.7701L8.16371 45.4928C6.89496 46.2123 4.92658 45.3134 3.84724 43.4247C2.7679 41.5361 2.94824 39.3783 4.20702 38.6579L18.0545 32.2733C18.9535 31.9136 20.1226 32.5434 20.7524 33.7125" fill="#FDBB30"/>
</g>
<defs>
<clipPath id="clip0_3341_7654">
<rect width="58" height="58" fill="white"/>
</clipPath>
</defs>
</svg>
