<svg width="40" height="40" viewBox="0 0 40 40" fill="none" xmlns="http://www.w3.org/2000/svg">
<g clip-path="url(#clip0_4072_11323)">
<path d="M0.587363 10.5875C0.773118 10.4013 0.993786 10.2535 1.23673 10.1527C1.47967 10.0519 1.74012 10 2.00315 10C2.26618 10 2.52662 10.0519 2.76957 10.1527C3.01251 10.2535 3.23318 10.4013 3.41893 10.5875L20.0004 27.173L36.5819 10.5875C36.9574 10.212 37.4666 10.001 37.9977 10.001C38.5287 10.001 39.038 10.212 39.4134 10.5875C39.7889 10.963 39.9999 11.4722 39.9999 12.0033C39.9999 12.5343 39.7889 13.0436 39.4134 13.4191L21.4162 31.4163C21.2304 31.6025 21.0098 31.7503 20.7668 31.8511C20.5239 31.9519 20.2634 32.0038 20.0004 32.0038C19.7374 32.0038 19.4769 31.9519 19.234 31.8511C18.991 31.7503 18.7704 31.6025 18.5846 31.4163L0.587363 13.4191C0.401139 13.2333 0.25339 13.0126 0.15258 12.7697C0.0517694 12.5267 -0.00012207 12.2663 -0.00012207 12.0033C-0.00012207 11.7402 0.0517694 11.4798 0.15258 11.2369C0.25339 10.9939 0.401139 10.7732 0.587363 10.5875Z" fill="white"/>
</g>
<defs>
<clipPath id="clip0_4072_11323">
<rect width="40" height="40" fill="white"/>
</clipPath>
</defs>
</svg>
